<?xml version="1.0" encoding="UTF-8" standalone="no"?>
<svg
   width="256.6821mm"
   height="47.602123mm"
   viewBox="0 0 1434.9931 266.12229"
   version="1.2"
   id="svg723"
   sodipodi:docname="Logotipo_9.svg"
   inkscape:version="1.2 (dc2aedaf03, 2022-05-15)"
   xmlns:inkscape="http://www.inkscape.org/namespaces/inkscape"
   xmlns:sodipodi="http://sodipodi.sourceforge.net/DTD/sodipodi-0.dtd"
   xmlns="http://www.w3.org/2000/svg"
   xmlns:svg="http://www.w3.org/2000/svg"
   xmlns:rdf="http://www.w3.org/1999/02/22-rdf-syntax-ns#"
   xmlns:cc="http://creativecommons.org/ns#"
   xmlns:dc="http://purl.org/dc/elements/1.1/">
  <sodipodi:namedview
     id="namedview725"
     pagecolor="#ffffff"
     bordercolor="#000000"
     borderopacity="0.25"
     inkscape:showpageshadow="2"
     inkscape:pageopacity="0.0"
     inkscape:pagecheckerboard="true"
     inkscape:deskcolor="#d1d1d1"
     inkscape:document-units="mm"
     showgrid="false"
     inkscape:zoom="1.2895084"
     inkscape:cx="507.9455"
     inkscape:cy="124.46603"
     inkscape:window-width="1920"
     inkscape:window-height="1001"
     inkscape:window-x="-9"
     inkscape:window-y="-9"
     inkscape:window-maximized="1"
     inkscape:current-layer="svg723" />
  <title
     id="title553">Qt SVG Document</title>
  <desc
     id="desc555">Generated with Qt</desc>
  <defs
     id="defs557">
    <clipPath
       clipPathUnits="userSpaceOnUse"
       id="clipPath848">
      <rect
         style="fill:none;stroke:#0000d2;stroke-width:1.48149"
         id="rect850"
         width="1434.9955"
         height="266.12228"
         x="178.94278"
         y="184.67966" />
    </clipPath>
  </defs>
  <g
     fill="none"
     stroke="#000000"
     stroke-width="1"
     fill-rule="evenodd"
     stroke-linecap="square"
     stroke-linejoin="bevel"
     id="g721"
     clip-path="url(#clipPath848)"
     transform="translate(-178.94429,-184.67966)">
    <g
       fill="none"
       fill-opacity="1"
       stroke="none"
       font-family="'MS Shell Dlg 2'"
       font-size="17.75px"
       font-weight="400"
       font-style="normal"
       id="g561">
      <rect
         x="0"
         y="0"
         width="1864"
         height="662"
         id="rect559" />
    </g>
    <g
       fill="none"
       stroke="none"
       stroke-opacity="1"
       stroke-width="1"
       stroke-linecap="square"
       stroke-linejoin="bevel"
       font-family="'MS Shell Dlg 2'"
       font-size="17.75px"
       font-weight="400"
       font-style="normal"
       id="g563" />
    <g
       fill="none"
       fill-opacity="0"
       stroke="none"
       stroke-opacity="0"
       stroke-width="1"
       stroke-linecap="butt"
       stroke-linejoin="miter"
       stroke-miterlimit="2"
       font-family="'MS Shell Dlg 2'"
       font-size="17.75px"
       font-weight="400"
       font-style="normal"
       id="g565" />
    <g
       fill="none"
       fill-opacity="0"
       stroke="none"
       stroke-opacity="0"
       stroke-width="1"
       stroke-linecap="butt"
       stroke-linejoin="miter"
       stroke-miterlimit="2"
       font-family="'MS Shell Dlg 2'"
       font-size="17.75px"
       font-weight="400"
       font-style="normal"
       id="g567" />
    <g
       fill="#006042"
       fill-opacity="1"
       stroke="#006042"
       stroke-opacity="1"
       stroke-width="1"
       stroke-linecap="square"
       stroke-linejoin="bevel"
       font-family="'MS Shell Dlg 2'"
       font-size="17.75px"
       font-weight="400"
       font-style="normal"
       id="g569" />
    <g
       fill="#006042"
       fill-opacity="1"
       stroke="#006042"
       stroke-opacity="1"
       stroke-width="1"
       stroke-linecap="butt"
       stroke-linejoin="miter"
       stroke-miterlimit="2"
       font-family="'MS Shell Dlg 2'"
       font-size="17.75px"
       font-weight="400"
       font-style="normal"
       id="g573">
      <path
         vector-effect="non-scaling-stroke"
         fill-rule="evenodd"
         d="m 437.31,368.335 -0.019,0.636 -0.058,0.634 -0.095,0.63 -0.134,0.622 -0.171,0.613 -0.208,0.602 -0.243,0.588 -0.279,0.573 -0.313,0.554 -0.345,0.535 -0.378,0.513 -0.407,0.489 -0.437,0.464 -0.463,0.436 -0.489,0.408 -0.513,0.377 -0.535,0.346 -0.554,0.312 -0.573,0.279 -0.588,0.244 -0.602,0.207 -0.613,0.171 -0.623,0.134 -0.629,0.096 -0.634,0.057 -0.637,0.02 h -52.761 v 52.761 l -0.019,0.636 -0.058,0.634 -0.096,0.63 -0.133,0.622 -0.171,0.614 -0.208,0.601 -0.243,0.589 -0.279,0.572 -0.313,0.555 -0.346,0.534 -0.377,0.513 -0.408,0.489 -0.436,0.464 -0.464,0.436 -0.489,0.408 -0.512,0.377 -0.535,0.346 -0.555,0.313 -0.572,0.278 -0.588,0.244 -0.602,0.208 -0.613,0.171 -0.623,0.133 -0.629,0.096 -0.634,0.058 -0.637,0.019 H 262.187 l -0.636,-0.019 -0.634,-0.058 -0.63,-0.096 -0.622,-0.133 -0.613,-0.171 -0.602,-0.208 -0.588,-0.244 -0.573,-0.278 -0.554,-0.313 -0.535,-0.346 -0.513,-0.377 -0.489,-0.408 -0.464,-0.436 -0.436,-0.464 -0.408,-0.489 -0.377,-0.513 -0.346,-0.534 -0.312,-0.555 -0.279,-0.572 -0.244,-0.589 -0.207,-0.601 -0.171,-0.614 -0.134,-0.622 -0.096,-0.63 -0.057,-0.634 -0.02,-0.636 v -52.761 h -52.761 l -0.636,-0.02 -0.634,-0.057 -0.63,-0.096 -0.622,-0.134 -0.614,-0.171 -0.601,-0.207 -0.589,-0.244 -0.572,-0.279 -0.555,-0.312 -0.534,-0.346 -0.513,-0.377 -0.489,-0.408 -0.464,-0.436 -0.436,-0.464 -0.408,-0.489 -0.377,-0.513 -0.346,-0.535 -0.313,-0.554 -0.278,-0.573 -0.244,-0.588 -0.208,-0.602 -0.171,-0.613 -0.133,-0.622 -0.096,-0.63 -0.058,-0.634 -0.019,-0.636 V 267.053 l 0.019,-0.637 0.058,-0.634 0.096,-0.629 0.133,-0.623 0.171,-0.613 0.208,-0.602 0.244,-0.588 0.278,-0.572 0.313,-0.555 0.346,-0.535 0.377,-0.512 0.408,-0.489 0.436,-0.464 0.464,-0.436 0.489,-0.408 0.513,-0.377 0.534,-0.346 0.555,-0.313 0.572,-0.279 0.589,-0.243 0.601,-0.208 0.614,-0.171 0.622,-0.134 0.63,-0.095 0.634,-0.058 0.636,-0.019 h 52.761 v -52.761 l 0.02,-0.637 0.057,-0.634 0.096,-0.629 0.134,-0.623 0.171,-0.613 0.207,-0.602 0.244,-0.588 0.279,-0.573 0.312,-0.554 0.346,-0.535 0.377,-0.513 0.408,-0.489 0.436,-0.463 0.464,-0.437 0.489,-0.407 0.513,-0.378 0.535,-0.345 0.554,-0.313 0.573,-0.279 0.588,-0.243 0.602,-0.208 0.613,-0.171 0.622,-0.134 0.63,-0.096 0.634,-0.057 0.636,-0.019 h 101.282 l 0.637,0.019 0.634,0.057 0.629,0.096 0.623,0.134 0.613,0.171 0.602,0.208 0.588,0.243 0.572,0.279 0.555,0.313 0.535,0.345 0.512,0.378 0.489,0.407 0.464,0.437 0.436,0.463 0.408,0.489 0.377,0.513 0.346,0.535 0.313,0.554 0.279,0.573 0.243,0.588 0.208,0.602 0.171,0.613 0.133,0.623 0.096,0.629 0.058,0.634 0.019,0.637 v 52.761 h 52.761 l 0.637,0.019 0.634,0.058 0.629,0.095 0.623,0.134 0.613,0.171 0.602,0.208 0.588,0.243 0.573,0.279 0.554,0.313 0.535,0.346 0.513,0.377 0.489,0.408 0.463,0.436 0.437,0.464 0.407,0.489 0.378,0.512 0.345,0.535 0.313,0.555 0.279,0.572 0.243,0.588 0.208,0.602 0.171,0.613 0.134,0.623 0.095,0.629 0.058,0.634 0.019,0.637 v 101.282 m -195.282,-100.147 0.797,0.583 0.807,0.571 0.816,0.557 0.827,0.539 0.838,0.52 0.851,0.497 0.865,0.472 0.878,0.45 0.891,0.43 0.906,0.411 0.919,0.396 0.932,0.383 0.947,0.372 0.961,0.365 0.974,0.358 0.989,0.356 0.173,0.394 0.19,0.386 0.206,0.377 0.22,0.37 0.232,0.363 0.244,0.357 0.516,0.699 0.546,0.681 0.565,0.671 1.146,1.328 0.559,0.667 0.535,0.678 0.256,0.344 0.246,0.349 0.235,0.354 0.222,0.359 0.209,0.366 0.195,0.372 0.182,0.377 0.169,0.384 0.156,0.39 0.143,0.394 0.132,0.4 0.119,0.405 0.108,0.409 0.097,0.413 0.086,0.418 0.075,0.421 0.064,0.426 0.055,0.428 0.081,0.867 0.044,0.878 0.01,0.886 -0.022,0.893 -0.051,0.899 -0.077,0.902 -0.102,0.903 -0.124,0.903 -0.143,0.901 -0.161,0.896 -0.175,0.89 -0.188,0.884 -0.198,0.878 -0.421,1.74 -0.439,1.72 -0.44,1.703 -0.426,1.686 -0.203,0.838 -0.193,0.835 -0.182,0.832 -0.168,0.829 -0.152,0.827 -0.134,0.824 -0.115,0.823 -0.092,0.821 -0.069,0.82 -0.044,0.819 -0.015,0.818 0.014,0.817 0.046,0.817 0.077,0.817 0.107,0.815 0.136,0.815 0.165,0.813 0.192,0.811 0.219,0.81 0.244,0.807 0.269,0.804 0.293,0.802 0.316,0.799 0.338,0.796 0.359,0.791 0.38,0.788 0.399,0.784 0.417,0.78 0.436,0.774 0.452,0.77 0.468,0.764 0.483,0.759 0.497,0.752 0.51,0.747 0.522,0.741 0.534,0.733 0.545,0.727 0.554,0.719 0.563,0.712 0.571,0.705 0.578,0.696 0.584,0.687 1.182,1.35 1.197,1.312 1.208,1.276 0.61,0.623 0.613,0.614 0.618,0.605 0.622,0.596 0.628,0.586 0.632,0.577 0.639,0.568 0.644,0.559 0.651,0.549 0.658,0.541 0.664,0.531 0.672,0.523 0.68,0.513 0.688,0.504 0.697,0.496 0.705,0.486 0.714,0.478 0.724,0.468 0.734,0.46 0.744,0.451 0.755,0.442 0.765,0.434 0.774,0.423 0.784,0.415 0.791,0.403 0.798,0.394 0.804,0.382 0.81,0.37 0.813,0.358 0.816,0.346 0.819,0.333 0.82,0.319 0.821,0.306 0.82,0.291 0.818,0.277 0.817,0.261 0.813,0.245 0.808,0.23 0.804,0.213 0.798,0.195 -2.976,2.134 -2.995,2.107 -3.01,2.085 -3.023,2.068 -3.038,2.048 -1.526,1.012 -1.533,1.002 -1.54,0.99 -1.549,0.977 -1.558,0.961 -1.569,0.944 -0.224,0.038 -0.241,0.043 -0.257,0.047 -0.272,0.05 -0.286,0.055 -0.298,0.057 -0.309,0.061 -0.32,0.064 -0.666,0.136 -0.693,0.145 -0.712,0.153 -0.721,0.16 -1.446,0.332 -1.442,0.346 -2.879,0.724 0.875,9.883 2.103,-0.482 2.107,-0.464 2.114,-0.444 2.119,-0.424 2.125,-0.404 2.132,-0.381 2.137,-0.36 2.142,-0.335 2.147,-0.309 2.15,-0.282 2.154,-0.253 2.156,-0.223 2.158,-0.192 2.159,-0.159 2.159,-0.124 2.16,-0.088 2.158,-0.051 2.158,-0.012 1.078,0.009 1.077,0.019 1.077,0.03 1.076,0.04 1.075,0.051 1.074,0.062 1.073,0.074 1.072,0.084 1.071,0.096 1.07,0.108 1.068,0.117 1.068,0.128 2.133,0.283 2.129,0.316 2.126,0.345 2.124,0.368 2.123,0.387 2.121,0.401 4.24,0.827 1.343,-9.508 -3.044,-0.51 -1.507,-0.253 -1.492,-0.247 -1.472,-0.241 -1.447,-0.232 -1.417,-0.221 -1.383,-0.208 0.733,-1.485 0.722,-1.491 1.435,-2.986 0.726,-1.488 0.739,-1.482 0.758,-1.471 0.782,-1.459 0.806,-1.446 0.822,-1.437 1.67,-2.861 0.833,-1.432 0.824,-1.437 0.807,-1.446 0.783,-1.459 0.108,-0.048 0.123,-0.055 0.28,-0.124 0.594,-0.253 0.6,-0.236 0.604,-0.221 0.608,-0.205 0.612,-0.19 0.616,-0.176 0.618,-0.162 0.621,-0.149 0.623,-0.137 0.625,-0.124 0.627,-0.113 0.627,-0.101 0.628,-0.091 1.256,-0.153 1.255,-0.116 1.248,-0.085 1.241,-0.057 1.228,-0.034 1.216,-0.013 1.203,0.007 1.192,0.028 1.183,0.049 1.175,0.07 1.169,0.091 1.163,0.114 1.16,0.135 1.158,0.158 1.157,0.18 1.157,0.204 1.16,0.227 1.163,0.25 1.169,0.274 1.174,0.298 1.182,0.323 1.189,0.349 1.194,0.374 1.199,0.402 1.203,0.431 1.206,0.459 1.208,0.49 1.209,0.521 1.209,0.552 1.208,0.586 1.207,0.62 1.205,0.654 1.201,0.69 1.197,0.727 1.192,0.764 1.186,0.803 1.181,0.83 1.18,0.836 1.183,0.818 0.594,0.396 0.596,0.384 0.598,0.368 0.602,0.349 0.605,0.329 0.609,0.305 0.613,0.278 0.619,0.248 0.624,0.217 0.629,0.181 0.636,0.143 0.643,0.105 0.648,0.069 0.654,0.038 0.658,0.011 0.662,-0.014 0.665,-0.033 0.668,-0.05 1.342,-0.132 1.345,-0.152 1.343,-0.141 0.668,-0.057 0.667,-0.045 0.665,-0.032 0.663,-0.021 0.661,-0.01 h 0.659 l 1.313,0.031 1.308,0.068 1.302,0.099 -1.337,-1.056 -1.355,-1.032 -1.376,-1.005 -1.398,-0.976 -0.707,-0.475 -0.714,-0.468 -1.444,-0.913 -1.466,-0.884 -1.483,-0.859 -1.5,-0.836 -1.515,-0.816 -1.526,-0.8 -1.536,-0.785 -3.093,-1.541 -3.105,-1.518 -3.1,-1.519 -1.542,-0.766 -1.534,-0.776 -1.525,-0.787 -1.512,-0.801 -1.497,-0.819 -1.48,-0.839 -1.462,-0.861 -1.44,-0.888 -1.417,-0.916 -0.698,-0.47 -0.693,-0.477 -0.685,-0.487 -0.678,-0.495 -0.67,-0.505 -0.663,-0.514 -0.654,-0.525 -0.646,-0.534 -0.638,-0.546 -0.629,-0.556 -1.91,-0.115 -1.906,-0.151 -0.951,-0.091 -0.95,-0.101 -0.947,-0.113 -0.946,-0.124 -0.943,-0.137 -0.942,-0.149 -0.939,-0.162 -0.937,-0.176 -0.934,-0.189 -0.932,-0.204 -0.928,-0.219 -0.926,-0.232 -0.923,-0.246 -0.92,-0.259 -0.916,-0.272 -0.913,-0.285 -0.91,-0.298 -0.906,-0.31 -0.902,-0.323 -0.899,-0.334 -0.894,-0.346 -0.891,-0.357 -0.887,-0.369 -0.882,-0.38 -0.878,-0.39 -0.874,-0.4 -0.869,-0.411 -0.864,-0.421 -0.86,-0.43 -0.855,-0.44 -0.85,-0.449 -0.845,-0.458 -1.674,-0.942 -1.653,-0.975 -1.63,-1.006 -1.607,-1.034 -1.584,-1.062 -1.562,-1.089 -1.541,-1.116 -1.523,-1.144 -1.506,-1.171 -1.491,-1.198 -1.475,-1.228 -0.726,-0.628 -0.714,-0.641 -0.697,-0.657 -0.678,-0.674 -0.653,-0.695 -0.627,-0.717 1.408,1.096 1.42,1.079 1.434,1.061 1.448,1.043 1.463,1.022 1.477,1.002 1.493,0.978 1.509,0.955 1.525,0.932 1.539,0.906 1.555,0.883 1.568,0.857 1.583,0.831 1.596,0.805 1.61,0.779 1.623,0.751 1.635,0.725 1.647,0.696 1.659,0.668 1.671,0.64 1.681,0.61 1.693,0.58 1.702,0.55 1.712,0.519 1.721,0.485 1.73,0.452 1.737,0.417 1.744,0.381 1.752,0.345 1.757,0.306 1.763,0.267 0.883,0.119 0.887,0.109 -0.748,-0.794 -0.737,-0.807 -0.727,-0.82 -0.719,-0.829 -1.419,-1.68 -1.406,-1.696 -1.407,-1.695 -1.42,-1.679 -1.436,-1.659 -1.451,-1.641 -1.464,-1.626 -1.476,-1.613 -1.485,-1.605 -1.494,-1.597 -3.005,-3.185 -3.016,-3.191 -3.016,-3.217 -3.013,-3.243 -3.019,-3.254 -3.033,-3.25 -3.054,-3.23 -1.537,-1.603 -1.546,-1.591 -1.556,-1.579 -1.566,-1.563 -1.577,-1.547 -1.59,-1.527 -1.603,-1.507 -1.618,-1.484 -1.633,-1.459 -1.65,-1.433 -1.668,-1.403 -1.686,-1.373 -1.705,-1.34 -0.86,-0.658 -0.866,-0.648 -0.871,-0.639 -0.877,-0.63 -0.882,-0.62 -0.888,-0.61 -0.894,-0.6 -0.9,-0.589 -0.906,-0.579 -0.912,-0.568 -0.919,-0.557 -0.926,-0.544 -0.933,-0.531 -0.941,-0.517 -0.949,-0.502 -0.958,-0.487 -0.967,-0.47 -0.976,-0.453 -0.985,-0.436 -0.996,-0.416 -1.006,-0.398 -1.017,-0.377 -1.028,-0.356 -1.04,-0.334 -1.051,-0.311 -1.064,-0.288 -1.077,-0.264 -1.09,-0.239 -1.103,-0.213 -1.118,-0.186 -1.131,-0.159 -1.147,-0.131 -1.161,-0.102 -1.177,-0.072 -1.192,-0.042 -1.209,-0.01 -1.225,0.022 -1.242,0.054 -1.254,0.09 -1.257,0.128 -0.627,0.08 -0.624,0.09 -0.621,0.101 -0.617,0.113 -0.61,0.125 -0.604,0.138 -0.595,0.15 -0.587,0.163 -0.576,0.176 -0.566,0.191 -0.552,0.205 -0.54,0.22 -0.524,0.235 -0.51,0.25 -0.492,0.267 -0.474,0.283 -0.456,0.299 -0.435,0.317 -0.415,0.334 -0.392,0.352 -1.018,0.068 -1.018,0.084 -2.032,0.196 -2.032,0.21 -2.028,0.234 -1.012,0.133 -1.011,0.147 -1.008,0.164 -1.005,0.183 -1.001,0.205 -0.996,0.23 -0.989,0.256 -0.98,0.284"
         id="path571" />
    </g>
    <g
       fill="#006042"
       fill-opacity="1"
       stroke="#006042"
       stroke-opacity="1"
       stroke-width="1"
       stroke-linecap="square"
       stroke-linejoin="bevel"
       font-family="'MS Shell Dlg 2'"
       font-size="17.75px"
       font-weight="400"
       font-style="normal"
       id="g575" />
    <g
       fill="#006042"
       fill-opacity="1"
       stroke="#006042"
       stroke-opacity="1"
       stroke-width="1"
       stroke-linecap="butt"
       stroke-linejoin="miter"
       stroke-miterlimit="2"
       font-family="'MS Shell Dlg 2'"
       font-size="17.75px"
       font-weight="400"
       font-style="normal"
       id="g577" />
    <g
       fill="#006042"
       fill-opacity="1"
       stroke="none"
       font-family="'MS Shell Dlg 2'"
       font-size="17.75px"
       font-weight="400"
       font-style="normal"
       id="g581">
      <path
         vector-effect="none"
         fill-rule="evenodd"
         d="m 291.813,376.886 0.86,-0.075 0.88,-0.071 0.9,-0.065 0.917,-0.06 0.933,-0.055 0.947,-0.049 0.959,-0.042 0.969,-0.037 1.964,-0.055 1.984,-0.028 1.992,-10e-4 1.988,0.026 1.979,0.053 1.965,0.077 1.944,0.1 1.918,0.121 1.886,0.141 0.93,0.078 0.919,0.082 0.909,0.087 0.897,0.09 0.885,0.094 0.872,0.098 1.318,-2.181 1.306,-2.189 0.642,-1.101 0.633,-1.105 0.621,-1.112 0.608,-1.12 0.593,-1.127 0.582,-1.133 1.144,-2.277 1.139,-2.28 1.162,-2.268 -0.184,0.099 -0.204,0.109 -0.222,0.118 -0.24,0.125 -0.255,0.131 -0.269,0.137 -0.281,0.14 -0.291,0.143 -0.609,0.289 -0.63,0.285 -0.642,0.272 -0.648,0.256 -0.653,0.24 -0.659,0.224 -0.664,0.209 -0.668,0.193 -0.672,0.178 -0.676,0.164 -0.679,0.148 -0.682,0.135 -0.685,0.119 -0.687,0.106 -0.688,0.092 -0.689,0.077 -0.691,0.065 -0.691,0.051 -0.691,0.037 -0.69,0.025 -0.69,0.012 -0.688,-10e-4 -0.687,-0.013 -0.685,-0.025 -0.683,-0.038 -0.68,-0.049 -0.676,-0.061 -0.673,-0.072 -1.168,0.899 -1.18,0.882 -1.192,0.866 -1.202,0.853 -1.21,0.842 -1.218,0.832 -2.449,1.644 -4.919,3.26 -1.222,0.825 -1.21,0.836 -1.196,0.852 -1.177,0.873"
         id="path579" />
    </g>
    <g
       fill="#006042"
       fill-opacity="1"
       stroke="#006042"
       stroke-opacity="1"
       stroke-width="1"
       stroke-linecap="butt"
       stroke-linejoin="miter"
       stroke-miterlimit="2"
       font-family="'MS Shell Dlg 2'"
       font-size="17.75px"
       font-weight="400"
       font-style="normal"
       id="g583" />
    <g
       fill="#006042"
       fill-opacity="1"
       stroke="#006042"
       stroke-opacity="1"
       stroke-width="1"
       stroke-linecap="square"
       stroke-linejoin="bevel"
       font-family="'MS Shell Dlg 2'"
       font-size="17.75px"
       font-weight="400"
       font-style="normal"
       id="g613">
      <polyline
         fill="none"
         vector-effect="non-scaling-stroke"
         points="418.718,368.182 417.408,368.081 416.094,368.014 414.773,367.983 414.111,367.983 413.446,367.993 412.78,368.015 412.111,368.048 411.441,368.093 410.768,368.151 409.418,368.294 408.066,368.447 406.717,368.578 406.046,368.627 405.377,368.659 404.712,368.67 404.051,368.656 403.394,368.615 402.743,368.541 402.098,368.431 401.459,368.282 400.827,368.095 400.201,367.873 399.58,367.618 398.964,367.334 398.352,367.024 397.744,366.69 397.14,366.335 396.539,365.963 395.94,365.575 395.344,365.174 394.155,364.349 392.968,363.508 391.78,362.675 390.587,361.873 389.389,361.109 388.185,360.382 386.976,359.693 385.765,359.04 384.551,358.422 383.336,357.838 382.12,357.287 380.905,356.769 379.691,356.281 378.479,355.824 377.27,355.396 376.065,354.997 374.866,354.625 373.672,354.28 372.485,353.96 371.305,353.665 370.132,353.394 368.963,353.148 367.798,352.925 366.634,352.725 365.471,352.549 364.307,352.395 363.14,352.265 361.969,352.156 360.793,352.069 359.61,352.004 358.418,351.961 357.217,351.938 356.004,351.937 354.778,351.956 353.539,351.996 352.29,352.06 351.032,352.154 349.77,352.282 348.507,352.447 347.876,352.544 347.246,352.653 346.617,352.774 345.99,352.906 345.365,353.051 344.742,353.21 344.122,353.382 343.505,353.568 342.892,353.769 342.283,353.985 341.679,354.217 341.079,354.466 340.784,354.595 340.645,354.657 340.516,354.715 340.403,354.765 340.31,354.807 340.239,354.838 340.197,354.855 "
         id="polyline585" />
      <polyline
         fill="none"
         vector-effect="non-scaling-stroke"
         points="331.98,359.49 331.798,359.588 331.596,359.696 331.375,359.813 331.136,359.938 330.882,360.069 330.614,360.206 330.333,360.346 330.042,360.489 329.433,360.779 328.801,361.065 328.158,361.339 327.509,361.596 326.853,361.837 326.193,362.063 325.527,362.273 324.857,362.467 324.183,362.646 323.505,362.81 322.824,362.96 322.14,363.095 321.453,363.215 320.764,363.321 320.074,363.413 319.382,363.491 318.69,363.556 317.997,363.607 317.304,363.645 316.611,363.669 315.92,363.681 315.229,363.68 314.54,363.667 313.853,363.641 313.168,363.603 312.486,363.554 311.808,363.492 311.133,363.419 "
         id="polyline587" />
      <polyline
         fill="none"
         vector-effect="non-scaling-stroke"
         points="304.247,362.222 303.449,362.028 302.645,361.817 301.836,361.589 301.022,361.345 300.205,361.086 299.386,360.811 298.565,360.521 297.744,360.216 296.922,359.898 296.102,359.566 295.285,359.221 294.47,358.864 293.659,358.494 292.853,358.113 292.054,357.721 291.261,357.317 290.475,356.904 289.699,356.48 288.932,356.048 288.175,355.606 287.429,355.155 286.693,354.696 285.968,354.227 285.251,353.75 284.544,353.264 283.846,352.768 283.157,352.264 282.475,351.751 281.801,351.229 281.135,350.698 280.476,350.157 279.824,349.608 279.178,349.049 278.539,348.481 277.905,347.904 277.276,347.318 276.652,346.722 276.034,346.117 275.419,345.503 274.809,344.879 273.598,343.604 272.4,342.291 271.215,340.941 270.63,340.253 270.051,339.557 269.479,338.852 268.915,338.14 268.359,337.42 267.814,336.693 267.278,335.958 266.754,335.218 266.243,334.47 265.744,333.717 265.26,332.957 264.791,332.192 264.337,331.422 263.9,330.647 263.481,329.867 263.081,329.082 262.7,328.293 262.339,327.501 262,326.704 261.683,325.905 261.388,325.102 261.118,324.296 260.872,323.488 260.653,322.678 260.459,321.866 260.294,321.052 260.156,320.236 260.048,319.419 259.97,318.602 259.923,317.784 259.908,316.966 259.923,316.147 259.965,315.327 260.034,314.506 260.126,313.684 260.24,312.86 260.375,312.034 260.526,311.206 260.694,310.376 260.876,309.543 261.069,308.708 261.272,307.869 261.698,306.18 262.139,304.476 262.579,302.754 263,301.011 263.199,300.132 263.387,299.247 263.562,298.356 263.723,297.458 263.866,296.557 263.99,295.653 264.092,294.749 264.17,293.845 264.221,292.946 264.242,292.051 264.232,291.164 264.187,290.285 264.106,289.418 264.051,288.988 263.986,288.563 263.91,288.141 263.824,287.723 263.727,287.309 263.618,286.899 263.498,286.494 263.366,286.094 263.222,285.699 263.066,285.31 262.896,284.926 262.714,284.547 262.518,284.175 262.308,283.809 262.085,283.45 261.849,283.096 261.602,282.747 261.346,282.403 260.809,281.724 260.249,281.056 259.102,279.726 258.536,279.055 257.99,278.372 257.728,278.024 257.474,277.672 257.231,277.314 256.999,276.95 256.78,276.579 256.576,276.201 256.386,275.814 256.214,275.418 "
         id="polyline589" />
      <polyline
         fill="none"
         vector-effect="non-scaling-stroke"
         points="258.15,265.802 258.541,265.45 258.955,265.115 259.391,264.798 259.846,264.498 260.32,264.215 260.812,263.948 261.321,263.697 261.845,263.462 262.384,263.242 262.937,263.036 263.502,262.845 264.078,262.668 264.665,262.505 265.26,262.354 265.864,262.217 266.474,262.092 267.09,261.979 267.711,261.877 268.336,261.787 268.963,261.707 270.22,261.578 271.474,261.488 272.716,261.433 273.942,261.411 275.151,261.421 276.344,261.462 277.521,261.534 278.682,261.636 279.829,261.766 280.961,261.925 282.078,262.111 283.182,262.324 284.272,262.563 285.349,262.827 286.413,263.114 287.465,263.426 288.505,263.76 289.533,264.116 290.55,264.492 291.557,264.89 292.553,265.306 293.538,265.742 294.514,266.195 295.481,266.665 296.439,267.152 297.388,267.654 298.33,268.171 299.263,268.702 300.189,269.246 301.108,269.802 302.021,270.37 302.927,270.949 303.827,271.539 304.721,272.139 305.609,272.749 306.491,273.369 307.368,273.999 308.239,274.638 309.105,275.286 309.966,275.943 311.671,277.284 313.357,278.657 315.025,280.06 316.675,281.493 318.309,282.952 319.927,284.436 321.53,285.943 323.12,287.471 324.698,289.018 326.264,290.581 327.82,292.16 329.366,293.751 330.904,295.354 333.958,298.584 336.991,301.835 340.01,305.09 343.024,308.333 346.04,311.55 349.057,314.741 352.062,317.927 353.556,319.524 355.041,321.129 356.517,322.743 357.981,324.369 359.433,326.01 360.869,327.669 362.289,329.348 363.696,331.043 365.102,332.739 366.522,334.42 367.241,335.249 367.968,336.069 368.704,336.876 369.453,337.67 "
         id="polyline591" />
      <polyline
         fill="none"
         vector-effect="non-scaling-stroke"
         points="371.992,340.133 372.621,340.689 373.258,341.235 373.904,341.77 374.559,342.294 375.222,342.809 375.892,343.314 376.57,343.809 377.256,344.296 377.948,344.774 378.647,345.243 380.064,346.16 381.504,347.047 382.966,347.909 384.447,348.748 385.944,349.567 387.456,350.369 388.981,351.156 390.516,351.931 392.058,352.698 395.159,354.218 398.264,355.736 401.358,357.277 402.894,358.062 404.421,358.862 405.935,359.679 407.436,360.515 408.92,361.374 410.385,362.258 411.83,363.171 412.543,363.639 413.251,364.115 414.649,365.091 416.025,366.096 417.381,367.128 418.718,368.185 "
         id="polyline593" />
      <polyline
         fill="none"
         vector-effect="non-scaling-stroke"
         points="317.824,314.818 319.232,315.914 320.653,316.993 322.087,318.054 323.535,319.097 324.998,320.119 326.475,321.121 327.968,322.099 329.478,323.054 331.002,323.986 332.542,324.893 334.096,325.775 335.665,326.632 337.248,327.463 338.844,328.268 340.454,329.047 342.077,329.799 343.712,330.523 345.359,331.22 347.019,331.888 348.689,332.527 350.371,333.137 352.064,333.718 353.766,334.268 355.478,334.786 357.199,335.272 358.929,335.724 360.666,336.141 362.411,336.522 364.162,336.866 365.92,337.172 367.683,337.44 368.566,337.558 369.453,337.667 "
         id="polyline595" />
      <polyline
         fill="none"
         vector-effect="non-scaling-stroke"
         points="317.825,314.818 318.451,315.535 319.105,316.229 319.783,316.904 320.48,317.561 321.193,318.202 321.92,318.83 323.395,320.058 324.887,321.256 326.393,322.427 327.916,323.571 329.457,324.687 331.019,325.777 332.603,326.839 334.21,327.873 335.841,328.879 337.493,329.854 339.168,330.796 340.013,331.254 340.863,331.703 341.718,332.143 342.578,332.573 343.443,332.994 344.312,333.405 345.186,333.805 346.064,334.196 346.946,334.575 347.833,334.944 348.724,335.301 349.619,335.647 350.517,335.982 351.42,336.304 352.326,336.614 353.236,336.912 354.149,337.197 355.065,337.469 355.985,337.729 356.908,337.974 357.834,338.206 358.763,338.425 359.694,338.629 360.629,338.818 361.565,338.994 362.505,339.156 363.446,339.305 364.39,339.441 365.336,339.566 366.284,339.678 367.233,339.78 368.184,339.87 370.09,340.022 372.001,340.136 "
         id="polyline597" />
      <polyline
         fill="none"
         vector-effect="non-scaling-stroke"
         points="339.709,380.072 336.647,379.559 335.13,379.305 333.629,379.056 332.148,378.814 330.693,378.581 329.268,378.359 328.569,378.253 327.879,378.15 "
         id="polyline599" />
      <polyline
         fill="none"
         vector-effect="non-scaling-stroke"
         points="322.315,377.407 321.44,377.308 320.553,377.213 319.653,377.122 318.741,377.035 317.818,376.952 316.885,376.873 315.943,376.8 314.992,376.731 313.066,376.608 311.113,376.507 309.14,376.428 307.152,376.375 305.154,376.348 303.153,376.348 301.159,376.377 299.186,376.432 298.212,376.468 297.248,376.511 296.297,376.56 295.36,376.615 294.438,376.676 293.535,376.741 292.651,376.813 291.788,376.889 "
         id="polyline601" />
      <polyline
         fill="none"
         vector-effect="non-scaling-stroke"
         points="279.99,378.5 279.774,378.536 279.539,378.576 279.287,378.621 279.019,378.67 278.736,378.724 278.438,378.78 278.128,378.841 277.807,378.904 277.135,379.041 276.431,379.187 275.705,379.342 274.968,379.505 273.487,379.843 272.01,380.197 269.061,380.938 "
         id="polyline603" />
      <polyline
         fill="none"
         vector-effect="non-scaling-stroke"
         points="338.392,389.586 334.148,388.758 332.025,388.356 329.901,387.968 327.775,387.6 325.646,387.255 323.515,386.938 321.381,386.654 320.312,386.526 319.243,386.408 318.172,386.3 317.1,386.204 316.027,386.119 314.953,386.046 313.878,385.983 312.802,385.932 311.725,385.891 310.648,385.862 309.569,385.842 308.491,385.833 306.331,385.845 304.171,385.896 302.009,385.984 299.848,386.108 297.687,386.267 295.527,386.459 293.369,386.682 291.214,386.936 289.061,387.218 286.913,387.527 284.769,387.863 282.629,388.222 280.496,388.605 278.369,389.009 276.248,389.433 274.133,389.878 272.024,390.342 269.919,390.825 "
         id="polyline605" />
      <polyline
         fill="none"
         vector-effect="non-scaling-stroke"
         points="242.005,268.172 242.815,268.764 243.634,269.344 244.463,269.909 245.304,270.456 246.156,270.983 247.021,271.487 247.9,271.965 248.793,272.42 249.7,272.854 250.621,273.27 251.557,273.67 252.506,274.057 253.47,274.434 254.448,274.803 255.441,275.166 256.448,275.527 "
         id="polyline607" />
      <polyline
         fill="none"
         vector-effect="non-scaling-stroke"
         points="269.065,380.936 269.944,390.862 "
         id="polyline609" />
      <polyline
         fill="none"
         vector-effect="non-scaling-stroke"
         points="338.345,389.632 339.696,380.067 "
         id="polyline611" />
    </g>
    <g
       fill="#006042"
       fill-opacity="1"
       stroke="#006042"
       stroke-opacity="1"
       stroke-width="1"
       stroke-linecap="round"
       stroke-linejoin="bevel"
       font-family="'MS Shell Dlg 2'"
       font-size="17.75px"
       font-weight="400"
       font-style="normal"
       id="g615" />
    <g
       fill="#006042"
       fill-opacity="1"
       stroke="#006042"
       stroke-opacity="1"
       stroke-width="1"
       stroke-linecap="round"
       stroke-linejoin="bevel"
       transform="matrix(0.104938,0,0,0.104938,466.594,369.427)"
       font-family="'Calibri Light'"
       font-size="1575.32px"
       font-weight="400"
       font-style="normal"
       id="g619">
      <text
         fill="#006042"
         fill-opacity="1"
         stroke="none"
         xml:space="preserve"
         x="0"
         y="0"
         font-family="'Calibri Light'"
         font-size="1575.32px"
         font-weight="400"
         font-style="normal"
         id="text617">F</text>
    </g>
    <g
       fill="#006042"
       fill-opacity="1"
       stroke="#006042"
       stroke-opacity="1"
       stroke-width="1"
       stroke-linecap="round"
       stroke-linejoin="bevel"
       transform="matrix(0.104938,0,0,0.104938,466.594,369.427)"
       font-family="'Calibri Light'"
       font-size="1575.32px"
       font-weight="400"
       font-style="normal"
       id="g623">
      <text
         fill="#006042"
         fill-opacity="1"
         stroke="none"
         xml:space="preserve"
         x="727.172"
         y="0"
         font-family="'Calibri Light'"
         font-size="1575.32px"
         font-weight="400"
         font-style="normal"
         id="text621">A</text>
    </g>
    <g
       fill="#006042"
       fill-opacity="1"
       stroke="#006042"
       stroke-opacity="1"
       stroke-width="1"
       stroke-linecap="round"
       stroke-linejoin="bevel"
       transform="matrix(0.104938,0,0,0.104938,466.594,369.427)"
       font-family="'Calibri Light'"
       font-size="1575.32px"
       font-weight="400"
       font-style="normal"
       id="g627">
      <text
         fill="#006042"
         fill-opacity="1"
         stroke="none"
         xml:space="preserve"
         x="1618.0601"
         y="0"
         font-family="'Calibri Light'"
         font-size="1575.32px"
         font-weight="400"
         font-style="normal"
         id="text625">R</text>
    </g>
    <g
       fill="#006042"
       fill-opacity="1"
       stroke="#006042"
       stroke-opacity="1"
       stroke-width="1"
       stroke-linecap="round"
       stroke-linejoin="bevel"
       transform="matrix(0.104938,0,0,0.104938,466.594,369.427)"
       font-family="'Calibri Light'"
       font-size="1575.32px"
       font-weight="400"
       font-style="normal"
       id="g631">
      <text
         fill="#006042"
         fill-opacity="1"
         stroke="none"
         xml:space="preserve"
         x="2459.75"
         y="0"
         font-family="'Calibri Light'"
         font-size="1575.32px"
         font-weight="400"
         font-style="normal"
         id="text629">M</text>
    </g>
    <g
       fill="#006042"
       fill-opacity="1"
       stroke="#006042"
       stroke-opacity="1"
       stroke-width="1"
       stroke-linecap="round"
       stroke-linejoin="bevel"
       transform="matrix(0.104938,0,0,0.104938,466.594,369.427)"
       font-family="'Calibri Light'"
       font-size="1575.32px"
       font-weight="400"
       font-style="normal"
       id="g635">
      <text
         fill="#006042"
         fill-opacity="1"
         stroke="none"
         xml:space="preserve"
         x="3795.5801"
         y="0"
         font-family="'Calibri Light'"
         font-size="1575.32px"
         font-weight="400"
         font-style="normal"
         id="text633">Á</text>
    </g>
    <g
       fill="#006042"
       fill-opacity="1"
       stroke="#006042"
       stroke-opacity="1"
       stroke-width="1"
       stroke-linecap="round"
       stroke-linejoin="bevel"
       transform="matrix(0.104938,0,0,0.104938,466.594,369.427)"
       font-family="'Calibri Light'"
       font-size="1575.32px"
       font-weight="400"
       font-style="normal"
       id="g639">
      <text
         fill="#006042"
         fill-opacity="1"
         stroke="none"
         xml:space="preserve"
         x="4686.48"
         y="0"
         font-family="'Calibri Light'"
         font-size="1575.32px"
         font-weight="400"
         font-style="normal"
         id="text637">C</text>
    </g>
    <g
       fill="#006042"
       fill-opacity="1"
       stroke="#006042"
       stroke-opacity="1"
       stroke-width="1"
       stroke-linecap="round"
       stroke-linejoin="bevel"
       transform="matrix(0.104938,0,0,0.104938,466.594,369.427)"
       font-family="'Calibri Light'"
       font-size="1575.32px"
       font-weight="400"
       font-style="normal"
       id="g643">
      <text
         fill="#006042"
         fill-opacity="1"
         stroke="none"
         xml:space="preserve"
         x="5533.1899"
         y="0"
         font-family="'Calibri Light'"
         font-size="1575.32px"
         font-weight="400"
         font-style="normal"
         id="text641">I</text>
    </g>
    <g
       fill="#006042"
       fill-opacity="1"
       stroke="#006042"
       stroke-opacity="1"
       stroke-width="1"
       stroke-linecap="round"
       stroke-linejoin="bevel"
       transform="matrix(0.104938,0,0,0.104938,466.594,369.427)"
       font-family="'Calibri Light'"
       font-size="1575.32px"
       font-weight="400"
       font-style="normal"
       id="g647">
      <text
         fill="#006042"
         fill-opacity="1"
         stroke="none"
         xml:space="preserve"
         x="5919.8799"
         y="0"
         font-family="'Calibri Light'"
         font-size="1575.32px"
         font-weight="400"
         font-style="normal"
         id="text645">A</text>
    </g>
    <g
       fill="#006042"
       fill-opacity="1"
       stroke="#006042"
       stroke-opacity="1"
       stroke-width="1"
       stroke-linecap="round"
       stroke-linejoin="bevel"
       transform="matrix(0.104938,0,0,0.104938,466.594,369.427)"
       font-family="'Calibri Light'"
       font-size="1575.32px"
       font-weight="400"
       font-style="normal"
       id="g651">
      <text
         fill="#006042"
         fill-opacity="1"
         stroke="none"
         xml:space="preserve"
         x="6810.77"
         y="0"
         font-family="'Calibri Light'"
         font-size="1575.32px"
         font-weight="400"
         font-style="normal"
         id="text649"> </text>
    </g>
    <g
       fill="#006042"
       fill-opacity="1"
       stroke="#006042"
       stroke-opacity="1"
       stroke-width="1"
       stroke-linecap="round"
       stroke-linejoin="bevel"
       transform="matrix(0.104938,0,0,0.104938,466.594,369.427)"
       font-family="'Calibri Light'"
       font-size="1575.32px"
       font-weight="400"
       font-style="normal"
       id="g655">
      <text
         fill="#006042"
         fill-opacity="1"
         stroke="none"
         xml:space="preserve"
         x="7168.3301"
         y="0"
         font-family="'Calibri Light'"
         font-size="1575.32px"
         font-weight="400"
         font-style="normal"
         id="text653">P</text>
    </g>
    <g
       fill="#006042"
       fill-opacity="1"
       stroke="#006042"
       stroke-opacity="1"
       stroke-width="1"
       stroke-linecap="round"
       stroke-linejoin="bevel"
       transform="matrix(0.104938,0,0,0.104938,466.594,369.427)"
       font-family="'Calibri Light'"
       font-size="1575.32px"
       font-weight="400"
       font-style="normal"
       id="g659">
      <text
         fill="#006042"
         fill-opacity="1"
         stroke="none"
         xml:space="preserve"
         x="7971.8398"
         y="0"
         font-family="'Calibri Light'"
         font-size="1575.32px"
         font-weight="400"
         font-style="normal"
         id="text657">I</text>
    </g>
    <g
       fill="#006042"
       fill-opacity="1"
       stroke="#006042"
       stroke-opacity="1"
       stroke-width="1"
       stroke-linecap="round"
       stroke-linejoin="bevel"
       transform="matrix(0.104938,0,0,0.104938,466.594,369.427)"
       font-family="'Calibri Light'"
       font-size="1575.32px"
       font-weight="400"
       font-style="normal"
       id="g663">
      <text
         fill="#006042"
         fill-opacity="1"
         stroke="none"
         xml:space="preserve"
         x="8358.5303"
         y="0"
         font-family="'Calibri Light'"
         font-size="1575.32px"
         font-weight="400"
         font-style="normal"
         id="text661">S</text>
    </g>
    <g
       fill="#006042"
       fill-opacity="1"
       stroke="#006042"
       stroke-opacity="1"
       stroke-width="1"
       stroke-linecap="round"
       stroke-linejoin="bevel"
       transform="matrix(0.104938,0,0,0.104938,466.594,369.427)"
       font-family="'Calibri Light'"
       font-size="1575.32px"
       font-weight="400"
       font-style="normal"
       id="g667">
      <text
         fill="#006042"
         fill-opacity="1"
         stroke="none"
         xml:space="preserve"
         x="9074.6602"
         y="0"
         font-family="'Calibri Light'"
         font-size="1575.32px"
         font-weight="400"
         font-style="normal"
         id="text665">C</text>
    </g>
    <g
       fill="#006042"
       fill-opacity="1"
       stroke="#006042"
       stroke-opacity="1"
       stroke-width="1"
       stroke-linecap="round"
       stroke-linejoin="bevel"
       transform="matrix(0.104938,0,0,0.104938,466.594,369.427)"
       font-family="'Calibri Light'"
       font-size="1575.32px"
       font-weight="400"
       font-style="normal"
       id="g671">
      <text
         fill="#006042"
         fill-opacity="1"
         stroke="none"
         xml:space="preserve"
         x="9921.3604"
         y="0"
         font-family="'Calibri Light'"
         font-size="1575.32px"
         font-weight="400"
         font-style="normal"
         id="text669">O</text>
    </g>
    <g
       fill="#006042"
       fill-opacity="1"
       stroke="#006042"
       stroke-opacity="1"
       stroke-width="1"
       stroke-linecap="round"
       stroke-linejoin="bevel"
       font-family="'MS Shell Dlg 2'"
       font-size="17.75px"
       font-weight="400"
       font-style="normal"
       id="g673" />
    <g
       fill="#006042"
       fill-opacity="1"
       stroke="#006042"
       stroke-opacity="1"
       stroke-width="1"
       stroke-linecap="square"
       stroke-linejoin="bevel"
       font-family="'MS Shell Dlg 2'"
       font-size="17.75px"
       font-weight="400"
       font-style="normal"
       id="g717">
      <polyline
         fill="none"
         vector-effect="non-scaling-stroke"
         points="363.469,442.176 262.187,442.176 "
         id="polyline675" />
      <polyline
         fill="none"
         vector-effect="non-scaling-stroke"
         points="262.187,442.176 261.551,442.157 260.917,442.099 260.287,442.003 259.665,441.87 259.052,441.699 258.45,441.491 257.862,441.247 257.289,440.969 256.735,440.656 256.2,440.31 255.687,439.933 255.198,439.525 254.734,439.089 254.298,438.625 253.89,438.136 253.513,437.623 253.167,437.089 252.855,436.534 252.576,435.962 252.332,435.373 252.125,434.772 251.954,434.158 251.82,433.536 251.724,432.906 251.667,432.272 251.647,431.636 "
         id="polyline677" />
      <polyline
         fill="none"
         vector-effect="non-scaling-stroke"
         points="251.647,431.636 251.647,378.875 198.886,378.875 "
         id="polyline679" />
      <polyline
         fill="none"
         vector-effect="non-scaling-stroke"
         points="198.886,378.875 198.25,378.855 197.616,378.798 196.986,378.702 196.364,378.568 195.75,378.397 195.149,378.19 194.56,377.946 193.988,377.667 193.433,377.355 192.899,377.009 192.386,376.632 191.897,376.224 191.433,375.788 190.997,375.324 190.589,374.835 190.212,374.322 189.866,373.787 189.553,373.233 189.275,372.66 189.031,372.072 188.823,371.47 188.652,370.857 188.519,370.235 188.423,369.605 188.365,368.971 188.346,368.335 "
         id="polyline681" />
      <polyline
         fill="none"
         vector-effect="non-scaling-stroke"
         points="188.346,368.335 188.346,267.053 "
         id="polyline683" />
      <polyline
         fill="none"
         vector-effect="non-scaling-stroke"
         points="188.346,267.053 188.365,266.416 188.423,265.782 188.519,265.153 188.652,264.53 188.823,263.917 189.031,263.315 189.275,262.727 189.553,262.155 189.866,261.6 190.212,261.065 190.589,260.553 190.997,260.064 191.433,259.6 191.897,259.164 192.386,258.756 192.899,258.379 193.433,258.033 193.988,257.72 194.56,257.441 195.149,257.198 195.75,256.99 196.364,256.819 196.986,256.685 197.616,256.59 198.25,256.532 198.886,256.513 "
         id="polyline685" />
      <polyline
         fill="none"
         vector-effect="non-scaling-stroke"
         points="198.886,256.513 251.647,256.513 251.647,203.752 "
         id="polyline687" />
      <polyline
         fill="none"
         vector-effect="non-scaling-stroke"
         points="251.647,203.752 251.667,203.115 251.724,202.481 251.82,201.852 251.954,201.229 252.125,200.616 252.332,200.014 252.576,199.426 252.855,198.853 253.167,198.299 253.513,197.764 253.89,197.251 254.298,196.762 254.734,196.299 255.198,195.862 255.687,195.455 256.2,195.077 256.735,194.732 257.289,194.419 257.862,194.14 258.45,193.897 259.052,193.689 259.665,193.518 260.287,193.384 260.917,193.288 261.551,193.231 262.187,193.212 "
         id="polyline689" />
      <polyline
         fill="none"
         vector-effect="non-scaling-stroke"
         points="262.187,193.212 363.469,193.212 "
         id="polyline691" />
      <polyline
         fill="none"
         vector-effect="non-scaling-stroke"
         points="363.469,193.212 364.106,193.231 364.74,193.288 365.369,193.384 365.992,193.518 366.605,193.689 367.207,193.897 367.795,194.14 368.367,194.419 368.922,194.732 369.457,195.077 369.969,195.455 370.458,195.862 370.922,196.299 371.358,196.762 371.766,197.251 372.143,197.764 372.489,198.299 372.802,198.853 373.081,199.426 373.324,200.014 373.532,200.616 373.703,201.229 373.836,201.852 373.932,202.481 373.99,203.115 374.009,203.752 "
         id="polyline693" />
      <polyline
         fill="none"
         vector-effect="non-scaling-stroke"
         points="374.009,203.752 374.009,256.513 426.77,256.513 "
         id="polyline695" />
      <polyline
         fill="none"
         vector-effect="non-scaling-stroke"
         points="426.77,256.513 427.407,256.532 428.041,256.59 428.67,256.685 429.293,256.819 429.906,256.99 430.508,257.198 431.096,257.441 431.669,257.72 432.223,258.033 432.758,258.379 433.271,258.756 433.76,259.164 434.223,259.6 434.66,260.064 435.067,260.553 435.445,261.065 435.79,261.6 436.103,262.155 436.382,262.727 436.625,263.315 436.833,263.917 437.004,264.53 437.138,265.153 437.233,265.782 437.291,266.416 437.31,267.053 "
         id="polyline697" />
      <polyline
         fill="none"
         vector-effect="non-scaling-stroke"
         points="437.31,267.053 437.31,368.335 "
         id="polyline699" />
      <polyline
         fill="none"
         vector-effect="non-scaling-stroke"
         points="437.31,368.335 437.291,368.971 437.233,369.605 437.138,370.235 437.004,370.857 436.833,371.47 436.625,372.072 436.382,372.66 436.103,373.233 435.79,373.787 435.445,374.322 435.067,374.835 434.66,375.324 434.223,375.788 433.76,376.224 433.271,376.632 432.758,377.009 432.223,377.355 431.669,377.667 431.096,377.946 430.508,378.19 429.906,378.397 429.293,378.568 428.67,378.702 428.041,378.798 427.407,378.855 426.77,378.875 "
         id="polyline701" />
      <polyline
         fill="none"
         vector-effect="non-scaling-stroke"
         points="426.77,378.875 374.009,378.875 374.009,431.636 "
         id="polyline703" />
      <polyline
         fill="none"
         vector-effect="non-scaling-stroke"
         points="374.009,431.636 373.99,432.272 373.932,432.906 373.836,433.536 373.703,434.158 373.532,434.772 373.324,435.373 373.081,435.962 372.802,436.534 372.489,437.089 372.143,437.623 371.766,438.136 371.358,438.625 370.922,439.089 370.458,439.525 369.969,439.933 369.457,440.31 368.922,440.656 368.367,440.969 367.795,441.247 367.207,441.491 366.605,441.699 365.992,441.87 365.369,442.003 364.74,442.099 364.106,442.157 363.469,442.176 "
         id="polyline705" />
      <polyline
         fill="none"
         vector-effect="non-scaling-stroke"
         points="340.398,354.733 339.61,356.201 338.799,357.656 337.971,359.103 337.132,360.543 335.452,363.423 334.624,364.869 333.814,366.324 333.027,367.792 332.265,369.273 331.522,370.764 330.792,372.263 329.348,375.267 328.621,376.767 327.883,378.261 "
         id="polyline707" />
      <polyline
         fill="none"
         vector-effect="non-scaling-stroke"
         points="331.964,359.49 331.378,360.623 330.801,361.761 329.66,364.044 328.514,366.324 327.931,367.459 327.337,368.587 326.729,369.709 326.107,370.822 325.474,371.929 324.83,373.031 323.523,375.223 322.202,377.407 "
         id="polyline709" />
      <polyline
         fill="none"
         vector-effect="non-scaling-stroke"
         points="291.81,376.889 292.987,376.015 294.183,375.162 295.394,374.326 296.616,373.501 301.537,370.24 303.987,368.596 305.205,367.763 306.416,366.921 307.618,366.068 308.81,365.201 309.991,364.319 311.159,363.419 "
         id="polyline711" />
      <polyline
         fill="none"
         vector-effect="non-scaling-stroke"
         points="304.275,362.106 301.275,364.258 298.256,366.384 295.221,368.487 292.172,370.572 289.11,372.637 287.57,373.658 286.025,374.668 284.471,375.667 282.909,376.651 281.338,377.62 279.756,378.571 "
         id="polyline713" />
      <polyline
         fill="none"
         vector-effect="non-scaling-stroke"
         points="242,268.197 242.985,267.91 243.979,267.652 244.98,267.421 245.987,267.214 246.997,267.03 248.011,266.865 249.027,266.717 250.045,266.584 252.084,266.349 254.126,266.138 256.17,265.942 257.193,265.858 258.217,265.791 "
         id="polyline715" />
    </g>
    <g
       fill="none"
       stroke="none"
       stroke-opacity="1"
       stroke-width="1"
       stroke-linecap="square"
       stroke-linejoin="bevel"
       font-family="'MS Shell Dlg 2'"
       font-size="17.75px"
       font-weight="400"
       font-style="normal"
       id="g719" />
  </g>
  <metadata
     id="metadata844">
    <rdf:RDF>
      <cc:Work
         rdf:about="">
        <dc:title>Qt SVG Document</dc:title>
      </cc:Work>
    </rdf:RDF>
  </metadata>
</svg>
