<?xml version="1.0" encoding="UTF-8" standalone="no"?>
<svg
   width="134.59909mm"
   height="95.409416mm"
   viewBox="0 0 752.48244 533.3916"
   version="1.2"
   id="svg106"
   sodipodi:docname="logo-linha-primary.svg"
   inkscape:version="1.2 (dc2aedaf03, 2022-05-15)"
   xmlns:inkscape="http://www.inkscape.org/namespaces/inkscape"
   xmlns:sodipodi="http://sodipodi.sourceforge.net/DTD/sodipodi-0.dtd"
   xmlns="http://www.w3.org/2000/svg"
   xmlns:svg="http://www.w3.org/2000/svg"
   xmlns:rdf="http://www.w3.org/1999/02/22-rdf-syntax-ns#"
   xmlns:cc="http://creativecommons.org/ns#"
   xmlns:dc="http://purl.org/dc/elements/1.1/">
  <sodipodi:namedview
     id="namedview108"
     pagecolor="#ffffff"
     bordercolor="#000000"
     borderopacity="0.25"
     inkscape:showpageshadow="2"
     inkscape:pageopacity="0.0"
     inkscape:pagecheckerboard="true"
     inkscape:deskcolor="#d1d1d1"
     inkscape:document-units="mm"
     showgrid="false"
     inkscape:zoom="1.2895084"
     inkscape:cx="187.28067"
     inkscape:cy="182.62773"
     inkscape:window-width="1920"
     inkscape:window-height="1001"
     inkscape:window-x="-9"
     inkscape:window-y="-9"
     inkscape:window-maximized="1"
     inkscape:current-layer="svg106" />
  <title
     id="title2">Qt SVG Document</title>
  <desc
     id="desc4">Generated with Qt</desc>
  <defs
     id="defs6">
    <clipPath
       clipPathUnits="userSpaceOnUse"
       id="clipPath393">
      <rect
         style="fill:none;stroke:#0000d2;stroke-width:1.48149"
         id="rect395"
         width="752.48364"
         height="533.3916"
         x="656.12756"
         y="61.942253" />
    </clipPath>
  </defs>
  <g
     fill="none"
     stroke="#000000"
     stroke-width="1"
     fill-rule="evenodd"
     stroke-linecap="square"
     stroke-linejoin="bevel"
     id="g104"
     clip-path="url(#clipPath393)"
     transform="translate(-656.12907,-61.942253)">
    <g
       fill="none"
       fill-opacity="1"
       stroke="none"
       font-family="'MS Shell Dlg 2'"
       font-size="17.75px"
       font-weight="400"
       font-style="normal"
       id="g10">
      <rect
         x="0"
         y="0"
         width="1864"
         height="662"
         id="rect8" />
    </g>
    <g
       fill="none"
       stroke="none"
       stroke-opacity="1"
       stroke-width="1"
       stroke-linecap="square"
       stroke-linejoin="bevel"
       font-family="'MS Shell Dlg 2'"
       font-size="17.75px"
       font-weight="400"
       font-style="normal"
       id="g12" />
    <g
       fill="none"
       fill-opacity="0"
       stroke="none"
       stroke-opacity="0"
       stroke-width="1"
       stroke-linecap="butt"
       stroke-linejoin="miter"
       stroke-miterlimit="2"
       font-family="'MS Shell Dlg 2'"
       font-size="17.75px"
       font-weight="400"
       font-style="normal"
       id="g14" />
    <g
       fill="none"
       fill-opacity="0"
       stroke="none"
       stroke-opacity="0"
       stroke-width="1"
       stroke-linecap="butt"
       stroke-linejoin="miter"
       stroke-miterlimit="2"
       font-family="'MS Shell Dlg 2'"
       font-size="17.75px"
       font-weight="400"
       font-style="normal"
       id="g16" />
    <g
       fill="#009b50"
       fill-opacity="1"
       stroke="#009b50"
       stroke-opacity="1"
       stroke-width="2"
       stroke-linecap="square"
       stroke-linejoin="bevel"
       font-family="'MS Shell Dlg 2'"
       font-size="17.75px"
       font-weight="400"
       font-style="normal"
       id="g18" />
    <g
       fill="#009b50"
       fill-opacity="1"
       stroke="#009b50"
       stroke-opacity="1"
       stroke-width="1"
       stroke-linecap="butt"
       stroke-linejoin="miter"
       stroke-miterlimit="2"
       font-family="'MS Shell Dlg 2'"
       font-size="17.75px"
       font-weight="400"
       font-style="normal"
       id="g22">
      <path
         vector-effect="non-scaling-stroke"
         fill-rule="evenodd"
         d="m 1194.68,386.55 -1.83,-0.22 -1.83,-0.23 -1.83,-0.24 -1.82,-0.251 -1.83,-0.261 -1.82,-0.272 -1.83,-0.281 -1.82,-0.292 -1.82,-0.302 -1.82,-0.312 -1.82,-0.322 -1.82,-0.331 -3.62,-0.693 -3.62,-0.732 -3.62,-0.77 -3.61,-0.808 -3.6,-0.844 -3.59,-0.882 -3.58,-0.917 -3.58,-0.953 -3.56,-0.988 -3.56,-1.022 -3.55,-1.056 -3.54,-1.089 -3.53,-1.123 -3.51,-1.154 -3.51,-1.186 -3.5,-1.217 -3.49,-1.248 -3.47,-1.278 -3.46,-1.309 -3.46,-1.338 -3.44,-1.368 -3.42,-1.398 -3.42,-1.427 -3.4,-1.456 -3.39,-1.485 -3.38,-1.513 -3.37,-1.542 -3.35,-1.569 -3.34,-1.598 -3.32,-1.625 -3.31,-1.653 -3.3,-1.68 -3.28,-1.708 -3.27,-1.733 -3.26,-1.761 -3.23,-1.786 -3.23,-1.813 -3.21,-1.839 -3.19,-1.864 -3.18,-1.89 -3.17,-1.915 -3.14,-1.94 -3.13,-1.965 -3.12,-1.989 -3.1,-2.013 -3.08,-2.038 -3.07,-2.06 -3.05,-2.084 -3.03,-2.105 -3.02,-2.127 -3,-2.148 -2.993,-2.168 -2.975,-2.187 -2.96,-2.207 -2.947,-2.225 -2.934,-2.242 -2.92,-2.259 -2.907,-2.276 1.282,1.496 1.312,1.472 1.34,1.448 1.367,1.427 1.39,1.405 1.413,1.386 1.434,1.368 1.453,1.351 1.469,1.335 1.484,1.32 1.498,1.307 1.508,1.294 1.518,1.284 1.528,1.274 3.06,2.523 3.08,2.494 3.09,2.466 3.11,2.438 3.13,2.409 3.14,2.381 3.16,2.353 3.18,2.325 3.2,2.296 3.22,2.268 3.25,2.24 3.26,2.212 3.29,2.184 3.32,2.156 3.34,2.126 3.36,2.097 3.39,2.066 3.41,2.034 1.71,1.005 1.72,0.996 1.72,0.988 1.73,0.979 1.74,0.971 1.74,0.961 1.74,0.953 1.76,0.944 1.75,0.934 1.76,0.924 1.77,0.916 1.77,0.905 1.78,0.896 1.78,0.886 1.79,0.876 1.79,0.866 1.8,0.855 1.8,0.845 1.81,0.835 1.81,0.824 1.81,0.813 1.82,0.802 1.83,0.791 1.82,0.78 1.84,0.768 1.83,0.758 1.85,0.745 1.84,0.734 1.85,0.722 1.86,0.71 1.85,0.698 1.87,0.686 1.86,0.673 1.87,0.661 1.87,0.649 1.88,0.636 1.88,0.623 1.89,0.609 1.89,0.597 1.89,0.584 1.89,0.57 1.9,0.557 1.9,0.543 1.91,0.529 1.91,0.516 1.91,0.501 1.91,0.488 1.92,0.473 1.92,0.459 1.92,0.444 1.93,0.43 1.93,0.414 1.93,0.4 1.94,0.386 1.94,0.37 1.94,0.357 1.94,0.342 1.94,0.329 1.95,0.315 1.95,0.301 1.95,0.289 1.96,0.276 1.95,0.263 1.96,0.251 1.96,0.239 1.96,0.227 1.97,0.216 1.96,0.204 1.97,0.193 1.96,0.183 1.97,0.172 1.97,0.161 3.95,0.294 3.95,0.255 3.95,0.218 1.29,1.158 1.31,1.146 1.31,1.134 1.33,1.123 1.33,1.112 1.34,1.101 1.35,1.09 1.36,1.08 1.37,1.07 1.37,1.059 1.39,1.049 1.39,1.04 1.4,1.03 1.4,1.02 1.42,1.011 1.42,1.003 1.43,0.993 1.43,0.985 1.45,0.976 1.45,0.968 1.45,0.959 1.47,0.952 2.94,1.88 2.97,1.851 2.99,1.823 3.02,1.796 3.03,1.77 3.06,1.747 3.07,1.725 3.09,1.704 3.11,1.685 3.12,1.667 3.14,1.65 3.15,1.636 3.16,1.622 3.17,1.61 3.18,1.6 3.19,1.591 3.19,1.583 6.41,3.15 6.43,3.138 6.43,3.136 6.42,3.148 6.41,3.171 3.2,1.598 3.19,1.608 3.19,1.619 3.17,1.633 3.17,1.647 3.15,1.663 3.14,1.681 3.13,1.699 3.12,1.72 3.09,1.742 3.08,1.766 3.07,1.79 3.04,1.816 3.02,1.845 3,1.873 2.98,1.905 1.48,0.964 1.47,0.972 1.47,0.981 1.46,0.99 1.46,0.997 1.45,1.006 2.88,2.035 2.86,2.065 2.84,2.094 2.81,2.121 2.8,2.147 2.77,2.172 2.76,2.195 -1.53,-0.13 -1.54,-0.121 -1.53,-0.11 -1.54,-0.099 -1.54,-0.089 -1.54,-0.077 -1.55,-0.065 -1.55,-0.053 -1.54,-0.04 -1.55,-0.027 -1.56,-0.015 h -1.55 l -1.56,0.014 -1.56,0.028 -1.56,0.043 -1.56,0.058 -1.57,0.074 -1.57,0.09 -1.57,0.106 -1.58,0.123 -1.58,0.139 -1.58,0.153 -3.16,0.338 -6.33,0.716 -3.15,0.333 -1.56,0.149 -1.57,0.135 -1.55,0.117 -1.55,0.096 -1.55,0.072 -1.53,0.046 -1.53,0.016 -1.51,-0.016 -1.51,-0.051 -0.75,-0.04 -0.75,-0.049 -0.74,-0.06 -0.74,-0.071 -0.74,-0.082 -0.73,-0.092 -0.74,-0.105 -0.72,-0.117 -0.73,-0.129 -0.72,-0.142 -0.72,-0.155 -0.71,-0.169 -0.71,-0.182 -0.71,-0.194 -0.7,-0.207 -0.7,-0.22 -0.69,-0.232 -0.7,-0.243 -0.69,-0.256 -0.68,-0.267 -0.69,-0.278 -0.68,-0.289 -0.67,-0.3 -0.68,-0.31 -0.67,-0.321 -0.67,-0.331 -1.33,-0.69 -1.32,-0.728 -1.31,-0.764 -1.3,-0.797 -1.29,-0.828 -1.29,-0.859 -1.28,-0.886 -1.27,-0.912 -1.26,-0.937 -1.26,-0.958 -1.25,-0.979 -1.25,-0.997 -1.24,-1.014 -1.24,-1.028 -1.24,-1.042 -1.23,-1.052 -2.46,-2.128 -2.46,-2.15 -2.46,-2.155 -2.46,-2.145 -2.47,-2.125 -2.47,-2.101 -2.49,-2.076 -2.49,-2.048 -2.51,-2.019 -2.51,-1.987 -2.53,-1.953 -2.53,-1.918 -1.28,-0.944 -1.27,-0.935 -1.28,-0.925 -1.29,-0.914 -1.28,-0.904 -1.29,-0.894 -1.29,-0.882 -1.3,-0.871 -1.3,-0.859 -1.31,-0.847 -1.31,-0.836 -1.31,-0.822 -1.31,-0.811 -1.33,-0.797 -1.32,-0.784 -1.33,-0.771 -1.33,-0.758 -1.34,-0.743 -1.34,-0.729 -1.35,-0.715 -1.35,-0.7 -1.36,-0.685 -1.36,-0.669 -1.36,-0.655 -1.37,-0.638 -1.38,-0.623 -1.38,-0.606 -1.39,-0.589 -1.39,-0.573 -1.4,-0.556 -1.4,-0.539 -1.4,-0.521 -1.42,-0.503 -1.42,-0.485 -1.42,-0.466 -1.43,-0.448 -1.44,-0.43 -1.44,-0.409 -1.45,-0.391 -1.45,-0.371 -1.46,-0.352 -1.47,-0.334 -1.47,-0.315 -1.48,-0.297 -1.48,-0.279 -1.49,-0.262 -1.49,-0.245 -1.5,-0.227 -1.5,-0.212 -1.51,-0.195 -1.51,-0.179 -1.51,-0.164 -1.52,-0.148 -1.53,-0.134 -1.52,-0.119 -1.53,-0.105 -1.54,-0.091 -1.54,-0.077 -1.54,-0.064 -1.54,-0.051 -1.55,-0.039 -1.55,-0.026 -1.55,-0.014 -1.56,-0.002 -1.55,0.009 -1.56,0.02 -1.57,0.031 -1.56,0.041 -3.13,0.112 -3.14,0.151 -3.15,0.185 -3.14,0.218 -3.15,0.248 -3.16,0.276 -3.15,0.301 -3.15,0.323 -3.15,0.344 -3.14,0.36 -3.15,0.376 -3.13,0.387 -3.13,0.4 -3.12,0.414 -3.12,0.433 -3.1,0.454 -3.09,0.479 -3.08,0.507 -3.07,0.539 -3.05,0.573 -1.52,0.3 -1.51,0.311 -1.52,0.321 -1.5,0.331 -1.51,0.343 -1.5,0.354 -1.49,0.366 -1.49,0.378 -1.48,0.391 -1.48,0.404 -1.47,0.418 -1.47,0.432 -1.47,0.446 -1.45,0.461 -1.45,0.477 -1.45,0.491 -1.44,0.508 -1.43,0.525 -1.43,0.541 -1.42,0.558 -1.41,0.576 -1.41,0.594 -1.4,0.613 -1.39,0.631 -1.39,0.648 -1.38,0.664 -1.37,0.68 -1.37,0.694 -1.37,0.707 -1.36,0.719 -1.35,0.73 -1.35,0.741 -2.7,1.508 -2.68,1.538 -2.68,1.558 -2.67,1.571 -5.35,3.15 -2.67,1.563 -2.69,1.544 -2.7,1.517 -1.35,0.745 -1.36,0.737 -1.36,0.725 -1.37,0.714 -1.37,0.701 -1.38,0.688 -1.38,0.672 -1.39,0.657 -1.4,0.641 -1.4,0.623 -1.41,0.604 -1.42,0.585 -1.43,0.566 -1.43,0.548 -1.44,0.529 -1.44,0.51 -1.46,0.493 -1.46,0.474 -1.46,0.455 -1.47,0.438 -1.48,0.42 -1.49,0.402 -1.49,0.384 -1.49,0.367 -1.5,0.349 -1.51,0.332 -1.51,0.315 -1.518,0.298 -1.522,0.28 -1.526,0.264 -1.531,0.247 -1.536,0.23 -1.54,0.213 -1.544,0.198 -1.548,0.18 -1.552,0.165 -1.556,0.148 -1.559,0.133 -1.563,0.116 -1.566,0.101 -1.569,0.085 -1.573,0.07 -1.575,0.054 -1.578,0.039 -1.58,0.023 -1.583,0.009 -1.585,-0.007 -1.587,-0.021 -1.589,-0.036 -1.591,-0.051 -1.592,-0.066 -1.595,-0.079 -1.595,-0.094 -1.597,-0.109 -1.598,-0.122 -1.598,-0.137 -1.6,-0.15 -1.6,-0.164 -1.601,-0.178 -1.601,-0.191 -1.601,-0.205 -1.601,-0.217 -1.601,-0.232 -1.601,-0.244 -1.601,-0.257 -1.6,-0.27 -1.599,-0.283 -1.599,-0.295 -1.597,-0.308 -1.596,-0.321 -1.595,-0.332 -1.594,-0.345 -1.592,-0.357 -1.59,-0.369 -1.589,-0.38 -1.586,-0.393 -1.585,-0.404 -1.582,-0.415 -1.579,-0.427 -1.577,-0.439 -1.574,-0.449 -1.571,-0.46 -1.569,-0.472 -1.565,-0.482 -1.561,-0.493 -1.558,-0.504 -1.555,-0.514 -1.551,-0.524 -1.546,-0.535 -1.543,-0.545 -1.539,-0.555 -1.534,-0.564 -1.529,-0.575 -1.525,-0.584 -1.52,-0.594 -1.516,-0.604 -1.51,-0.613 -1.504,-0.622 -1.5,-0.631 -1.493,-0.64 -1.489,-0.649 -1.482,-0.658 -1.476,-0.667 -1.47,-0.675 -1.464,-0.684 -1.457,-0.692 -1.451,-0.7 -1.444,-0.709 -1.437,-0.716 -1.43,-0.725 -1.423,-0.732 -1.416,-0.74 -1.408,-0.747 -1.4,-0.755 -1.393,-0.762 -1.385,-0.77 -1.376,-0.776 -1.369,-0.784 -1.36,-0.79 -1.352,-0.798 -1.343,-0.804 -1.336,-0.811 -1.327,-0.818 -1.32,-0.825 -1.311,-0.832 -1.305,-0.838 -1.296,-0.846 -1.289,-0.852 -2.557,-1.726 -2.528,-1.754 -2.5,-1.781 -2.475,-1.81 -2.448,-1.837 -2.425,-1.866 -2.4,-1.894 -2.378,-1.922 -2.356,-1.95 -2.336,-1.979 -2.316,-2.007 -2.296,-2.036 -2.279,-2.065 -2.262,-2.093 -2.245,-2.122 -2.23,-2.151 -2.217,-2.18 -2.202,-2.209 -2.191,-2.238 -2.179,-2.268 -2.169,-2.296 -2.159,-2.326 -2.15,-2.355 -2.142,-2.385 -2.13,-2.412 -2.116,-2.441 -2.101,-2.467 -2.082,-2.494 -2.06,-2.519 -2.038,-2.544 -2.012,-2.568 -1.984,-2.591 -1.953,-2.613 -0.964,-1.315 -0.956,-1.32 -0.947,-1.325 -0.938,-1.331 -0.929,-1.335 -0.918,-1.341 -0.909,-1.345 -0.898,-1.35 -0.888,-1.355 -0.877,-1.359 -0.865,-1.364 -0.854,-1.368 -0.842,-1.373 -0.83,-1.376 -0.817,-1.381 -0.805,-1.385 -0.792,-1.389 -0.778,-1.392 -0.765,-1.397 -0.75,-1.4 -0.737,-1.403 -0.722,-1.407 -0.707,-1.41 -0.691,-1.414 -0.677,-1.416 -0.66,-1.42 -0.645,-1.423 -0.628,-1.425 -0.611,-1.429 -0.595,-1.431 -0.577,-1.433 -0.56,-1.437 -0.541,-1.438 -0.524,-1.441 -0.505,-1.443 -0.487,-1.445 -0.467,-1.448 -0.448,-1.449 -0.428,-1.451 -0.408,-1.453 -0.388,-1.454 -0.367,-1.456 -0.347,-1.458 -0.325,-1.459 -0.304,-1.46 -0.282,-1.461 -0.26,-1.463 -0.237,-1.463 -0.215,-1.465 -0.192,-1.465 -0.169,-1.466 -0.145,-1.466 -0.121,-1.468 -0.096,-1.467 -0.073,-1.468 -0.047,-1.468 -0.024,-1.468 10e-4,-1.469 0.023,-1.47 0.045,-1.469 0.068,-1.471 0.088,-1.471 0.108,-1.472 0.128,-1.473 0.147,-1.474 0.165,-1.475 0.182,-1.477 0.199,-1.477 0.216,-1.479 0.231,-1.48 0.245,-1.482 0.26,-1.484 0.273,-1.485 0.286,-1.487 0.297,-1.489 0.309,-1.491 0.32,-1.493 0.33,-1.495 0.686,-2.997 0.719,-3.007 0.744,-3.017 0.765,-3.029 0.78,-3.04 0.79,-3.052 0.795,-3.066 0.793,-3.08 0.786,-3.095 0.775,-3.109 0.756,-3.126 0.734,-3.143 0.705,-3.16 0.34,-1.587 0.331,-1.592 0.321,-1.596 0.31,-1.601 0.299,-1.606 0.287,-1.61 0.274,-1.614 0.261,-1.617 0.246,-1.62 0.231,-1.621 0.214,-1.622 0.198,-1.623 0.179,-1.623 0.161,-1.622 0.142,-1.62 0.121,-1.619 0.101,-1.616 0.078,-1.612 0.056,-1.609 0.032,-1.603 0.008,-1.599 -0.018,-1.593 -0.043,-1.586 -0.071,-1.579 -0.098,-1.571 -0.126,-1.563 -0.156,-1.553 -0.186,-1.544 -0.216,-1.533 -0.249,-1.522 -0.281,-1.511 -0.315,-1.498 -0.348,-1.486 -0.384,-1.471 -0.42,-1.458 -0.223,-0.723 -0.233,-0.719 -0.242,-0.716 -0.252,-0.711 -0.261,-0.708 -0.271,-0.703 -0.281,-0.699 -0.29,-0.695 -0.301,-0.691 -0.311,-0.686 -0.32,-0.682 -0.332,-0.676 -0.341,-0.673 -0.352,-0.667 -0.363,-0.663 -0.373,-0.658 -0.385,-0.652 -0.394,-0.648 -0.406,-0.643 -0.414,-0.639 -0.857,-1.264 -0.891,-1.249 -0.921,-1.236 -0.947,-1.223 -0.97,-1.213 -0.989,-1.205 -1.005,-1.199 -2.041,-2.383 -2.061,-2.378 -2.052,-2.387 -1.013,-1.201 -1,-1.208 -0.983,-1.217 -0.962,-1.228 -0.939,-1.241 -0.911,-1.255 -0.879,-1.272 -0.427,-0.642 -0.418,-0.647 -0.408,-0.652 -0.399,-0.657 -0.387,-0.662 -0.377,-0.668 -0.365,-0.673 -0.354,-0.68 -0.341,-0.686 -0.328,-0.692 -0.315,-0.699 -0.302,-0.706 -0.287,-0.713 -0.273,-0.72 -0.258,-0.728 -0.242,-0.736 -0.227,-0.743 -0.21,-0.751 -0.195,-0.758 -0.179,-0.764 -0.163,-0.769 -0.147,-0.775 -0.132,-0.78 -0.116,-0.783 -0.1,-0.787 -0.084,-0.79 -0.069,-0.792 -0.053,-0.793 -0.038,-0.795 -0.022,-0.796 -0.006,-0.795 0.009,-0.795 0.024,-0.794 0.04,-0.792 0.055,-0.79 0.071,-0.787 0.086,-0.784 0.101,-0.78 0.116,-0.775 0.132,-0.77 0.147,-0.764 0.162,-0.759 0.178,-0.751 0.192,-0.744 0.208,-0.736 0.223,-0.727 0.237,-0.718 0.253,-0.709 0.268,-0.699 0.282,-0.688 0.297,-0.679 0.312,-0.6688 0.325,-0.659 0.34,-0.6493 0.354,-0.6396 0.367,-0.63 0.381,-0.6204 0.394,-0.6109 0.408,-0.6015 0.42,-0.5922 0.433,-0.5829 0.446,-0.5736 0.458,-0.5645 0.47,-0.5553 0.483,-0.5463 0.494,-0.5374 0.507,-0.5284 0.517,-0.5196 0.529,-0.5108 0.541,-0.5021 0.551,-0.4934 0.562,-0.4849 0.573,-0.4763 0.583,-0.4679 0.594,-0.4594 0.603,-0.4511 0.614,-0.4429 0.623,-0.4347 0.633,-0.4265 0.643,-0.4184 0.651,-0.4104 0.661,-0.4025 0.67,-0.3946 0.678,-0.3867 0.686,-0.379 0.695,-0.3713 0.704,-0.3637 0.711,-0.3561 0.719,-0.3486 0.726,-0.3412 0.734,-0.3338 0.742,-0.3265 1.503,-0.6313 1.531,-0.6029 1.555,-0.5749 1.58,-0.5475 1.603,-0.5205 1.623,-0.4941 1.644,-0.4682 1.662,-0.4428 1.678,-0.418 1.694,-0.3935 1.708,-0.3698 1.721,-0.3463 1.731,-0.3236 1.742,-0.3012 1.749,-0.2795 1.757,-0.2581 1.762,-0.2374 1.766,-0.217 1.768,-0.1974 1.77,-0.1781 1.769,-0.1594 1.767,-0.1411 1.765,-0.1235 1.76,-0.1062 1.753,-0.0896 1.747,-0.0734 1.738,-0.0576 1.73,-0.0418 1.722,-0.0263 1.714,-0.0108 1.706,0.0046 1.698,0.0197 1.691,0.0348 1.683,0.0497 1.675,0.0646 1.667,0.0792 1.66,0.0938 1.653,0.1083 1.645,0.1225 1.638,0.1367 1.63,0.1507 1.623,0.1647 1.616,0.1784 1.609,0.1921 1.602,0.2056 1.595,0.219 1.588,0.2323 1.582,0.2455 1.574,0.2584 1.568,0.2714 1.561,0.284 1.554,0.2968 1.548,0.3092 1.541,0.3216 1.535,0.3338 1.529,0.3459 1.522,0.358 1.517,0.3698 1.51,0.3815 1.503,0.3931 1.498,0.4046 1.492,0.4159 1.486,0.4271 1.48,0.4383 1.474,0.4491 1.469,0.46 1.463,0.4708 1.457,0.4812 1.452,0.4918 1.446,0.502 1.441,0.5122 1.436,0.5223 1.43,0.5322 1.425,0.542 1.42,0.5517 1.414,0.5612 1.41,0.5706 1.405,0.5799 1.399,0.5891 1.395,0.5981 1.39,0.607 2.767,1.2402 2.747,1.2742 2.73,1.3073 2.712,1.3392 2.696,1.3703 2.679,1.4001 2.663,1.4291 2.648,1.457 2.632,1.4841 2.619,1.509 2.604,1.535 2.591,1.558 2.578,1.581 2.566,1.603 2.553,1.623 2.542,1.644 2.53,1.665 2.519,1.684 2.507,1.704 2.496,1.723 2.484,1.742 2.474,1.76 2.464,1.779 2.453,1.797 2.442,1.815 2.432,1.832 2.422,1.849 2.412,1.865 2.403,1.882 2.393,1.898 2.384,1.914 2.374,1.929 2.365,1.944 2.357,1.959 2.347,1.974 2.339,1.987 2.331,2.002 2.323,2.015 2.314,2.028 2.306,2.04 2.299,2.054 2.291,2.065 2.284,2.078 2.277,2.089 2.269,2.1 2.262,2.111 2.256,2.121 2.249,2.132 2.243,2.142 2.232,2.152 2.23,2.161 2.23,2.169 2.22,2.179 2.21,2.187 4.41,4.397 4.39,4.427 4.37,4.453 4.35,4.478 4.34,4.5 4.32,4.519 4.31,4.536 4.29,4.549 4.28,4.562 4.28,4.57 8.52,9.157 8.49,9.161 8.49,9.146 4.24,4.561 4.24,4.549 4.24,4.535 4.25,4.518 4.24,4.504 4.25,4.493 8.49,8.967 8.45,8.964 4.21,4.491 4.2,4.501 4.18,4.514 4.17,4.531 4.14,4.552 4.12,4.577 4.1,4.604 2.04,2.314 2.03,2.321 2.02,2.331 2.02,2.34 2.01,2.349 2,2.359 1.99,2.37 1.98,2.379 3.96,4.773 3.96,4.778 3.96,4.76 2,2.367 2,2.354 2.02,2.34 2.03,2.321 2.05,2.301 2.07,2.279 2.08,2.252 2.11,2.224 m 173.46,117.744 -2.44,-1.735 -2.47,-1.71 -2.48,-1.688 -2.51,-1.665 -2.51,-1.644 -2.53,-1.625 -2.54,-1.606 -2.54,-1.59 -2.56,-1.575 -2.56,-1.56 -2.56,-1.548 -2.57,-1.534 -2.58,-1.521 -2.57,-1.509 -2.59,-1.495 -2.59,-1.483 -2.59,-1.47 -2.6,-1.457 -2.61,-1.445 -2.61,-1.431 -2.62,-1.419 -2.63,-1.407 -2.63,-1.394 -2.64,-1.381 -2.65,-1.368 -2.65,-1.357 -2.66,-1.343 -2.67,-1.332 -2.67,-1.319 -2.69,-1.306 -2.69,-1.294 -2.7,-1.282 -2.71,-1.27 -2.72,-1.258 -2.72,-1.245 -2.74,-1.234 -5.49,-2.445 -5.49,-2.441 -2.75,-1.227 -2.73,-1.237 -2.73,-1.25 -2.72,-1.267 -2.71,-1.287 -2.69,-1.31 -2.67,-1.339 -2.65,-1.369 -1.32,-0.697 -1.31,-0.707 -1.31,-0.716 -1.29,-0.726 -1.29,-0.737 -1.29,-0.747 -1.27,-0.759 -1.27,-0.77 -1.26,-0.783 -1.25,-0.796 -1.25,-0.809 -1.23,-0.822 -1.22,-0.837 -1.22,-0.851 -1.2,-0.865 -1.2,-0.881 -1.18,-0.896 -1.17,-0.909 -1.17,-0.923 -1.16,-0.935 -1.14,-0.947 -1.14,-0.959 -1.14,-0.969 -1.12,-0.98 -1.12,-0.989 -1.11,-0.998 -2.21,-2.019 -2.18,-2.048 -2.16,-2.07 -2.26,-0.21 -2.25,-0.224 -2.25,-0.239 -2.24,-0.254 -2.25,-0.269 -2.25,-0.284 -2.24,-0.298 -2.24,-0.314 -2.24,-0.328 -2.24,-0.343 -2.24,-0.358 -2.23,-0.373 -2.23,-0.388 -2.23,-0.403 -2.22,-0.418 -2.23,-0.433 -2.22,-0.447 -2.21,-0.462 -2.22,-0.478 -2.21,-0.492 -2.2,-0.507 -2.21,-0.522 -2.2,-0.537 -2.19,-0.552 -2.19,-0.567 -2.19,-0.582 -2.18,-0.596 -2.18,-0.612 -2.18,-0.626 -2.17,-0.642 -2.16,-0.656 -2.16,-0.672 -2.16,-0.686 -2.15,-0.701 -2.14,-0.716 -2.14,-0.731 -2.14,-0.746 -2.12,-0.76 -2.13,-0.775 -2.11,-0.79 -2.12,-0.804 -2.1,-0.818 -2.1,-0.832 -2.1,-0.847 -2.09,-0.86 -2.08,-0.875 -2.08,-0.888 -2.07,-0.902 -2.06,-0.915 -2.06,-0.93 -2.06,-0.942 -2.04,-0.956 -2.04,-0.97 -2.04,-0.982 -2.02,-0.996 -2.03,-1.008 -2.01,-1.022 -2.01,-1.034 -2,-1.047 -2,-1.06 -1.99,-1.072 -1.98,-1.085 -1.97,-1.097 -1.97,-1.11 -1.96,-1.121 -1.96,-1.134 -1.94,-1.145 -1.94,-1.158 -1.94,-1.169 -1.92,-1.181 -1.92,-1.193 -1.91,-1.204 -1.91,-1.216 -1.9,-1.227 -1.89,-1.238 -1.88,-1.249 -1.87,-1.261 -1.87,-1.271 -1.86,-1.282 -1.85,-1.294 -1.84,-1.304 -1.84,-1.315 -1.83,-1.326 -1.82,-1.337 -1.81,-1.347 -1.8,-1.359 -1.8,-1.369 -1.78,-1.38 -1.78,-1.39 -1.77,-1.401 -1.76,-1.412 -1.75,-1.423 -1.75,-1.433 -1.73,-1.443 -1.73,-1.454 -1.71,-1.465 -1.71,-1.475 -1.7,-1.485 -1.68,-1.496 -1.68,-1.506 -1.671,-1.517 -1.66,-1.526 -1.649,-1.538 -1.64,-1.547 -1.63,-1.558 -1.62,-1.568 -1.61,-1.578 -1.6,-1.588 -1.589,-1.598 -1.579,-1.609 -1.569,-1.618 -1.559,-1.628 -1.548,-1.639 -1.538,-1.647 -1.528,-1.658 -1.518,-1.666 -1.508,-1.675 -1.498,-1.684 -1.489,-1.693 -1.479,-1.701 -1.47,-1.71 -1.46,-1.717 -1.452,-1.725 -1.442,-1.733 -1.433,-1.741 -1.424,-1.747 -1.416,-1.755 -1.407,-1.762 2.863,1.99 2.879,1.966 2.896,1.943 2.909,1.923 2.924,1.902 2.936,1.882 2.947,1.865 2.958,1.847 2.967,1.831 2.977,1.815 2.984,1.8 2.994,1.784 3.002,1.769 3.011,1.754 3.019,1.739 3.03,1.723 3.03,1.709 3.05,1.694 3.05,1.68 3.06,1.665 3.07,1.651 3.07,1.636 3.08,1.623 3.09,1.608 3.1,1.595 3.11,1.581 3.11,1.567 3.12,1.554 3.13,1.541 3.13,1.527 3.15,1.514 3.14,1.498 3.16,1.484 3.17,1.467 3.17,1.45 3.18,1.434 3.19,1.415 3.19,1.397 3.21,1.378 3.21,1.358 3.22,1.337 3.23,1.317 3.24,1.294 3.25,1.272 3.25,1.249 3.27,1.226 3.27,1.201 3.28,1.176 3.3,1.15 3.3,1.124 3.31,1.097 3.32,1.069 3.34,1.042 3.34,1.012 3.35,0.983 3.36,0.952 3.38,0.922 3.38,0.891 3.39,0.858 3.41,0.823 3.41,0.786 1.71,0.378 1.71,0.367 1.72,0.357 1.71,0.346 1.72,0.334 1.72,0.323 -4.07,-3.924 -4.05,-3.95 -4.03,-3.973 -4.01,-3.992 -3.98,-4.009 -3.98,-4.023 -3.95,-4.033 -3.95,-4.04 -3.94,-4.048 -3.93,-4.054 -7.82,-8.125 -7.8,-8.145 -7.78,-8.16 -7.77,-8.173 -7.75,-8.181 -15.52,-16.37 -7.77,-8.182 -7.8,-8.175 -7.82,-8.164 -3.92,-4.076 -3.93,-4.073 -3.94,-4.067 -3.95,-4.062 -3.97,-4.057 -3.97,-4.05 -3.99,-4.044 -4.01,-4.037 -4.02,-4.029 -4.03,-4.021 -4.054,-4.012 -4.069,-4.004 -4.089,-3.993 -4.109,-3.978 -4.132,-3.96 -4.155,-3.936 -2.088,-1.958 -2.094,-1.95 -2.101,-1.943 -2.109,-1.934 -2.116,-1.925 -2.123,-1.915 -2.132,-1.905 -2.14,-1.894 -2.148,-1.883 -2.156,-1.871 -2.166,-1.858 -2.174,-1.846 -2.184,-1.832 -2.193,-1.818 -2.203,-1.803 -2.214,-1.788 -2.223,-1.773 -2.234,-1.756 -2.244,-1.739 -2.255,-1.722 -2.267,-1.704 -2.278,-1.685 -2.289,-1.667 -2.302,-1.647 -2.313,-1.627 -2.326,-1.606 -2.338,-1.585 -2.351,-1.563 -2.364,-1.54 -2.377,-1.518 -2.391,-1.495 -2.404,-1.47 -2.419,-1.446 -2.432,-1.421 -2.447,-1.395 -2.461,-1.369 -2.477,-1.342 -2.491,-1.315 -2.506,-1.287 -2.523,-1.259 -2.538,-1.23 -2.553,-1.2 -2.57,-1.171 -2.585,-1.141 -2.6,-1.111 -2.615,-1.081 -2.628,-1.051 -2.642,-1.021 -2.655,-0.99 -2.668,-0.9611 -2.68,-0.9303 -2.692,-0.9001 -2.703,-0.8696 -2.714,-0.8392 -2.724,-0.8086 -2.734,-0.7781 -2.744,-0.7474 -2.753,-0.7167 -2.761,-0.6859 -2.77,-0.655 -2.777,-0.6241 -2.785,-0.5931 -2.791,-0.5621 -2.798,-0.531 -2.804,-0.4997 -2.809,-0.4686 -2.814,-0.4372 -2.819,-0.4058 -2.823,-0.3744 -2.826,-0.3428 -2.83,-0.3113 -1.416,-0.1427 -1.416,-0.1324 -1.417,-0.1203 -1.417,-0.1068 -1.416,-0.0918 -1.417,-0.0751 -1.416,-0.057 -1.416,-0.0372 -1.416,-0.0159 -1.414,0.007 -1.414,0.0313 -1.412,0.0573 -1.412,0.0847 -1.409,0.1139 -1.409,0.1444 -1.406,0.1766 -1.405,0.2103 -1.403,0.2456 -1.4,0.2824 -1.398,0.3208 -0.699,0.1752 -0.697,0.1855 -0.697,0.1958 -0.696,0.2063 -0.696,0.2171 -0.694,0.2281 -0.694,0.2392 -0.694,0.2506 -0.692,0.2621 -0.692,0.2738 -0.691,0.2858 -0.69,0.2978 -0.689,0.3102 -0.688,0.3226 -0.687,0.3352 -0.686,0.3475 -0.683,0.3594 -0.681,0.3712 -0.677,0.3826 -0.674,0.3939 -0.67,0.4047 -0.664,0.4154 -0.66,0.4257 -0.653,0.4359 -0.647,0.4457 -0.64,0.4552 -0.632,0.4646 -0.625,0.4736 -0.615,0.4823 -0.607,0.4908 -0.597,0.499 -0.587,0.507 -0.576,0.5146 -0.565,0.5221 -0.553,0.5291 -0.541,0.5364 -0.527,0.542 -0.515,0.549 -0.5,0.555 -0.486,0.561 -0.471,0.566 -0.456,0.572 -0.439,0.576 -0.423,0.581 -0.405,0.586 -0.388,0.59 -0.37,0.593 -0.35,0.598 -0.332,0.6 -0.311,0.604 -0.292,0.606 -0.27,0.609 -0.249,0.612 -0.227,0.613 -0.204,0.615 -0.182,0.616 -0.157,0.618 -0.134,0.619 -0.109,0.619 -0.083,0.619 -0.059,0.62 -0.034,0.62 -0.009,0.62 0.013,0.621 0.037,0.621 0.059,0.621 0.081,0.621 0.102,0.622 0.122,0.622 0.143,0.622 0.161,0.622 0.181,0.623 0.198,0.623 0.216,0.624 0.233,0.623 0.25,0.625 0.265,0.624 0.281,0.625 0.295,0.625 0.309,0.626 0.322,0.626 0.335,0.627 0.348,0.627 0.359,0.627 0.37,0.628 0.38,0.628 0.79,1.258 0.825,1.26 0.855,1.262 0.879,1.264 0.9,1.266 0.916,1.269 0.926,1.271 1.867,2.548 1.853,2.559 0.909,1.284 0.892,1.286 0.87,1.289 0.843,1.292 0.816,1.295 0.789,1.297 0.762,1.301 0.735,1.304 0.709,1.306 0.683,1.309 0.656,1.313 0.631,1.315 0.606,1.318 0.58,1.321 0.554,1.324 0.53,1.326 0.505,1.33 0.481,1.332 0.456,1.336 0.432,1.338 0.408,1.341 0.384,1.344 0.361,1.346 0.338,1.35 0.314,1.352 0.292,1.355 0.269,1.359 0.246,1.36 0.225,1.364 0.202,1.367 0.18,1.369 0.159,1.372 0.137,1.375 0.116,1.378 0.095,1.38 0.075,1.384 0.054,1.385 0.035,1.389 0.015,1.39 -0.003,1.393 -0.022,1.394 -0.04,1.397 -0.057,1.398 -0.075,1.4 -0.091,1.401 -0.107,1.403 -0.123,1.404 -0.138,1.405 -0.153,1.406 -0.168,1.407 -0.182,1.407 -0.195,1.409 -0.209,1.408 -0.221,1.409 -0.234,1.41 -0.245,1.409 -0.257,1.409 -0.268,1.409 -0.278,1.409 -0.289,1.408 -0.605,2.815 -0.641,2.812 -0.673,2.807 -0.701,2.802 -0.726,2.795 -0.747,2.788 -0.765,2.78 -0.776,2.772 -1.56,5.527 -0.772,2.757 -0.757,2.753 -0.737,2.751 -0.711,2.751 -0.677,2.75 -0.324,1.375 -0.313,1.376 -0.302,1.376 -0.29,1.377 -0.277,1.378 -0.263,1.378 -0.248,1.38 -0.232,1.38 -0.217,1.382 -0.199,1.383 -0.182,1.385 -0.163,1.387 -0.143,1.388 -0.123,1.39 -0.103,1.393 -0.08,1.394 -0.058,1.397 -0.036,1.399 -0.013,1.4 0.008,1.403 0.03,1.404 0.051,1.404 0.073,1.406 0.093,1.407 0.113,1.406 0.133,1.408 0.154,1.407 0.173,1.406 0.192,1.407 0.211,1.405 0.23,1.405 0.249,1.403 0.267,1.402 0.284,1.4 0.303,1.399 0.319,1.396 0.337,1.394 0.354,1.391 0.37,1.388 0.386,1.385 0.402,1.382 0.418,1.378 0.434,1.375 0.448,1.37 0.464,1.366 0.478,1.362 0.492,1.357 0.506,1.352 0.52,1.346 0.534,1.341 0.546,1.336 0.56,1.329 0.572,1.324 0.584,1.317 0.597,1.31 0.608,1.303 0.62,1.297 0.631,1.289 0.642,1.282 0.654,1.275 0.664,1.268 0.675,1.261 0.686,1.254 0.696,1.247 0.707,1.24 0.717,1.233 0.726,1.227 0.737,1.219 0.747,1.213 0.756,1.207 0.766,1.199 0.776,1.193 0.784,1.187 0.794,1.18 0.803,1.173 0.812,1.167 0.82,1.161 0.829,1.154 0.838,1.148 0.846,1.141 0.854,1.136 0.862,1.129 1.748,2.239 1.778,2.215 1.808,2.191 1.837,2.168 1.863,2.143 1.89,2.121 1.916,2.097 1.939,2.075 1.962,2.053 1.985,2.031 2.005,2.009 2.025,1.988 2.043,1.967 2.061,1.946 2.078,1.925 2.093,1.906 2.109,1.885 2.125,1.864 2.14,1.845 2.157,1.824 2.172,1.803 2.188,1.783 2.204,1.762 2.221,1.741 2.237,1.72 2.253,1.7 2.269,1.678 2.286,1.657 2.302,1.636 2.319,1.614 2.335,1.593 2.353,1.572 2.369,1.55 2.386,1.529 2.403,1.507 2.419,1.485 2.437,1.463 2.455,1.441 2.471,1.419 2.489,1.397 2.506,1.375 2.523,1.353 2.541,1.33 2.559,1.307 2.576,1.286 2.594,1.262 2.612,1.239 2.628,1.214 2.644,1.187 2.659,1.158 2.673,1.127 2.687,1.094 2.7,1.061 2.712,1.024 1.36,0.498 1.363,0.488 1.365,0.478 1.368,0.468 1.371,0.458 1.373,0.447 1.375,0.437 1.377,0.425 1.379,0.414 1.381,0.402 1.383,0.391 1.385,0.379 1.386,0.366 1.388,0.354 1.39,0.342 1.39,0.328 1.392,0.316 1.394,0.302 1.394,0.288 1.395,0.275 1.396,0.261 1.397,0.246 1.398,0.232 1.398,0.218 1.399,0.202 1.399,0.188 1.399,0.172 1.4,0.156 1.4,0.141 1.4,0.124 1.399,0.108 1.4,0.092 1.399,0.075 1.399,0.058 1.398,0.041 1.398,0.024 1.397,0.006 1.397,-0.012 1.395,-0.03 1.395,-0.049 1.393,-0.067 1.393,-0.085 1.391,-0.104 1.39,-0.122 1.389,-0.14 1.387,-0.157 1.387,-0.175 1.385,-0.19 1.384,-0.207 1.382,-0.223 1.382,-0.239 1.38,-0.253 1.379,-0.268 1.377,-0.283 1.376,-0.297 1.375,-0.31 1.374,-0.324 1.372,-0.336 1.371,-0.349 1.369,-0.362 1.368,-0.373 1.366,-0.384 1.365,-0.396 1.364,-0.406 1.36,-0.416 1.36,-0.427 2.72,-0.881 2.71,-0.916 2.71,-0.949 2.69,-0.979 2.7,-1.004 2.68,-1.029 2.68,-1.048 2.67,-1.067 2.67,-1.081 2.66,-1.092 2.65,-1.101 5.28,-2.22 5.26,-2.233 5.25,-2.234 5.23,-2.224 5.23,-2.201 2.62,-1.088 2.62,-1.078 2.61,-1.067 2.62,-1.053 2.63,-1.039 2.62,-1.023 2.63,-1.005 2.64,-0.986 2.64,-0.966 2.65,-0.943 2.66,-0.921 2.66,-0.895 2.67,-0.868 2.69,-0.841 2.69,-0.811 2.7,-0.78 2.71,-0.748 2.73,-0.714 2.74,-0.679 2.75,-0.644 2.76,-0.608 2.77,-0.573 2.78,-0.538 2.79,-0.502 2.8,-0.466 2.81,-0.43 2.82,-0.394 2.82,-0.357 2.83,-0.321 2.83,-0.284 2.84,-0.248 2.85,-0.21 2.84,-0.174 2.85,-0.136 2.86,-0.099 2.85,-0.061 2.86,-0.023 2.86,0.014 2.86,0.053 2.86,0.091 2.86,0.129 2.85,0.167 2.86,0.207 2.85,0.245 2.85,0.284 2.84,0.323 2.84,0.362 2.83,0.402 1.42,0.216 1.41,0.226 1.41,0.235 1.41,0.246 1.41,0.256 1.41,0.265 1.41,0.276 1.4,0.285 1.4,0.296 1.4,0.306 1.39,0.315 1.4,0.326 1.39,0.336 1.39,0.347 1.38,0.356 1.39,0.367 1.37,0.376 1.38,0.388 1.37,0.397 1.37,0.407 1.37,0.418 1.36,0.428 1.36,0.439 1.35,0.449 1.35,0.459 1.35,0.47 1.34,0.48 1.33,0.49 1.34,0.501 1.32,0.511 1.33,0.522 1.31,0.533 1.32,0.543 1.3,0.553 1.3,0.564 1.3,0.575 1.29,0.585 1.28,0.596 1.28,0.606 1.27,0.618 1.27,0.628 1.26,0.638 1.25,0.649 1.25,0.661 1.24,0.67 1.24,0.682 1.22,0.693 1.22,0.703 1.21,0.714 1.21,0.725 1.2,0.736 1.19,0.747 1.18,0.757 1.18,0.768 1.16,0.779 1.17,0.788 1.15,0.799 1.15,0.808 1.14,0.818 1.14,0.827 1.13,0.837 1.12,0.845 1.12,0.854 1.12,0.863 2.21,1.751 2.19,1.783 2.18,1.813 2.16,1.843 2.15,1.87 2.13,1.896 2.12,1.921 2.12,1.943 2.1,1.965 2.1,1.98 2.1,1.983 2.11,1.972 2.12,1.946 1.07,0.96 1.08,0.948 1.08,0.935 1.09,0.919 1.1,0.903 1.11,0.885 1.12,0.865 1.13,0.842 1.15,0.819 1.15,0.794 1.17,0.766 1.19,0.738 1.2,0.708 1.21,0.675 1.24,0.641 0.62,0.307 0.63,0.298 0.63,0.289 0.64,0.279 0.64,0.269 0.65,0.261 1.31,0.493 1.32,0.459 1.34,0.425 1.35,0.393 1.37,0.362 1.38,0.334 1.38,0.306 1.4,0.28 1.41,0.255 1.41,0.232 1.42,0.211 1.42,0.19 1.43,0.172 1.43,0.154 1.42,0.139 1.43,0.124 1.43,0.112 1.43,0.099 1.42,0.087 1.43,0.075 1.42,0.064 1.42,0.053 1.42,0.043 1.42,0.033 2.83,0.037 2.84,0.003 2.83,-0.029 2.82,-0.057"
         id="path20" />
    </g>
    <g
       fill="#009b50"
       fill-opacity="1"
       stroke="#009b50"
       stroke-opacity="1"
       stroke-width="2"
       stroke-linecap="square"
       stroke-linejoin="bevel"
       font-family="'MS Shell Dlg 2'"
       font-size="17.75px"
       font-weight="400"
       font-style="normal"
       id="g24" />
    <g
       fill="#009b50"
       fill-opacity="1"
       stroke="#009b50"
       stroke-opacity="1"
       stroke-width="1"
       stroke-linecap="butt"
       stroke-linejoin="miter"
       stroke-miterlimit="2"
       font-family="'MS Shell Dlg 2'"
       font-size="17.75px"
       font-weight="400"
       font-style="normal"
       id="g26" />
    <g
       fill="#009b50"
       fill-opacity="1"
       stroke="none"
       font-family="'MS Shell Dlg 2'"
       font-size="17.75px"
       font-weight="400"
       font-style="normal"
       id="g30">
      <path
         vector-effect="none"
         fill-rule="evenodd"
         d="m 1071.52,562.054 -5.4,20.572 -8.78,-1.724 -8.78,-1.704 -4.39,-0.838 -4.4,-0.825 -4.39,-0.811 -4.4,-0.794 -4.4,-0.774 -4.4,-0.751 -4.4,-0.728 -4.41,-0.7 -4.41,-0.672 -4.41,-0.639 -4.42,-0.606 -4.416,-0.569 -2.211,-0.27 -2.212,-0.26 -2.213,-0.25 -2.214,-0.239 -2.216,-0.228 -2.216,-0.217 -2.218,-0.205 -2.219,-0.194 -2.22,-0.182 -2.221,-0.17 -2.222,-0.158 -2.224,-0.146 -2.224,-0.135 -2.226,-0.123 -2.226,-0.112 -2.227,-0.101 -2.229,-0.089 -2.229,-0.078 -2.229,-0.068 -2.231,-0.056 -2.231,-0.046 -2.232,-0.034 -2.233,-0.025 -2.233,-0.013 -2.234,-0.003 -2.234,0.007 -2.234,0.017 -2.235,0.028 -4.472,0.085 -4.472,0.125 -4.473,0.163 -4.473,0.202 -4.474,0.239 -4.473,0.275 -4.473,0.311 -4.472,0.346 -4.471,0.381 -4.469,0.413 -4.467,0.447 -4.465,0.478 -4.463,0.51 -4.459,0.54 -4.457,0.57 -4.452,0.598 -4.449,0.627 -4.445,0.654 -4.439,0.681 -4.435,0.707 -4.43,0.732 -4.424,0.757 -4.418,0.78 -4.412,0.803 -4.406,0.825 -4.399,0.847 -4.392,0.868 -4.387,0.89 -4.38,0.91 -4.375,0.93 -4.368,0.951 -4.363,0.97 -4.358,0.99 -4.352,1.008 -3.537,-22.105 4.464,-1.136 4.468,-1.12 4.474,-1.097 4.48,-1.071 4.489,-1.038 2.248,-0.505 2.25,-0.495 2.253,-0.485 2.254,-0.476 2.257,-0.465 2.26,-0.456 4.525,-0.883 4.533,-0.844 4.541,-0.805 4.548,-0.767 4.555,-0.728 4.562,-0.689 4.568,-0.651 4.574,-0.613 4.58,-0.574 4.584,-0.537 4.589,-0.498 4.593,-0.461 4.597,-0.423 4.6,-0.385 4.604,-0.348 4.606,-0.31 4.608,-0.272 4.61,-0.236 4.611,-0.198 4.613,-0.161 4.613,-0.125 4.613,-0.087 4.613,-0.051 4.613,-0.013 4.611,0.022 4.611,0.059 4.609,0.094 4.608,0.129 4.606,0.164 4.604,0.197 4.603,0.231 4.6,0.264 4.598,0.297 4.596,0.329 4.593,0.36 4.591,0.391 4.588,0.422 4.584,0.451 4.582,0.482 4.578,0.51 4.571,0.538 4.57,0.567 4.57,0.594 4.56,0.621 4.56,0.646 4.56,0.667 4.55,0.688 4.55,0.705 4.55,0.721 4.55,0.733 9.09,1.493 18.16,3.033"
         id="path28" />
    </g>
    <g
       fill="#009b50"
       fill-opacity="1"
       stroke="#009b50"
       stroke-opacity="1"
       stroke-width="1"
       stroke-linecap="butt"
       stroke-linejoin="miter"
       stroke-miterlimit="2"
       font-family="'MS Shell Dlg 2'"
       font-size="17.75px"
       font-weight="400"
       font-style="normal"
       id="g32" />
    <g
       fill="#009b50"
       fill-opacity="1"
       stroke="#009b50"
       stroke-opacity="1"
       stroke-width="2"
       stroke-linecap="square"
       stroke-linejoin="bevel"
       font-family="'MS Shell Dlg 2'"
       font-size="17.75px"
       font-weight="400"
       font-style="normal"
       id="g34" />
    <g
       fill="#009b50"
       fill-opacity="1"
       stroke="#009b50"
       stroke-opacity="1"
       stroke-width="1"
       stroke-linecap="butt"
       stroke-linejoin="miter"
       stroke-miterlimit="2"
       font-family="'MS Shell Dlg 2'"
       font-size="17.75px"
       font-weight="400"
       font-style="normal"
       id="g36" />
    <g
       fill="#009b50"
       fill-opacity="1"
       stroke="none"
       font-family="'MS Shell Dlg 2'"
       font-size="17.75px"
       font-weight="400"
       font-style="normal"
       id="g40">
      <path
         vector-effect="none"
         fill-rule="evenodd"
         d="m 726.027,129.013 -2.056,-0.735 -2.04,-0.738 -2.027,-0.74 -2.011,-0.746 -1.997,-0.751 -1.983,-0.758 -1.968,-0.767 -1.954,-0.776 -1.94,-0.787 -1.925,-0.8 -1.911,-0.813 -1.896,-0.828 -1.882,-0.844 -1.869,-0.861 -1.854,-0.88 -1.839,-0.9 -1.826,-0.921 -1.812,-0.943 -1.797,-0.968 -1.783,-0.992 -1.77,-1.018 -1.756,-1.042 -1.743,-1.066 -1.731,-1.087 -1.718,-1.108 -1.707,-1.127 -1.696,-1.145 -1.686,-1.162 -1.675,-1.176 -1.665,-1.191 -1.656,-1.202 -1.648,-1.214 1.866,-0.3625 1.869,-0.3499 1.872,-0.3363 1.874,-0.322 1.876,-0.3068 1.879,-0.2908 1.88,-0.274 1.882,-0.2564 1.884,-0.238 1.885,-0.2188 1.886,-0.1986 1.887,-0.1778 1.888,-0.1561 1.889,-0.1337 1.89,-0.1102 1.89,-0.0862 1.89,-0.0611 1.89,-0.0355 1.891,-0.0104 1.893,0.0128 1.895,0.0342 1.9,0.0538 1.904,0.0714 1.911,0.0873 1.918,0.1012 1.926,0.1133 1.936,0.1235 1.946,0.132 1.958,0.1384 1.971,0.1432 1.984,0.146 2,0.147 -0.501,0.8636 -0.475,0.8817 -0.449,0.9 -0.422,0.9183 -0.395,0.9364 -0.368,0.956 -0.339,0.974 -0.311,0.992 -0.283,1.008 -0.255,1.023 -0.226,1.035 -0.198,1.048 -0.17,1.058 -0.14,1.066 -0.112,1.074 -0.083,1.08 -0.055,1.084 -0.025,1.088 0.003,1.088 0.033,1.089 0.062,1.088 0.09,1.084 0.121,1.08 0.149,1.074 0.179,1.068 0.209,1.058 0.238,1.048 0.268,1.037 0.298,1.023 0.327,1.009 0.356,0.994 0.385,0.981"
         id="path38" />
    </g>
    <g
       fill="#009b50"
       fill-opacity="1"
       stroke="#009b50"
       stroke-opacity="1"
       stroke-width="1"
       stroke-linecap="butt"
       stroke-linejoin="miter"
       stroke-miterlimit="2"
       font-family="'MS Shell Dlg 2'"
       font-size="17.75px"
       font-weight="400"
       font-style="normal"
       id="g42" />
    <g
       fill="#009b50"
       fill-opacity="1"
       stroke="#009b50"
       stroke-opacity="1"
       stroke-width="2"
       stroke-linecap="square"
       stroke-linejoin="bevel"
       font-family="'MS Shell Dlg 2'"
       font-size="17.75px"
       font-weight="400"
       font-style="normal"
       id="g44" />
    <g
       fill="#009b50"
       fill-opacity="1"
       stroke="#009b50"
       stroke-opacity="1"
       stroke-width="1"
       stroke-linecap="butt"
       stroke-linejoin="miter"
       stroke-miterlimit="2"
       font-family="'MS Shell Dlg 2'"
       font-size="17.75px"
       font-weight="400"
       font-style="normal"
       id="g46" />
    <g
       fill="#009b50"
       fill-opacity="1"
       stroke="none"
       font-family="'MS Shell Dlg 2'"
       font-size="17.75px"
       font-weight="400"
       font-style="normal"
       id="g50">
      <path
         vector-effect="none"
         fill-rule="evenodd"
         d="m 859.678,550.323 -3.94,0.465 -3.936,0.494 -3.932,0.522 -3.927,0.55 -3.924,0.579 -3.918,0.607 -3.914,0.635 -3.908,0.664 1.717,-1.013 1.699,-1.007 1.682,-1.001 1.666,-0.995 1.651,-0.99 1.638,-0.986 1.625,-0.981 1.613,-0.978 3.196,-1.949 3.162,-1.941 3.137,-1.938 3.12,-1.939 6.217,-3.899 3.101,-1.962 3.095,-1.971 3.089,-1.981 3.084,-1.992 3.078,-2.003 3.073,-2.016 3.066,-2.028 3.061,-2.042 3.054,-2.057 3.049,-2.072 3.043,-2.087 3.036,-2.104 3.03,-2.122 3.024,-2.139 3.017,-2.158 3.011,-2.178 3.004,-2.198 2.998,-2.219 2.991,-2.24 2.984,-2.263 2.978,-2.286 2.97,-2.31 2.15,0.493 2.152,0.471 2.155,0.449 2.157,0.426 2.16,0.403 2.16,0.381 2.162,0.357 2.163,0.334 -2.599,1.898 -2.598,1.888 -2.597,1.876 -2.595,1.867 -5.191,3.704 -5.191,3.669 -5.195,3.636 -5.201,3.607 -5.209,3.582 -5.222,3.559 -5.235,3.54 -5.253,3.525 -5.272,3.513 -5.295,3.504 -5.32,3.499 -2.676,1.756 -1.348,0.886 -1.358,0.896 -1.369,0.908 -1.383,0.922 -1.4,0.939 -1.417,0.958 -1.438,0.981 -1.46,1.006 -1.485,1.033 -0.752,0.527 -0.76,0.536"
         id="path48" />
    </g>
    <g
       fill="#009b50"
       fill-opacity="1"
       stroke="#009b50"
       stroke-opacity="1"
       stroke-width="1"
       stroke-linecap="butt"
       stroke-linejoin="miter"
       stroke-miterlimit="2"
       font-family="'MS Shell Dlg 2'"
       font-size="17.75px"
       font-weight="400"
       font-style="normal"
       id="g52" />
    <g
       fill="#009b50"
       fill-opacity="1"
       stroke="#009b50"
       stroke-opacity="1"
       stroke-width="2"
       stroke-linecap="square"
       stroke-linejoin="bevel"
       font-family="'MS Shell Dlg 2'"
       font-size="17.75px"
       font-weight="400"
       font-style="normal"
       id="g54" />
    <g
       fill="#009b50"
       fill-opacity="1"
       stroke="#009b50"
       stroke-opacity="1"
       stroke-width="1"
       stroke-linecap="butt"
       stroke-linejoin="miter"
       stroke-miterlimit="2"
       font-family="'MS Shell Dlg 2'"
       font-size="17.75px"
       font-weight="400"
       font-style="normal"
       id="g56" />
    <g
       fill="#009b50"
       fill-opacity="1"
       stroke="none"
       font-family="'MS Shell Dlg 2'"
       font-size="17.75px"
       font-weight="400"
       font-style="normal"
       id="g60">
      <path
         vector-effect="none"
         fill-rule="evenodd"
         d="m 1020.78,553.909 -3.2,-0.454 -3.2,-0.441 -3.21,-0.428 -3.21,-0.415 0.86,-1.425 0.84,-1.395 0.83,-1.37 0.82,-1.346 0.8,-1.326 0.8,-1.309 0.79,-1.295 0.78,-1.284 1.54,-2.544 1.54,-2.535 3.05,-5.078 3.03,-5.098 3.01,-5.121 2.98,-5.148 1.49,-2.586 1.47,-2.594 1.48,-2.603 1.46,-2.613 1.46,-2.622 1.46,-2.634 1.44,-2.644 1.44,-2.656 1.44,-2.668 1.43,-2.681 1.42,-2.694 1.41,-2.708 1.41,-2.722 1.4,-2.737 1.39,-2.752 1.39,-2.768 1.38,-2.784 1.37,-2.801 2.1,-1.227 2.1,-1.215 2.11,-1.201 2.11,-1.183 2.13,-1.16 2.13,-1.133 2.14,-1.104 2.16,-1.069 -1.88,2.931 -1.85,2.931 -1.82,2.932 -1.8,2.931 -1.77,2.932 -1.75,2.933 -1.73,2.933 -1.7,2.934 -1.69,2.935 -1.67,2.936 -1.65,2.938 -1.64,2.939 -1.62,2.94 -1.61,2.943 -1.59,2.944 -1.59,2.946 -3.15,5.9 -3.13,5.911 -3.11,5.922 -1.55,2.968 -1.55,2.981 -1.53,2.997 -1.52,3.019 -1.51,3.048 -0.74,1.536 -0.74,1.544 -0.74,1.555 -0.73,1.565 -0.72,1.576 -0.71,1.588 -0.71,1.6 -0.7,1.614 -0.69,1.627 -0.68,1.642"
         id="path58" />
    </g>
    <g
       fill="#009b50"
       fill-opacity="1"
       stroke="#009b50"
       stroke-opacity="1"
       stroke-width="1"
       stroke-linecap="butt"
       stroke-linejoin="miter"
       stroke-miterlimit="2"
       font-family="'MS Shell Dlg 2'"
       font-size="17.75px"
       font-weight="400"
       font-style="normal"
       id="g62" />
    <g
       fill="#009b50"
       fill-opacity="1"
       stroke="#009b50"
       stroke-opacity="1"
       stroke-width="2"
       stroke-linecap="square"
       stroke-linejoin="bevel"
       font-family="'MS Shell Dlg 2'"
       font-size="17.75px"
       font-weight="400"
       font-style="normal"
       id="g100">
      <polyline
         fill="none"
         vector-effect="none"
         points="1398.61,512.857 1397.08,512.727 1395.54,512.606 1394.01,512.496 1392.47,512.397 1390.93,512.308 1389.39,512.231 1387.84,512.166 1386.29,512.113 1384.75,512.073 1383.2,512.046 1381.64,512.031 1380.09,512.031 1378.53,512.045 1376.97,512.073 1375.41,512.116 1373.85,512.174 1372.28,512.248 1370.71,512.338 1369.14,512.444 1367.56,512.567 1365.98,512.706 1364.4,512.859 1361.24,513.197 1354.91,513.913 1351.76,514.246 1350.2,514.395 1348.63,514.53 1347.08,514.647 1345.53,514.743 1343.98,514.815 1342.45,514.861 1340.92,514.877 1339.41,514.861 1337.9,514.81 1337.15,514.77 1336.4,514.721 1335.66,514.661 1334.92,514.59 1334.18,514.508 1333.45,514.416 1332.71,514.311 1331.99,514.194 1331.26,514.065 1330.54,513.923 1329.82,513.768 1329.11,513.599 1328.4,513.417 1327.69,513.223 1326.99,513.016 1326.29,512.796 1325.6,512.564 1324.9,512.321 1324.21,512.065 1323.53,511.798 1322.84,511.52 1322.16,511.231 1321.49,510.931 1320.81,510.621 1320.14,510.3 1319.47,509.969 1318.14,509.279 1316.82,508.551 1315.51,507.787 1314.21,506.99 1312.92,506.162 1311.63,505.303 1310.35,504.417 1309.08,503.505 1307.82,502.568 1306.56,501.61 1305.31,500.631 1304.06,499.634 1302.82,498.62 1301.58,497.592 1300.34,496.55 1299.11,495.498 1296.65,493.37 1294.19,491.22 1291.73,489.065 1289.27,486.92 1286.8,484.795 1284.33,482.694 1281.84,480.618 1279.35,478.57 1276.84,476.551 1274.33,474.564 1271.8,472.611 1269.27,470.693 1267.99,469.749 1266.72,468.814 1265.44,467.889 1264.15,466.975 1262.87,466.071 1261.58,465.177 1260.29,464.295 1258.99,463.424 1257.69,462.565 1256.38,461.718 1255.07,460.882 1253.76,460.06 1252.45,459.249 1251.12,458.452 1249.8,457.668 1248.47,456.897 1247.14,456.139 1245.8,455.396 1244.46,454.667 1243.11,453.952 1241.76,453.252 1240.4,452.567 1239.04,451.898 1237.68,451.243 1236.31,450.605 1234.93,449.982 1233.55,449.376 1232.16,448.787 1230.77,448.214 1229.37,447.658 1227.97,447.119 1226.57,446.598 1225.15,446.095 1223.73,445.61 1222.31,445.144 1220.88,444.696 1219.44,444.266 1218,443.857 1216.55,443.466 1215.1,443.095 1213.64,442.743 1212.17,442.409 1210.7,442.094 1209.22,441.797 1207.74,441.518 1206.25,441.256 1204.76,441.011 1203.26,440.784 1201.76,440.572 1200.25,440.377 1198.74,440.198 1197.23,440.034 1195.71,439.886 1194.18,439.752 1192.66,439.633 1191.13,439.528 1189.59,439.437 1188.05,439.36 1186.51,439.296 1184.97,439.245 1183.42,439.206 1181.87,439.18 1180.32,439.166 1178.76,439.164 1177.21,439.173 1175.65,439.193 1174.08,439.224 1172.52,439.265 1169.39,439.377 1166.25,439.528 1163.1,439.713 1159.96,439.931 1156.81,440.179 1153.65,440.455 1150.5,440.756 1147.35,441.079 1144.2,441.423 1141.06,441.783 1137.91,442.159 1134.78,442.546 1131.65,442.946 1128.53,443.36 1125.41,443.793 1122.31,444.247 1119.22,444.726 1116.14,445.233 1113.07,445.772 1110.02,446.345 1108.5,446.645 1106.99,446.956 1105.47,447.277 1103.97,447.608 1102.46,447.951 1100.96,448.305 1099.47,448.671 1097.98,449.049 1096.5,449.44 1095.02,449.844 1093.55,450.262 1092.08,450.694 1090.61,451.14 1089.16,451.601 1087.71,452.078 1086.26,452.569 1084.82,453.077 1083.39,453.602 1081.96,454.143 1080.54,454.701 1079.13,455.277 1077.72,455.871 1076.32,456.484 1074.93,457.115 1073.54,457.763 1072.16,458.427 1070.79,459.107 1069.42,459.801 1068.05,460.508 1066.69,461.227 1065.34,461.957 1063.99,462.698 1061.29,464.206 1058.61,465.744 1055.93,467.302 1053.26,468.873 1047.91,472.023 1045.24,473.586 1042.55,475.13 1039.85,476.647 1038.5,477.392 1037.14,478.129 1035.78,478.854 1034.41,479.568 1033.04,480.269 1031.66,480.957 1030.28,481.629 1028.89,482.286 1027.49,482.927 1026.09,483.55 1024.68,484.154 1023.26,484.739 1021.83,485.305 1020.4,485.853 1018.96,486.382 1017.52,486.892 1016.06,487.385 1014.6,487.859 1013.14,488.314 1011.67,488.752 1010.19,489.172 1008.7,489.574 1007.21,489.958 1005.72,490.325 1004.22,490.674 1002.71,491.006 1001.2,491.321 999.682,491.619 998.16,491.899 996.634,492.163 995.103,492.41 993.567,492.64 992.027,492.853 990.483,493.051 988.935,493.231 987.383,493.396 985.827,493.544 984.268,493.677 982.705,493.793 981.139,493.894 979.57,493.979 977.997,494.049 976.422,494.103 974.844,494.142 973.264,494.165 971.681,494.174 970.096,494.167 968.509,494.146 966.92,494.11 965.329,494.059 963.737,493.993 962.142,493.914 960.547,493.82 958.95,493.711 957.352,493.589 955.754,493.452 954.154,493.302 952.554,493.138 950.953,492.96 949.352,492.769 947.751,492.564 946.15,492.347 944.549,492.115 942.948,491.871 941.347,491.614 939.747,491.344 938.148,491.061 936.549,490.766 934.952,490.458 933.356,490.137 931.761,489.805 930.167,489.46 928.575,489.103 926.985,488.734 925.396,488.354 923.81,487.961 922.225,487.557 920.643,487.142 919.064,486.715 917.487,486.276 915.913,485.827 914.342,485.367 912.773,484.895 911.208,484.413 909.647,483.92 908.089,483.416 906.534,482.902 904.983,482.378 903.437,481.843 901.894,481.298 900.355,480.743 898.821,480.179 897.292,479.604 895.767,479.02 894.247,478.426 892.731,477.822 891.221,477.209 889.717,476.587 888.217,475.956 886.724,475.316 885.235,474.667 883.753,474.009 882.277,473.342 880.807,472.667 879.343,471.983 877.886,471.291 876.435,470.591 874.991,469.882 873.554,469.166 872.124,468.441 870.701,467.709 869.285,466.969 867.877,466.222 866.477,465.467 865.084,464.705 863.699,463.935 862.323,463.159 860.954,462.375 859.594,461.585 858.242,460.787 856.899,459.983 855.563,459.172 854.236,458.354 852.916,457.529 851.605,456.697 850.3,455.859 849.004,455.013 847.715,454.161 845.158,452.435 842.63,450.681 840.13,448.9 837.655,447.09 835.207,445.253 832.782,443.387 830.382,441.493 828.004,439.571 825.648,437.621 823.312,435.642 820.996,433.635 818.7,431.599 816.421,429.534 814.159,427.441 811.914,425.319 809.684,423.168 807.467,420.988 805.265,418.779 803.074,416.541 800.895,414.273 798.726,411.977 796.567,409.651 794.417,407.296 792.275,404.911 790.145,402.499 788.029,400.058 785.928,397.591 783.846,395.097 781.786,392.578 779.748,390.034 777.736,387.466 775.752,384.875 773.799,382.262 772.835,380.947 771.879,379.627 770.932,378.302 769.994,376.971 769.065,375.636 768.147,374.295 767.238,372.95 766.34,371.6 765.452,370.245 764.575,368.886 763.71,367.522 762.856,366.154 762.014,364.781 761.184,363.405 760.367,362.024 759.562,360.639 758.77,359.25 757.992,357.858 757.227,356.461 756.477,355.061 755.74,353.658 755.018,352.251 754.311,350.841 753.62,349.427 752.943,348.011 752.283,346.591 751.638,345.168 751.01,343.743 750.399,342.314 749.804,340.883 749.227,339.45 748.667,338.013 748.126,336.575 747.602,335.134 747.097,333.691 746.61,332.246 746.143,330.798 745.695,329.349 745.267,327.898 744.859,326.445 744.471,324.991 744.104,323.535 743.757,322.077 743.432,320.618 743.128,319.158 742.846,317.697 742.586,316.234 742.349,314.771 742.134,313.306 741.942,311.841 741.773,310.375 741.628,308.909 741.507,307.441 741.411,305.974 741.338,304.506 741.291,303.038 741.267,301.57 741.268,300.101 741.291,298.631 741.336,297.162 741.404,295.691 741.492,294.22 741.6,292.748 741.728,291.275 741.875,289.801 742.04,288.326 742.222,286.849 742.421,285.372 742.637,283.893 742.868,282.413 743.113,280.931 743.373,279.447 743.646,277.962 743.932,276.475 744.229,274.986 744.538,273.495 744.858,272.002 745.188,270.507 745.874,267.51 746.593,264.503 747.337,261.486 748.102,258.457 748.882,255.417 749.672,252.365 750.467,249.299 751.26,246.219 752.046,243.124 752.821,240.015 753.577,236.889 754.311,233.746 755.016,230.586 755.356,228.999 755.687,227.407 756.008,225.811 756.318,224.21 756.617,222.604 756.904,220.994 757.178,219.38 757.439,217.763 757.685,216.143 757.916,214.522 758.13,212.9 758.328,211.277 758.507,209.654 758.668,208.032 758.81,206.412 758.931,204.793 759.032,203.177 759.11,201.565 759.166,199.956 759.198,198.353 759.206,196.754 759.188,195.161 759.145,193.575 759.074,191.996 758.976,190.425 758.85,188.862 758.694,187.309 758.508,185.765 758.292,184.232 758.043,182.71 757.762,181.199 757.447,179.701 757.099,178.215 756.715,176.744 756.295,175.286 756.072,174.563 755.839,173.844 755.597,173.128 755.345,172.417 755.084,171.709 754.813,171.006 754.532,170.307 754.242,169.612 753.941,168.921 753.63,168.235 753.31,167.553 752.978,166.877 752.637,166.204 752.285,165.537 751.922,164.874 751.549,164.216 751.164,163.564 750.77,162.916 750.364,162.273 749.95,161.634 749.093,160.37 748.202,159.121 747.281,157.885 746.334,156.662 745.364,155.449 744.375,154.244 743.37,153.045 741.329,150.662 739.268,148.284 737.216,145.897 736.203,144.696 735.203,143.488 734.22,142.271 733.258,141.043 732.319,139.802 731.408,138.547 730.529,137.275 730.102,136.633 729.684,135.986 729.276,135.334 728.877,134.677 728.49,134.015 728.113,133.347 727.748,132.674 727.394,131.994 727.053,131.308 726.725,130.616 726.41,129.917 726.108,129.211 725.821,128.498 725.548,127.778 725.29,127.05 725.048,126.314 724.821,125.571 724.611,124.82 724.416,124.062 724.237,123.298 724.074,122.529 723.927,121.754 723.795,120.974 723.679,120.191 723.579,119.404 723.495,118.614 723.426,117.822 723.373,117.029 723.335,116.234 723.313,115.438 723.307,114.643 723.316,113.848 723.34,113.054 723.38,112.262 723.435,111.472 723.506,110.685 723.592,109.901 723.693,109.121 723.809,108.346 723.941,107.576 724.088,106.812 724.25,106.053 724.428,105.302 724.62,104.558 724.828,103.822 725.051,103.095 725.288,102.377 725.541,101.668 725.809,100.969 726.091,100.281 726.388,99.602 726.7,98.9332 727.025,98.2742 727.365,97.6249 727.719,96.9853 728.086,96.3553 728.467,95.7349 728.861,95.124 729.269,94.5225 729.689,93.9303 730.122,93.3474 730.568,92.7738 731.026,92.2093 731.496,91.654 731.979,91.1077 732.473,90.5703 732.98,90.0419 733.497,89.5223 734.026,89.0115 734.567,88.5094 735.118,88.016 735.68,87.5311 736.253,87.0548 736.836,86.5869 737.43,86.1275 738.033,85.6764 738.647,85.2335 739.27,84.7988 739.903,84.3723 740.546,83.9539 741.197,83.5435 741.858,83.141 742.528,82.7464 743.206,82.3597 743.892,81.9807 744.587,81.6094 745.291,81.2457 746.002,80.8896 746.721,80.541 747.447,80.1998 748.181,79.866 748.923,79.5395 750.426,78.9082 751.957,78.3053 753.512,77.7304 755.092,77.1829 756.695,76.6624 758.318,76.1683 759.962,75.7001 761.624,75.2573 763.302,74.8393 764.996,74.4458 766.704,74.076 768.425,73.7297 770.156,73.4061 771.898,73.1049 773.647,72.8254 775.404,72.5673 777.166,72.3299 778.932,72.1129 780.7,71.9155 782.47,71.7374 784.239,71.578 786.006,71.4369 787.771,71.3134 789.531,71.2072 791.284,71.1176 793.031,71.0442 794.769,70.9866 796.499,70.9448 798.221,70.9185 799.935,70.9077 801.641,70.9123 803.339,70.932 805.03,70.9668 806.713,71.0165 808.388,71.0811 810.055,71.1603 811.715,71.2541 813.368,71.3624 815.013,71.4849 816.651,71.6216 818.281,71.7723 819.904,71.937 821.52,72.1154 823.129,72.3075 824.731,72.5131 826.326,72.7321 827.914,72.9644 829.496,73.2099 831.07,73.4683 832.638,73.7397 834.199,74.0237 835.753,74.3205 837.301,74.6297 838.842,74.9513 840.377,75.2851 841.906,75.631 843.428,75.989 844.945,76.3588 846.455,76.7403 847.958,77.1334 849.456,77.538 850.948,77.9539 852.434,78.381 853.914,78.8193 855.388,79.2684 856.857,79.7284 858.32,80.1992 859.777,80.6804 861.229,81.1722 862.675,81.6742 864.116,82.1864 865.552,82.7087 866.982,83.2409 868.407,83.7829 869.827,84.3346 871.241,84.8958 872.651,85.4664 874.056,86.0463 875.455,86.6354 876.85,87.2335 878.24,87.8405 881.007,89.0807 883.754,90.3549 886.484,91.6622 889.196,93.0014 891.892,94.3717 894.571,95.7718 897.234,97.2009 899.882,98.6579 902.514,100.142 905.133,101.651 907.737,103.186 910.328,104.744 912.906,106.325 915.472,107.928 918.025,109.551 920.567,111.195 923.097,112.86 925.616,114.544 928.123,116.248 930.619,117.971 933.103,119.713 935.577,121.473 938.041,123.252 940.494,125.049 942.936,126.864 945.368,128.696 947.79,130.545 950.202,132.41 952.605,134.292 954.998,136.19 957.382,138.104 959.756,140.033 962.121,141.977 964.478,143.936 966.825,145.91 969.164,147.897 971.495,149.899 973.818,151.914 976.132,153.942 978.438,155.982 980.737,158.036 983.028,160.101 985.312,162.179 987.589,164.268 989.858,166.368 992.12,168.479 994.376,170.6 996.625,172.732 998.868,174.874 1001.1,177.026 1003.33,179.187 1005.56,181.356 1007.78,183.535 1009.99,185.722 1014.4,190.119 1018.79,194.546 1023.16,198.999 1027.51,203.477 1031.85,207.977 1036.17,212.496 1040.48,217.032 1044.77,221.581 1049.05,226.143 1053.33,230.713 1061.85,239.87 1070.34,249.031 1078.83,258.177 1083.07,262.738 1087.31,267.287 1091.55,271.822 1095.8,276.34 1100.04,280.844 1104.29,285.337 1112.78,294.304 1121.23,303.268 1125.44,307.759 1129.64,312.26 1133.82,316.774 1137.99,321.305 1142.13,325.857 1146.25,330.434 1150.35,335.038 1152.39,337.352 1154.42,339.673 1156.44,342.004 1158.46,344.344 1160.47,346.693 1162.47,349.052 1164.46,351.422 1166.44,353.801 1170.4,358.574 1174.36,363.352 1178.32,368.112 1180.32,370.479 1182.32,372.833 1184.34,375.173 1186.37,377.494 1188.42,379.795 1190.49,382.074 1192.57,384.326 1194.68,386.55 "
         id="polyline64" />
      <polyline
         fill="none"
         vector-effect="none"
         points="1205.22,396.771 1206.51,397.929 1207.82,399.075 1209.13,400.209 1210.46,401.332 1211.79,402.444 1213.13,403.545 1214.48,404.635 1215.84,405.715 1217.21,406.785 1218.58,407.844 1219.97,408.893 1221.36,409.933 1222.76,410.963 1224.16,411.983 1225.58,412.994 1227,413.997 1228.43,414.99 1229.86,415.975 1231.31,416.951 1232.76,417.919 1234.21,418.878 1235.68,419.83 1238.62,421.71 1241.59,423.561 1244.58,425.384 1247.6,427.18 1250.63,428.95 1253.69,430.697 1256.76,432.422 1259.85,434.126 1262.96,435.811 1266.08,437.478 1269.22,439.128 1272.37,440.764 1275.53,442.386 1278.7,443.996 1281.88,445.596 1285.07,447.187 1288.26,448.77 1294.67,451.92 1301.1,455.058 1307.53,458.194 1313.95,461.342 1320.36,464.513 1323.56,466.111 1326.75,467.719 1329.94,469.338 1333.11,470.971 1336.28,472.618 1339.43,474.281 1342.57,475.962 1345.7,477.661 1348.82,479.381 1351.91,481.123 1354.99,482.889 1358.06,484.679 1361.1,486.495 1364.12,488.34 1367.12,490.213 1370.1,492.118 1371.58,493.082 1373.05,494.054 1374.52,495.035 1375.98,496.025 1377.44,497.022 1378.89,498.028 1381.77,500.063 1384.63,502.128 1387.47,504.222 1390.28,506.343 1393.08,508.49 1395.85,510.662 1398.61,512.857 "
         id="polyline66" />
      <polyline
         fill="none"
         vector-effect="none"
         points="980.994,291.973 983.901,294.249 986.821,296.508 989.755,298.75 992.702,300.975 995.662,303.182 998.637,305.369 1001.63,307.537 1004.63,309.685 1007.65,311.812 1010.68,313.917 1013.73,316.001 1016.8,318.061 1019.88,320.099 1022.98,322.112 1026.1,324.101 1029.23,326.066 1032.37,328.006 1035.54,329.921 1038.72,331.811 1041.91,333.675 1045.12,335.514 1048.35,337.327 1051.58,339.113 1054.84,340.874 1058.11,342.607 1061.39,344.315 1064.69,345.995 1068,347.648 1071.32,349.273 1074.66,350.871 1078.01,352.44 1081.38,353.982 1084.76,355.495 1088.15,356.98 1091.55,358.436 1094.97,359.863 1098.39,361.261 1101.83,362.629 1105.29,363.967 1108.75,365.276 1112.22,366.554 1115.71,367.802 1119.21,369.019 1122.72,370.205 1126.23,371.359 1129.76,372.482 1133.3,373.571 1136.85,374.627 1140.41,375.649 1143.97,376.637 1147.55,377.59 1151.13,378.507 1154.72,379.389 1158.32,380.233 1161.93,381.041 1165.55,381.811 1169.17,382.543 1172.79,383.236 1174.61,383.567 1176.43,383.889 1178.25,384.201 1180.07,384.503 1181.89,384.795 1183.72,385.076 1185.54,385.348 1187.37,385.609 1189.19,385.86 1191.02,386.1 1192.85,386.33 1194.68,386.55 "
         id="polyline68" />
      <polyline
         fill="none"
         vector-effect="none"
         points="980.994,291.973 982.276,293.469 983.588,294.941 984.928,296.389 986.295,297.816 987.685,299.221 989.098,300.607 990.532,301.975 991.985,303.326 993.454,304.661 994.938,305.981 996.436,307.288 997.944,308.582 999.462,309.866 1000.99,311.14 1004.05,313.663 1007.13,316.157 1010.22,318.623 1013.33,321.061 1016.46,323.47 1019.6,325.851 1022.76,328.204 1025.94,330.529 1029.14,332.825 1032.36,335.093 1035.61,337.333 1038.87,339.545 1042.16,341.729 1045.48,343.885 1048.82,346.011 1052.18,348.108 1055.57,350.174 1058.98,352.208 1060.69,353.213 1062.41,354.209 1064.13,355.197 1065.86,356.176 1067.6,357.147 1069.34,358.108 1071.08,359.061 1072.84,360.005 1074.59,360.939 1076.35,361.863 1078.12,362.779 1079.89,363.684 1081.67,364.58 1083.45,365.466 1085.24,366.342 1087.03,367.208 1088.83,368.063 1090.63,368.908 1092.44,369.743 1094.25,370.567 1096.06,371.38 1097.88,372.182 1099.71,372.973 1101.53,373.753 1103.37,374.521 1105.2,375.279 1107.05,376.024 1108.89,376.758 1110.74,377.48 1112.6,378.19 1114.45,378.888 1116.32,379.574 1118.18,380.247 1120.05,380.908 1121.92,381.557 1123.8,382.193 1125.68,382.816 1127.57,383.425 1129.46,384.022 1131.35,384.606 1133.24,385.176 1135.14,385.733 1137.04,386.276 1138.95,386.805 1140.86,387.321 1142.77,387.822 1144.68,388.31 1146.6,388.783 1148.52,389.242 1150.44,389.686 1152.37,390.116 1154.3,390.53 1156.23,390.93 1158.17,391.316 1160.11,391.686 1162.05,392.043 1163.99,392.385 1165.93,392.714 1167.88,393.029 1169.83,393.33 1171.78,393.619 1173.74,393.895 1175.69,394.158 1177.65,394.409 1179.61,394.648 1181.57,394.875 1183.54,395.091 1185.5,395.295 1187.47,395.488 1189.43,395.671 1191.4,395.843 1193.37,396.004 1197.32,396.298 1201.27,396.553 1205.22,396.771 "
         id="polyline70" />
      <polyline
         fill="none"
         vector-effect="none"
         points="1055.98,466.374 1054.58,469.246 1053.18,472.099 1051.76,474.935 1050.34,477.755 1048.91,480.558 1047.47,483.345 1046.03,486.118 1044.58,488.876 1043.12,491.62 1041.66,494.35 1040.18,497.068 1038.71,499.774 1037.22,502.467 1035.73,505.15 1034.23,507.822 1032.73,510.484 1031.22,513.137 1029.7,515.781 1026.65,521.044 1023.57,526.279 1020.47,531.49 1017.35,536.681 1015.78,539.272 1014.2,541.877 1013.4,543.193 1012.59,544.522 1011.78,545.868 1010.95,547.232 1010.11,548.619 1009.25,550.031 1008.38,551.472 1007.5,552.945 "
         id="polyline72" />
      <polyline
         fill="none"
         vector-effect="none"
         points="927.955,488.232 924.922,490.597 921.882,492.938 918.835,495.254 915.781,497.546 912.719,499.816 909.651,502.064 906.576,504.29 903.495,506.496 900.406,508.683 897.311,510.851 894.21,513 891.102,515.133 887.988,517.249 884.867,519.349 881.74,521.434 878.607,523.505 875.468,525.562 872.323,527.607 869.172,529.64 866.015,531.662 862.852,533.673 859.684,535.675 853.33,539.654 850.138,541.634 846.927,543.614 843.687,545.599 842.053,546.595 840.408,547.593 838.751,548.594 837.082,549.6 835.398,550.61 833.699,551.626 831.984,552.647 830.251,553.675 828.5,554.709 826.729,555.751 "
         id="polyline74" />
      <polyline
         fill="none"
         vector-effect="none"
         points="945.199,491.593 942.549,493.532 939.9,495.459 937.252,497.375 934.605,499.28 929.313,503.06 924.02,506.803 918.724,510.512 913.421,514.19 908.109,517.842 902.785,521.471 897.447,525.08 892.09,528.674 886.713,532.255 881.312,535.827 875.885,539.394 873.15,541.189 871.771,542.098 870.38,543.018 868.976,543.951 867.557,544.901 866.119,545.87 864.661,546.862 863.18,547.878 861.675,548.921 860.912,549.454 860.142,549.995 859.365,550.544 858.58,551.102 "
         id="polyline76" />
      <polyline
         fill="none"
         vector-effect="none"
         points="1072.94,457.421 1071.02,460.404 1069.13,463.387 1067.27,466.37 1065.43,469.353 1063.62,472.337 1061.84,475.32 1060.08,478.305 1058.34,481.29 1056.62,484.277 1054.92,487.265 1053.24,490.253 1051.57,493.244 1049.92,496.236 1048.28,499.23 1046.65,502.226 1045.04,505.224 1041.83,511.228 1038.65,517.242 1035.48,523.269 1033.91,526.291 1032.33,529.325 1030.77,532.377 1029.23,535.453 1027.7,538.559 1026.94,540.125 1026.19,541.7 1025.45,543.286 1024.71,544.883 1023.98,546.491 1023.25,548.112 1022.54,549.747 1021.83,551.395 1021.13,553.057 1020.45,554.735 "
         id="polyline78" />
      <polyline
         fill="none"
         vector-effect="none"
         points="1071.52,562.054 1053.36,559.021 1044.27,557.528 1039.72,556.795 1035.17,556.074 1030.62,555.369 1026.07,554.681 1021.51,554.014 1016.95,553.368 1012.39,552.747 1007.82,552.153 1003.25,551.586 998.679,551.048 994.101,550.538 989.519,550.056 984.935,549.605 980.347,549.183 975.756,548.792 971.163,548.432 966.567,548.103 961.969,547.806 957.369,547.542 952.766,547.311 948.162,547.114 943.556,546.95 938.948,546.821 934.339,546.727 929.728,546.668 925.117,546.646 920.504,546.659 915.891,546.71 911.278,546.797 906.665,546.922 902.052,547.083 897.441,547.281 892.831,547.517 888.223,547.789 883.617,548.099 879.013,548.447 874.413,548.832 869.816,549.255 865.223,549.716 860.634,550.214 856.05,550.751 851.47,551.325 846.896,551.938 842.328,552.589 837.766,553.278 833.211,554.006 828.663,554.773 824.122,555.578 819.589,556.422 815.064,557.305 812.804,557.761 810.547,558.226 808.293,558.702 806.04,559.187 803.79,559.682 801.542,560.187 797.053,561.225 792.573,562.296 788.099,563.393 783.631,564.513 779.167,565.649 "
         id="polyline80" />
      <polyline
         fill="none"
         vector-effect="none"
         points="1066.12,582.626 1057.34,580.902 1048.56,579.198 1044.17,578.36 1039.77,577.535 1035.38,576.724 1030.98,575.93 1026.58,575.156 1022.18,574.405 1017.78,573.677 1013.37,572.977 1008.96,572.305 1004.55,571.666 1000.13,571.06 995.714,570.491 993.503,570.221 991.291,569.961 989.078,569.711 986.864,569.472 984.648,569.244 982.432,569.027 980.214,568.822 977.995,568.628 975.775,568.446 973.554,568.276 971.332,568.118 969.108,567.972 966.884,567.837 964.658,567.714 962.432,567.602 960.205,567.501 957.976,567.412 955.747,567.334 953.518,567.266 951.287,567.21 949.056,567.164 946.824,567.13 944.591,567.105 942.358,567.092 940.124,567.089 937.89,567.096 935.656,567.113 933.421,567.141 928.949,567.226 924.477,567.351 920.004,567.514 915.531,567.716 911.057,567.955 906.584,568.23 902.111,568.541 897.639,568.887 893.168,569.268 888.699,569.681 884.232,570.128 879.767,570.606 875.304,571.116 870.845,571.656 866.388,572.226 861.936,572.824 857.487,573.451 853.042,574.105 848.603,574.786 844.168,575.493 839.738,576.225 835.314,576.982 830.896,577.762 826.484,578.565 822.078,579.39 817.679,580.237 813.287,581.105 808.9,581.995 804.52,582.905 800.145,583.835 795.777,584.786 791.414,585.756 787.056,586.746 782.704,587.754 "
         id="polyline82" />
      <polyline
         fill="none"
         vector-effect="none"
         points="1368.14,504.294 1365.32,504.351 1362.49,504.38 1359.65,504.377 1356.82,504.34 1355.4,504.307 1353.98,504.264 1352.56,504.211 1351.14,504.147 1349.71,504.072 1348.29,503.985 1346.86,503.886 1345.43,503.774 1344,503.65 1342.58,503.511 1341.15,503.357 1339.72,503.185 1338.3,502.995 1336.88,502.784 1335.47,502.552 1334.06,502.297 1332.66,502.017 1331.28,501.711 1329.9,501.377 1328.53,501.015 1327.18,500.622 1325.84,500.197 1324.52,499.738 1323.21,499.245 1322.56,498.984 1321.92,498.715 1321.28,498.436 1320.65,498.147 1320.02,497.849 1319.4,497.542 1318.16,496.901 1316.95,496.226 1315.75,495.518 1314.56,494.78 1313.39,494.014 1312.24,493.22 1311.09,492.401 1309.96,491.559 1308.84,490.694 1307.73,489.809 1306.63,488.906 1305.54,487.987 1304.46,487.052 1303.38,486.104 1302.31,485.144 1300.19,483.198 1298.08,481.226 1295.98,479.243 1293.88,477.263 1291.78,475.298 1289.66,473.355 1287.54,471.434 1285.41,469.538 1283.26,467.668 1281.1,465.825 1278.92,464.012 1276.73,462.229 1274.52,460.478 1273.4,459.615 1272.28,458.761 1271.16,457.916 1270.03,457.079 1268.89,456.252 1267.75,455.434 1266.6,454.626 1265.45,453.827 1264.28,453.039 1263.12,452.26 1261.94,451.492 1260.76,450.735 1259.57,449.988 1258.37,449.252 1257.16,448.527 1255.95,447.813 1254.73,447.11 1253.51,446.417 1252.27,445.735 1251.03,445.065 1249.78,444.404 1248.53,443.755 1247.27,443.117 1246,442.489 1244.73,441.871 1243.45,441.265 1242.17,440.669 1240.88,440.084 1239.58,439.509 1238.28,438.945 1236.98,438.392 1235.66,437.849 1234.35,437.316 1233.02,436.794 1231.7,436.283 1230.36,435.782 1229.03,435.292 1227.69,434.812 1226.34,434.342 1224.99,433.883 1223.64,433.434 1222.28,432.995 1220.92,432.567 1219.55,432.149 1218.18,431.742 1216.81,431.345 1215.43,430.957 1214.06,430.581 1212.67,430.214 1211.29,429.858 1209.9,429.511 1208.51,429.175 1207.11,428.849 1205.72,428.534 1204.32,428.228 1202.92,427.932 1201.52,427.647 1200.11,427.371 1198.7,427.106 1197.29,426.85 1195.88,426.604 1194.47,426.369 1193.06,426.143 1191.64,425.927 1188.81,425.525 1185.97,425.163 1183.13,424.84 1180.28,424.556 1177.43,424.311 1174.57,424.104 1171.72,423.937 1168.86,423.808 1166,423.717 1163.14,423.664 1160.28,423.65 1157.42,423.673 1154.57,423.734 1151.71,423.833 1148.86,423.969 1146.02,424.143 1143.17,424.353 1140.33,424.601 1137.5,424.885 1134.67,425.206 1131.85,425.563 1129.03,425.957 1126.22,426.387 1123.42,426.853 1120.63,427.355 1117.85,427.893 1115.08,428.466 1112.32,429.074 1109.57,429.718 1106.83,430.397 1104.1,431.111 1101.39,431.859 1098.69,432.639 1096,433.45 1093.31,434.291 1090.64,435.159 1087.98,436.054 1085.32,436.975 1082.67,437.918 1080.03,438.884 1077.39,439.87 1074.76,440.875 1072.14,441.898 1069.51,442.937 1066.89,443.99 1064.28,445.057 1061.66,446.135 1059.04,447.223 1053.81,449.424 1048.58,451.648 1043.33,453.882 1038.07,456.115 1032.79,458.335 1030.14,459.436 1027.48,460.528 1024.81,461.609 1022.14,462.676 1019.46,463.724 1016.78,464.753 1014.08,465.757 1011.39,466.736 1008.68,467.685 1005.97,468.601 1003.25,469.482 1001.89,469.909 1000.53,470.325 999.166,470.731 997.801,471.127 996.435,471.511 995.067,471.884 993.698,472.246 992.327,472.595 990.955,472.931 989.581,473.255 988.206,473.565 986.83,473.862 985.453,474.145 984.074,474.413 982.694,474.666 981.312,474.905 979.93,475.128 978.546,475.335 977.161,475.525 975.774,475.7 974.387,475.857 972.998,475.997 971.608,476.119 970.217,476.223 968.824,476.308 967.431,476.375 966.036,476.424 964.641,476.454 963.244,476.466 961.847,476.46 960.449,476.436 959.051,476.395 957.652,476.337 956.253,476.262 954.853,476.17 953.454,476.062 952.054,475.938 950.654,475.797 949.254,475.641 947.855,475.469 946.456,475.281 945.057,475.079 943.659,474.861 942.261,474.629 940.864,474.383 939.468,474.122 938.073,473.847 936.679,473.559 935.285,473.257 933.893,472.941 932.503,472.613 931.113,472.271 929.725,471.917 928.339,471.551 926.954,471.172 925.571,470.781 924.19,470.379 922.811,469.965 921.434,469.54 920.059,469.103 918.686,468.656 917.315,468.198 915.947,467.73 914.582,467.252 913.219,466.764 911.859,466.266 909.147,465.242 906.447,464.181 903.76,463.087 901.087,461.96 898.428,460.802 895.784,459.615 893.156,458.401 890.544,457.162 887.95,455.9 885.374,454.614 882.815,453.307 880.274,451.977 877.751,450.624 875.245,449.249 872.756,447.852 870.285,446.433 867.83,444.992 865.393,443.529 862.974,442.044 860.571,440.537 858.185,439.008 855.816,437.458 853.463,435.886 851.128,434.293 848.809,432.679 846.507,431.043 844.221,429.386 841.952,427.708 839.699,426.008 837.462,424.288 835.241,422.547 833.037,420.785 830.849,419.002 828.677,417.199 826.52,415.375 824.38,413.53 822.255,411.666 820.146,409.781 818.053,407.875 815.975,405.95 813.914,404.004 811.871,402.037 809.846,400.049 807.841,398.04 805.856,396.009 803.894,393.956 801.955,391.881 800.039,389.784 798.149,387.663 796.286,385.52 794.449,383.352 792.641,381.161 790.863,378.946 789.115,376.707 788.253,375.578 787.399,374.442 786.553,373.301 785.715,372.153 784.886,370.999 784.066,369.838 783.254,368.671 782.451,367.498 781.657,366.318 780.873,365.131 780.097,363.938 779.331,362.739 778.575,361.532 777.828,360.319 777.091,359.1 776.365,357.873 775.648,356.64 774.941,355.4 774.245,354.153 773.559,352.899 772.884,351.638 772.22,350.37 771.566,349.095 770.924,347.813 770.293,346.524 769.673,345.227 769.065,343.924 768.468,342.614 767.884,341.297 767.312,339.973 766.752,338.644 766.206,337.308 765.672,335.967 765.152,334.621 764.646,333.269 764.154,331.912 763.676,330.55 763.212,329.184 762.764,327.814 762.33,326.439 761.912,325.061 761.51,323.679 761.124,322.294 760.754,320.906 760.4,319.515 760.063,318.121 759.744,316.725 759.441,315.326 759.157,313.926 758.89,312.524 758.641,311.121 758.411,309.716 758.2,308.311 758.008,306.904 757.835,305.498 757.681,304.091 757.548,302.683 757.435,301.277 757.342,299.87 757.269,298.464 757.218,297.06 757.188,295.656 757.18,294.253 757.193,292.853 757.229,291.454 757.287,290.057 757.367,288.663 757.47,287.27 757.593,285.88 757.736,284.492 757.899,283.105 758.081,281.72 758.28,280.337 758.497,278.955 758.729,277.575 758.977,276.195 759.24,274.817 759.517,273.439 759.807,272.062 760.109,270.686 760.422,269.31 760.746,267.935 761.423,265.185 762.134,262.434 762.871,259.683 763.628,256.93 764.4,254.173 765.96,248.646 766.736,245.874 767.501,243.094 768.248,240.306 768.974,237.511 769.675,234.709 770.348,231.902 770.989,229.09 771.594,226.275 771.883,224.867 772.161,223.458 772.429,222.049 772.686,220.64 772.931,219.231 773.165,217.821 773.386,216.412 773.595,215.004 773.79,213.595 773.972,212.188 774.14,210.781 774.293,209.375 774.431,207.97 774.554,206.566 774.661,205.163 774.752,203.762 774.827,202.362 774.884,200.964 774.924,199.567 774.946,198.173 774.949,196.78 774.934,195.39 774.899,194.001 774.845,192.616 774.77,191.232 774.675,189.852 774.559,188.474 774.422,187.099 774.263,185.727 774.083,184.358 773.881,182.991 773.656,181.627 773.41,180.267 773.141,178.908 772.849,177.553 772.535,176.201 772.197,174.851 771.836,173.505 771.452,172.161 771.044,170.82 770.612,169.482 770.156,168.146 769.675,166.814 769.17,165.484 768.64,164.158 768.086,162.834 767.506,161.513 766.9,160.195 766.269,158.88 765.613,157.567 764.93,156.258 764.221,154.952 763.486,153.648 762.724,152.347 761.935,151.05 761.119,149.755 760.276,148.463 759.406,147.174 758.514,145.888 757.605,144.604 755.752,142.045 753.885,139.497 752.959,138.226 752.043,136.957 751.143,135.691 750.264,134.427 749.409,133.165 748.584,131.905 747.794,130.647 747.414,130.019 747.044,129.391 746.685,128.764 746.337,128.137 746.002,127.51 745.68,126.884 745.371,126.258 745.076,125.633 744.795,125.008 744.53,124.384 744.28,123.759 744.047,123.136 743.831,122.512 743.633,121.889 743.452,121.266 743.291,120.644 743.148,120.022 743.026,119.4 742.924,118.778 742.843,118.157 742.784,117.536 742.747,116.915 742.734,116.294 742.743,115.674 742.777,115.054 742.836,114.434 742.919,113.815 743.028,113.196 743.162,112.577 743.319,111.959 743.501,111.343 743.705,110.728 743.932,110.115 744.181,109.503 744.451,108.894 744.743,108.288 745.054,107.684 745.386,107.084 745.736,106.486 746.106,105.893 746.494,105.303 746.899,104.717 747.322,104.136 747.761,103.56 748.217,102.988 748.688,102.422 749.174,101.861 749.674,101.306 750.189,100.757 750.716,100.215 751.257,99.6786 751.81,99.1495 752.375,98.6274 752.951,98.1128 753.538,97.6058 754.135,97.1068 754.742,96.616 755.357,96.1337 755.982,95.6601 756.614,95.1955 757.254,94.7403 757.901,94.2946 758.554,93.8587 759.214,93.433 759.878,93.0176 760.548,92.6129 761.222,92.219 761.899,91.8364 762.58,91.4652 763.263,91.1058 763.949,90.7583 764.636,90.4231 765.324,90.1005 766.013,89.7903 766.703,89.4925 767.394,89.2067 768.086,88.9329 768.778,88.6708 769.472,88.4202 770.166,88.181 770.86,87.9529 771.556,87.7358 772.252,87.5295 772.949,87.3337 773.646,87.1482 774.345,86.973 775.743,86.6522 777.143,86.3698 778.546,86.1242 779.951,85.9139 781.357,85.7373 782.766,85.5929 784.175,85.479 785.587,85.3943 786.999,85.337 788.413,85.3057 789.827,85.2987 791.243,85.3146 792.659,85.3518 794.075,85.4088 795.492,85.4839 796.908,85.5757 798.325,85.6825 799.742,85.8028 801.158,85.9352 802.574,86.0779 805.404,86.3892 808.23,86.732 811.053,87.1064 813.872,87.5122 816.686,87.9494 819.495,88.418 822.299,88.9177 825.097,89.4487 827.888,90.0108 830.673,90.6039 833.45,91.228 836.22,91.883 838.981,92.5689 841.734,93.2856 844.478,94.033 847.212,94.8111 849.936,95.6197 852.65,96.4589 855.353,97.3285 858.045,98.2286 860.725,99.1589 863.393,100.12 866.048,101.11 868.69,102.131 871.318,103.182 873.933,104.263 876.533,105.374 879.118,106.515 881.688,107.686 884.241,108.886 886.779,110.116 889.302,111.375 891.808,112.662 894.299,113.977 896.776,115.319 899.237,116.688 901.684,118.083 904.116,119.504 906.535,120.95 908.939,122.42 911.33,123.915 913.707,125.433 916.071,126.973 918.422,128.536 920.76,130.121 923.086,131.727 925.399,133.354 927.701,135.001 929.99,136.668 932.268,138.353 934.535,140.057 936.79,141.779 939.034,143.518 941.268,145.274 943.491,147.047 945.705,148.835 947.908,150.638 950.101,152.456 952.285,154.288 954.459,156.134 956.625,157.992 958.781,159.863 960.929,161.746 963.069,163.64 965.201,165.545 967.324,167.46 969.44,169.385 971.549,171.319 973.65,173.262 975.744,175.212 977.832,177.17 981.987,181.106 986.119,185.066 990.228,189.044 994.317,193.037 998.386,197.041 1002.44,201.053 1006.47,205.074 1010.49,209.103 1014.5,213.14 1018.49,217.184 1022.46,221.234 1026.43,225.291 1030.38,229.353 1034.32,233.42 1038.25,237.493 1042.17,241.569 1049.99,249.733 1057.79,257.908 1065.56,266.09 1081.08,282.46 1088.83,290.641 1096.6,298.814 1104.38,306.974 1112.18,315.119 1120,323.244 1123.93,327.298 1127.87,331.346 1131.82,335.386 1135.77,339.419 1139.75,343.442 1143.73,347.451 1147.74,351.443 1151.77,355.416 1155.82,359.366 1159.89,363.29 "
         id="polyline84" />
      <polyline
         fill="none"
         vector-effect="none"
         points="1159.89,363.29 1158.17,362.967 1156.45,362.633 1154.74,362.287 1153.02,361.93 1151.31,361.563 1149.6,361.185 1146.19,360.399 1142.78,359.576 1139.39,358.718 1136.01,357.827 1132.63,356.905 1129.27,355.953 1125.92,354.97 1122.58,353.958 1119.24,352.916 1115.92,351.847 1112.61,350.75 1109.31,349.626 1106.01,348.476 1102.73,347.3 1099.46,346.099 1096.19,344.873 1092.94,343.624 1089.69,342.352 1086.45,341.058 1083.22,339.741 1080,338.404 1076.79,337.046 1073.58,335.668 1070.39,334.271 1067.2,332.856 1064.02,331.422 1060.85,329.972 1057.68,328.505 1054.52,327.021 1051.38,325.523 1048.23,324.009 1045.1,322.482 1041.97,320.941 1038.85,319.387 1035.74,317.82 1032.63,316.239 1029.53,314.644 1026.44,313.036 1023.36,311.413 1020.29,309.777 1017.22,308.126 1014.16,306.461 1011.11,304.781 1008.06,303.087 1005.03,301.378 1002,299.655 998.981,297.916 995.97,296.162 992.968,294.393 989.974,292.609 986.99,290.809 984.013,288.994 981.046,287.163 978.088,285.316 975.141,283.451 972.205,281.569 969.281,279.667 966.372,277.744 963.476,275.801 960.597,273.835 957.734,271.845 "
         id="polyline86" />
      <polyline
         fill="none"
         vector-effect="none"
         points="957.734,271.845 959.141,273.607 960.557,275.362 961.981,277.109 963.414,278.85 964.856,280.583 966.308,282.308 967.768,284.025 969.238,285.735 970.717,287.436 972.206,289.129 973.704,290.813 975.212,292.488 976.73,294.154 978.258,295.812 979.796,297.459 981.344,299.098 982.903,300.726 984.472,302.344 986.051,303.953 987.64,305.551 989.24,307.139 990.85,308.717 992.47,310.285 994.1,311.843 995.74,313.39 997.389,314.928 999.049,316.454 1000.72,317.971 1002.4,319.477 1004.08,320.973 1005.78,322.458 1007.49,323.933 1009.2,325.398 1010.93,326.852 1012.66,328.295 1014.41,329.728 1016.16,331.151 1017.92,332.563 1019.69,333.964 1021.47,335.354 1023.25,336.734 1025.05,338.103 1026.85,339.462 1028.66,340.809 1030.48,342.146 1032.31,343.472 1034.15,344.787 1035.99,346.091 1037.84,347.385 1039.7,348.667 1041.57,349.938 1043.44,351.199 1045.32,352.448 1047.21,353.686 1049.11,354.913 1051.02,356.129 1052.93,357.333 1054.85,358.526 1056.77,359.707 1058.71,360.876 1060.65,362.034 1062.59,363.179 1064.55,364.313 1066.51,365.434 1068.48,366.544 1070.45,367.641 1072.43,368.726 1074.42,369.798 1076.42,370.858 1078.42,371.905 1080.43,372.939 1082.44,373.961 1084.47,374.969 1086.49,375.965 1088.53,376.947 1090.57,377.917 1092.61,378.873 1094.67,379.815 1096.73,380.745 1098.79,381.66 1100.86,382.562 1102.94,383.45 1105.02,384.325 1107.11,385.185 1109.21,386.032 1111.31,386.864 1113.41,387.682 1115.53,388.486 1117.64,389.276 1119.77,390.051 1121.89,390.811 1124.03,391.557 1126.17,392.288 1128.31,393.004 1130.46,393.705 1132.62,394.391 1134.78,395.063 1136.94,395.719 1139.11,396.361 1141.29,396.987 1143.47,397.599 1145.65,398.195 1147.84,398.777 1150.03,399.344 1152.22,399.896 1154.42,400.433 1156.63,400.955 1158.83,401.462 1161.04,401.954 1163.26,402.432 1165.47,402.894 1167.69,403.341 1169.92,403.774 1172.14,404.192 1174.37,404.595 1176.6,404.983 1178.83,405.356 1181.07,405.714 1183.31,406.057 1185.55,406.385 1187.79,406.699 1190.03,406.997 1192.28,407.281 1194.53,407.55 1196.77,407.804 1199.02,408.043 1201.27,408.267 1203.53,408.477 "
         id="polyline88" />
      <polyline
         fill="none"
         vector-effect="none"
         points="1203.53,408.477 1205.69,410.547 1207.87,412.595 1210.08,414.614 1211.19,415.612 1212.31,416.601 1213.43,417.581 1214.57,418.55 1215.71,419.509 1216.85,420.456 1218.01,421.391 1219.18,422.314 1220.35,423.223 1221.53,424.119 1222.73,425 1223.93,425.865 1225.15,426.716 1226.37,427.553 1227.6,428.375 1228.85,429.184 1230.1,429.98 1231.36,430.763 1232.63,431.533 1233.9,432.292 1235.19,433.039 1236.48,433.776 1237.77,434.502 1239.08,435.218 1240.39,435.925 1241.71,436.622 1244.36,437.991 1247.03,439.33 1249.72,440.64 1252.43,441.927 1255.15,443.194 1257.88,444.444 1260.61,445.681 1263.36,446.908 1268.85,449.349 1274.34,451.794 1277.08,453.028 1279.8,454.273 1282.52,455.531 1285.23,456.801 1287.93,458.083 1290.62,459.377 1293.31,460.683 1295.98,462.002 1298.65,463.334 1301.31,464.677 1303.96,466.034 1306.61,467.402 1309.25,468.783 1311.88,470.177 1314.51,471.584 1317.13,473.003 1319.74,474.434 1322.35,475.879 1324.95,477.336 1327.54,478.806 1330.13,480.289 1332.72,481.784 1335.29,483.293 1337.87,484.814 1340.44,486.348 1343,487.896 1345.56,489.456 1348.12,491.031 1350.66,492.621 1353.2,494.227 1355.73,495.852 1358.24,497.496 1360.75,499.161 1363.23,500.849 1365.7,502.559 1368.14,504.294 "
         id="polyline90" />
      <polyline
         fill="none"
         vector-effect="none"
         points="667.139,98.9402 669.026,98.5734 670.915,98.2195 672.806,97.8795 674.701,97.5541 676.597,97.2442 678.496,96.9506 680.396,96.6743 682.298,96.4159 684.202,96.1764 686.108,95.9566 688.014,95.7574 689.922,95.5796 691.831,95.424 693.74,95.2915 695.65,95.1829 697.56,95.0991 699.471,95.0409 701.381,95.0091 703.293,95.0025 705.206,95.0193 707.123,95.0577 709.043,95.1157 710.969,95.1913 712.902,95.2827 714.842,95.3879 716.791,95.5051 718.75,95.6322 720.72,95.7675 722.703,95.9089 724.699,96.0546 726.709,96.2027 728.735,96.3511 "
         id="polyline92" />
      <polyline
         fill="none"
         vector-effect="none"
         points="667.162,98.8945 668.834,100.126 670.514,101.347 672.204,102.554 673.905,103.748 675.615,104.926 677.336,106.087 679.069,107.229 680.814,108.352 682.571,109.453 684.342,110.532 686.125,111.587 687.923,112.616 689.735,113.618 691.561,114.596 693.402,115.549 695.258,116.479 697.127,117.387 699.012,118.276 700.911,119.145 702.825,119.997 704.753,120.833 706.697,121.654 708.654,122.461 710.627,123.257 712.615,124.041 714.617,124.816 716.634,125.582 718.666,126.342 720.713,127.096 722.775,127.846 724.852,128.593 726.944,129.339 "
         id="polyline94" />
      <polyline
         fill="none"
         vector-effect="none"
         points="779.167,565.649 782.704,587.754 "
         id="polyline96" />
      <polyline
         fill="none"
         vector-effect="none"
         points="1066.12,582.626 1071.52,562.054 "
         id="polyline98" />
    </g>
    <g
       fill="none"
       stroke="none"
       stroke-opacity="1"
       stroke-width="1"
       stroke-linecap="square"
       stroke-linejoin="bevel"
       font-family="'MS Shell Dlg 2'"
       font-size="17.75px"
       font-weight="400"
       font-style="normal"
       id="g102" />
  </g>
  <metadata
     id="metadata233">
    <rdf:RDF>
      <cc:Work
         rdf:about="">
        <dc:title>Qt SVG Document</dc:title>
      </cc:Work>
    </rdf:RDF>
  </metadata>
</svg>
