<?xml version="1.0" encoding="UTF-8" standalone="no"?>
<svg
   width="206.41258mm"
   height="40.215584mm"
   viewBox="0 0 1153.9591 224.82744"
   version="1.2"
   id="svg172"
   sodipodi:docname="Logotipo_11.svg"
   inkscape:version="1.2 (dc2aedaf03, 2022-05-15)"
   xmlns:inkscape="http://www.inkscape.org/namespaces/inkscape"
   xmlns:sodipodi="http://sodipodi.sourceforge.net/DTD/sodipodi-0.dtd"
   xmlns="http://www.w3.org/2000/svg"
   xmlns:svg="http://www.w3.org/2000/svg"
   xmlns:rdf="http://www.w3.org/1999/02/22-rdf-syntax-ns#"
   xmlns:cc="http://creativecommons.org/ns#"
   xmlns:dc="http://purl.org/dc/elements/1.1/">
  <sodipodi:namedview
     id="namedview174"
     pagecolor="#ffffff"
     bordercolor="#000000"
     borderopacity="0.25"
     inkscape:showpageshadow="2"
     inkscape:pageopacity="0.0"
     inkscape:pagecheckerboard="true"
     inkscape:deskcolor="#d1d1d1"
     inkscape:document-units="mm"
     showgrid="false"
     inkscape:zoom="1.2895084"
     inkscape:cx="423.80491"
     inkscape:cy="75.610208"
     inkscape:window-width="1920"
     inkscape:window-height="1001"
     inkscape:window-x="-9"
     inkscape:window-y="-9"
     inkscape:window-maximized="1"
     inkscape:current-layer="svg172" />
  <title
     id="title2">Qt SVG Document</title>
  <desc
     id="desc4">Generated with Qt</desc>
  <defs
     id="defs6">
    <clipPath
       clipPathUnits="userSpaceOnUse"
       id="clipPath459">
      <rect
         style="fill:none;stroke:#0000d2;stroke-width:1.48149"
         id="rect461"
         width="1153.9609"
         height="224.82744"
         x="306.26852"
         y="220.23911" />
    </clipPath>
  </defs>
  <g
     fill="none"
     stroke="#000000"
     stroke-width="1"
     fill-rule="evenodd"
     stroke-linecap="square"
     stroke-linejoin="bevel"
     id="g170"
     clip-path="url(#clipPath459)"
     transform="translate(-306.27003,-220.23911)">
    <g
       fill="none"
       fill-opacity="1"
       stroke="none"
       font-family="'MS Shell Dlg 2'"
       font-size="17.75px"
       font-weight="400"
       font-style="normal"
       id="g10">
      <rect
         x="0"
         y="0"
         width="1864"
         height="662"
         id="rect8" />
    </g>
    <g
       fill="none"
       stroke="none"
       stroke-opacity="1"
       stroke-width="1"
       stroke-linecap="square"
       stroke-linejoin="bevel"
       font-family="'MS Shell Dlg 2'"
       font-size="17.75px"
       font-weight="400"
       font-style="normal"
       id="g12" />
    <g
       fill="none"
       fill-opacity="0"
       stroke="none"
       stroke-opacity="0"
       stroke-width="1"
       stroke-linecap="butt"
       stroke-linejoin="miter"
       stroke-miterlimit="2"
       font-family="'MS Shell Dlg 2'"
       font-size="17.75px"
       font-weight="400"
       font-style="normal"
       id="g14" />
    <g
       fill="none"
       fill-opacity="0"
       stroke="none"
       stroke-opacity="0"
       stroke-width="1"
       stroke-linecap="butt"
       stroke-linejoin="miter"
       stroke-miterlimit="2"
       font-family="'MS Shell Dlg 2'"
       font-size="17.75px"
       font-weight="400"
       font-style="normal"
       id="g16" />
    <g
       fill="#f8f9fa"
       fill-opacity="1"
       stroke="#f8f9fa"
       stroke-opacity="1"
       stroke-width="1"
       stroke-linecap="square"
       stroke-linejoin="bevel"
       font-family="'MS Shell Dlg 2'"
       font-size="17.75px"
       font-weight="400"
       font-style="normal"
       id="g18" />
    <g
       fill="#f8f9fa"
       fill-opacity="1"
       stroke="#f8f9fa"
       stroke-opacity="1"
       stroke-width="1"
       stroke-linecap="butt"
       stroke-linejoin="miter"
       stroke-miterlimit="2"
       font-family="'MS Shell Dlg 2'"
       font-size="17.75px"
       font-weight="400"
       font-style="normal"
       id="g22">
      <path
         vector-effect="non-scaling-stroke"
         fill-rule="evenodd"
         d="m 517.394,372.549 -0.02,0.575 -0.059,0.573 -0.098,0.567 -0.136,0.56 -0.174,0.548 -0.211,0.536 -0.248,0.52 -0.282,0.502 -0.316,0.481 -0.347,0.459 -0.379,0.434 -0.407,0.407 -0.434,0.378 -0.459,0.348 -0.481,0.316 -0.502,0.282 -0.52,0.248 -0.536,0.211 -0.548,0.174 -0.56,0.136 -0.567,0.098 -0.573,0.059 -0.575,0.02 h -42.209 v 42.209 l -0.02,0.575 -0.059,0.573 -0.098,0.567 -0.136,0.56 -0.174,0.548 -0.211,0.536 -0.248,0.52 -0.282,0.502 -0.316,0.481 -0.347,0.459 -0.379,0.434 -0.407,0.407 -0.434,0.378 -0.459,0.348 -0.481,0.316 -0.502,0.282 -0.52,0.248 -0.535,0.211 -0.549,0.174 -0.56,0.136 -0.567,0.098 -0.573,0.059 -0.575,0.02 h -81.026 l -0.575,-0.02 -0.573,-0.059 -0.567,-0.098 -0.56,-0.136 -0.548,-0.174 -0.536,-0.211 -0.52,-0.248 -0.502,-0.282 -0.481,-0.316 -0.459,-0.348 -0.434,-0.378 -0.407,-0.407 -0.378,-0.434 -0.348,-0.459 -0.316,-0.481 -0.282,-0.502 -0.248,-0.52 -0.211,-0.536 -0.174,-0.548 -0.136,-0.56 -0.098,-0.567 -0.059,-0.573 -0.02,-0.575 v -42.209 h -42.209 l -0.575,-0.02 -0.573,-0.059 -0.567,-0.098 -0.56,-0.136 -0.548,-0.174 -0.536,-0.211 -0.52,-0.248 -0.502,-0.282 -0.481,-0.316 -0.459,-0.348 -0.434,-0.378 -0.407,-0.407 -0.378,-0.434 -0.348,-0.459 -0.316,-0.481 -0.282,-0.502 -0.248,-0.52 -0.211,-0.536 -0.174,-0.548 -0.136,-0.56 -0.098,-0.567 -0.059,-0.573 -0.02,-0.575 v -81.026 l 0.02,-0.575 0.059,-0.573 0.098,-0.567 0.136,-0.56 0.174,-0.548 0.211,-0.536 0.248,-0.52 0.282,-0.502 0.316,-0.481 0.348,-0.459 0.378,-0.434 0.407,-0.407 0.434,-0.379 0.459,-0.347 0.481,-0.316 0.502,-0.282 0.52,-0.248 0.536,-0.211 0.548,-0.174 0.56,-0.136 0.567,-0.098 0.573,-0.059 0.575,-0.02 h 42.209 v -42.209 l 0.02,-0.575 0.059,-0.573 0.098,-0.567 0.136,-0.56 0.174,-0.548 0.211,-0.536 0.248,-0.52 0.282,-0.502 0.316,-0.481 0.348,-0.459 0.378,-0.434 0.407,-0.407 0.434,-0.379 0.459,-0.347 0.481,-0.316 0.502,-0.282 0.52,-0.248 0.536,-0.211 0.548,-0.174 0.56,-0.136 0.567,-0.098 0.573,-0.059 0.575,-0.02 h 81.026 l 0.575,0.02 0.573,0.059 0.567,0.098 0.56,0.136 0.549,0.174 0.535,0.211 0.52,0.248 0.502,0.282 0.481,0.316 0.459,0.347 0.434,0.379 0.407,0.407 0.379,0.434 0.347,0.459 0.316,0.481 0.282,0.502 0.248,0.52 0.211,0.536 0.174,0.548 0.136,0.56 0.098,0.567 0.059,0.573 0.02,0.575 v 42.209 h 42.209 l 0.575,0.02 0.573,0.059 0.567,0.098 0.56,0.136 0.548,0.174 0.536,0.211 0.52,0.248 0.502,0.282 0.481,0.316 0.459,0.347 0.434,0.379 0.407,0.407 0.379,0.434 0.347,0.459 0.316,0.481 0.282,0.502 0.248,0.52 0.211,0.536 0.174,0.548 0.136,0.56 0.098,0.567 0.059,0.573 0.02,0.575 v 81.026 m -156.226,-80.117 0.638,0.466 0.645,0.457 0.653,0.445 0.661,0.431 0.671,0.416 0.681,0.398 0.692,0.378 0.702,0.36 0.713,0.343 0.724,0.329 0.736,0.317 0.746,0.307 0.757,0.298 0.769,0.291 0.779,0.287 0.791,0.284 0.139,0.316 0.152,0.308 0.165,0.302 0.175,0.296 0.186,0.291 0.195,0.285 0.413,0.559 0.437,0.545 0.452,0.537 0.916,1.062 0.448,0.534 0.428,0.542 0.402,0.554 0.188,0.283 0.177,0.288 0.167,0.292 0.157,0.298 0.145,0.302 0.135,0.307 0.125,0.312 0.115,0.316 0.105,0.319 0.095,0.324 0.164,0.658 0.129,0.672 0.095,0.683 0.065,0.693 0.035,0.702 0.008,0.709 -0.017,0.715 -0.041,0.719 -0.062,0.721 -0.082,0.723 -0.099,0.722 -0.114,0.721 -0.129,0.716 -0.14,0.712 -0.309,1.41 -0.336,1.393 -0.351,1.376 -0.353,1.361 -0.341,1.35 -0.317,1.338 -0.145,0.665 -0.134,0.664 -0.122,0.661 -0.107,0.66 -0.092,0.658 -0.074,0.657 -0.055,0.656 -0.035,0.655 -0.012,0.654 0.011,0.654 0.037,0.654 0.062,0.653 0.085,0.652 0.109,0.652 0.132,0.65 0.154,0.65 0.174,0.647 0.196,0.646 0.215,0.644 0.234,0.641 0.253,0.639 0.271,0.636 0.287,0.634 0.304,0.63 0.319,0.627 0.334,0.624 0.348,0.619 0.362,0.616 0.374,0.612 0.387,0.606 0.397,0.603 0.408,0.597 0.418,0.592 0.428,0.587 0.879,1.157 0.907,1.133 0.929,1.107 0.946,1.08 0.957,1.05 0.967,1.02 0.978,0.99 0.993,0.96 1.008,0.931 1.026,0.902 1.047,0.872 1.069,0.843 1.094,0.814 0.557,0.396 0.565,0.389 0.571,0.382 0.579,0.375 0.587,0.368 0.596,0.361 0.603,0.354 0.612,0.346 0.62,0.339 0.627,0.332 0.633,0.323 0.638,0.314 0.644,0.306 0.647,0.296 0.651,0.287 0.653,0.277 0.655,0.266 0.656,0.255 0.656,0.245 0.656,0.233 0.655,0.221 0.653,0.209 0.651,0.196 0.647,0.184 0.643,0.17 0.638,0.157 -2.381,1.706 -2.396,1.686 -2.408,1.668 -2.419,1.655 -2.429,1.638 -2.448,1.611 -1.232,0.792 -1.239,0.781 -1.247,0.769 -1.254,0.756 -0.18,0.031 -0.193,0.034 -0.206,0.037 -0.217,0.041 -0.229,0.043 -0.238,0.046 -0.503,0.1 -0.533,0.108 -0.554,0.117 -1.147,0.25 -1.156,0.266 -1.154,0.277 -2.303,0.579 0.7,7.906 1.682,-0.386 1.686,-0.371 1.691,-0.355 1.695,-0.339 1.7,-0.323 1.705,-0.306 1.71,-0.287 1.714,-0.268 1.717,-0.247 1.72,-0.226 1.723,-0.202 1.725,-0.179 1.726,-0.153 1.728,-0.127 1.727,-0.1 1.728,-0.07 1.727,-0.041 1.726,-0.01 1.724,0.023 1.722,0.056 1.719,0.091 1.717,0.126 1.712,0.163 1.709,0.196 1.706,0.226 1.704,0.253 1.701,0.276 1.699,0.294 1.698,0.31 1.697,0.321 3.392,0.662 1.074,-7.607 -2.435,-0.408 -1.206,-0.202 -1.193,-0.198 -1.178,-0.193 -1.157,-0.185 -1.134,-0.177 -1.106,-0.166 1.163,-2.381 1.149,-2.389 0.581,-1.191 0.591,-1.185 0.606,-1.177 0.626,-1.167 0.644,-1.157 0.658,-1.149 1.336,-2.29 1.326,-2.295 0.645,-1.156 0.627,-1.167 0.086,-0.039 0.099,-0.044 0.223,-0.1 0.476,-0.201 0.479,-0.19 0.484,-0.176 0.487,-0.164 0.489,-0.152 0.493,-0.141 0.494,-0.13 0.497,-0.119 0.499,-0.109 1.001,-0.19 1.004,-0.154 1.005,-0.122 1.003,-0.093 0.999,-0.068 0.993,-0.045 0.983,-0.027 0.972,-0.011 0.963,0.006 0.953,0.022 0.947,0.039 0.94,0.056 0.935,0.073 0.93,0.091 0.928,0.108 0.926,0.127 0.926,0.144 0.926,0.163 0.928,0.181 0.93,0.2 0.935,0.22 0.94,0.238 0.945,0.259 0.951,0.278 0.956,0.3 0.959,0.322 0.962,0.344 0.965,0.368 0.966,0.391 0.967,0.417 0.968,0.442 0.966,0.469 0.966,0.495 0.964,0.524 0.961,0.552 0.957,0.581 0.954,0.612 0.948,0.642 0.945,0.664 0.944,0.669 0.947,0.655 0.475,0.316 0.477,0.307 0.478,0.294 0.482,0.28 0.484,0.263 0.487,0.244 0.491,0.222 0.494,0.199 0.499,0.173 0.504,0.145 0.509,0.114 0.514,0.084 0.519,0.056 0.522,0.03 0.527,0.009 0.53,-0.011 0.532,-0.027 0.534,-0.039 1.074,-0.106 1.076,-0.122 1.074,-0.113 0.535,-0.045 0.533,-0.036 1.062,-0.043 1.056,-0.007 1.051,0.024 1.046,0.054 1.042,0.08 -1.07,-0.845 -1.084,-0.826 -1.101,-0.804 -1.118,-0.78 -1.137,-0.755 -1.155,-0.73 -1.172,-0.707 -1.187,-0.687 -1.2,-0.669 -1.212,-0.653 -1.221,-0.64 -1.229,-0.629 -2.474,-1.232 -2.484,-1.214 -2.48,-1.215 -2.461,-1.234 -1.22,-0.63 -1.209,-0.641 -1.198,-0.655 -1.184,-0.671 -1.169,-0.689 -1.153,-0.71 -1.133,-0.733 -1.113,-0.758 -1.09,-0.785 -1.067,-0.816 -0.523,-0.419 -0.517,-0.428 -0.51,-0.436 -0.503,-0.445 -1.529,-0.092 -1.525,-0.121 -1.52,-0.154 -1.514,-0.19 -0.755,-0.109 -0.753,-0.119 -0.752,-0.13 -0.749,-0.14 -0.748,-0.152 -0.745,-0.163 -0.743,-0.175 -0.74,-0.185 -0.739,-0.197 -0.735,-0.207 -0.734,-0.218 -0.73,-0.228 -0.728,-0.239 -0.724,-0.248 -1.441,-0.525 -1.428,-0.563 -1.416,-0.598 -1.401,-0.633 -1.387,-0.665 -1.372,-0.697 -1.356,-0.725 -1.339,-0.754 -1.322,-0.78 -1.305,-0.804 -1.285,-0.828 -1.267,-0.849 -1.249,-0.872 -1.233,-0.893 -1.219,-0.914 -1.205,-0.937 -1.192,-0.959 -1.181,-0.982 -0.581,-0.502 -0.57,-0.513 -0.558,-0.526 -0.542,-0.539 -0.523,-0.556 -0.502,-0.573 1.127,0.876 1.136,0.863 1.147,0.85 1.159,0.834 1.17,0.818 1.182,0.8 1.194,0.783 1.207,0.764 1.22,0.745 1.232,0.726 1.243,0.706 1.255,0.685 1.266,0.665 1.277,0.644 1.288,0.623 1.298,0.602 1.308,0.579 1.318,0.557 1.327,0.535 1.337,0.511 1.345,0.488 1.354,0.465 1.362,0.44 1.369,0.415 1.377,0.388 1.384,0.362 1.39,0.333 1.395,0.305 1.401,0.275 1.406,0.245 1.41,0.214 1.416,0.182 -0.598,-0.634 -0.59,-0.646 -0.581,-0.656 -0.575,-0.663 -1.135,-1.345 -1.126,-1.357 -1.125,-1.356 -1.136,-1.343 -1.149,-1.326 -1.161,-1.313 -1.171,-1.301 -1.18,-1.291 -2.384,-2.561 -2.403,-2.549 -2.414,-2.552 -2.412,-2.573 -2.411,-2.595 -2.415,-2.604 -2.426,-2.6 -2.443,-2.583 -1.23,-1.282 -1.237,-1.274 -1.244,-1.262 -1.253,-1.251 -1.262,-1.237 -1.272,-1.222 -1.283,-1.206 -1.294,-1.187 -1.307,-1.167 -1.32,-1.146 -1.333,-1.123 -1.349,-1.099 -1.365,-1.072 -1.38,-1.044 -1.398,-1.015 -1.417,-0.984 -1.435,-0.952 -0.724,-0.463 -0.73,-0.454 -0.735,-0.446 -0.741,-0.435 -0.747,-0.425 -0.753,-0.413 -0.759,-0.402 -0.766,-0.389 -0.774,-0.377 -0.78,-0.362 -0.789,-0.349 -0.796,-0.333 -0.805,-0.318 -0.814,-0.301 -0.822,-0.285 -0.832,-0.267 -0.841,-0.25 -0.851,-0.23 -0.862,-0.211 -0.872,-0.191 -0.882,-0.171 -0.894,-0.149 -0.906,-0.127 -0.917,-0.105 -0.929,-0.081 -0.941,-0.058 -0.954,-0.033 -0.967,-0.008 -0.98,0.017 -0.994,0.044 -1.003,0.072 -1.005,0.102 -1.002,0.136 -0.989,0.171 -0.489,0.1 -0.483,0.11 -0.476,0.12 -0.469,0.131 -0.462,0.141 -0.452,0.153 -0.442,0.164 -0.431,0.176 -0.42,0.188 -0.408,0.2 -0.393,0.213 -0.38,0.226 -0.364,0.24 -0.349,0.253 -0.331,0.268 -0.314,0.281 -0.815,0.055 -0.814,0.067 -1.626,0.157 -1.625,0.167 -1.623,0.188 -0.809,0.106 -0.809,0.117 -0.806,0.132 -0.805,0.146 -0.8,0.165 -0.797,0.183 -0.791,0.205 -0.784,0.228"
         id="path20" />
    </g>
    <g
       fill="#f8f9fa"
       fill-opacity="1"
       stroke="#f8f9fa"
       stroke-opacity="1"
       stroke-width="1"
       stroke-linecap="square"
       stroke-linejoin="bevel"
       font-family="'MS Shell Dlg 2'"
       font-size="17.75px"
       font-weight="400"
       font-style="normal"
       id="g24" />
    <g
       fill="#f8f9fa"
       fill-opacity="1"
       stroke="#f8f9fa"
       stroke-opacity="1"
       stroke-width="1"
       stroke-linecap="butt"
       stroke-linejoin="miter"
       stroke-miterlimit="2"
       font-family="'MS Shell Dlg 2'"
       font-size="17.75px"
       font-weight="400"
       font-style="normal"
       id="g26" />
    <g
       fill="#f8f9fa"
       fill-opacity="1"
       stroke="none"
       font-family="'MS Shell Dlg 2'"
       font-size="17.75px"
       font-weight="400"
       font-style="normal"
       id="g30">
      <path
         vector-effect="none"
         fill-rule="evenodd"
         d="m 400.996,379.39 0.688,-0.06 0.704,-0.057 0.72,-0.052 0.733,-0.048 0.747,-0.044 0.757,-0.039 1.543,-0.064 1.571,-0.043 1.588,-0.023 1.593,-10e-4 1.59,0.021 1.584,0.042 1.571,0.062 1.556,0.08 1.534,0.097 1.509,0.113 1.479,0.128 1.445,0.141 0.708,0.076 0.697,0.078 1.055,-1.745 1.045,-1.751 1.02,-1.765 0.497,-0.89 0.486,-0.895 0.474,-0.902 0.466,-0.907 0.915,-1.821 0.912,-1.824 0.929,-1.815 -0.147,0.08 -0.163,0.087 -0.178,0.094 -0.192,0.1 -0.204,0.105 -0.215,0.11 -0.458,0.226 -0.487,0.231 -0.504,0.228 -0.514,0.218 -0.518,0.204 -0.523,0.192 -0.527,0.18 -0.531,0.167 -0.534,0.155 -0.538,0.142 -0.541,0.131 -0.543,0.119 -0.546,0.107 -0.547,0.096 -0.55,0.084 -0.55,0.074 -0.552,0.062 -0.552,0.052 -0.553,0.04 -0.553,0.03 -0.552,0.02 -0.552,0.01 -0.551,-0.001 -1.097,-0.031 -1.09,-0.069 -1.08,-0.106 -0.934,0.719 -0.944,0.705 -0.954,0.693 -0.961,0.683 -1.942,1.339 -1.96,1.315 -3.935,2.608 -0.977,0.66 -0.969,0.669 -0.956,0.682 -0.942,0.698"
         id="path28" />
    </g>
    <g
       fill="#f8f9fa"
       fill-opacity="1"
       stroke="#f8f9fa"
       stroke-opacity="1"
       stroke-width="1"
       stroke-linecap="butt"
       stroke-linejoin="miter"
       stroke-miterlimit="2"
       font-family="'MS Shell Dlg 2'"
       font-size="17.75px"
       font-weight="400"
       font-style="normal"
       id="g32" />
    <g
       fill="#f8f9fa"
       fill-opacity="1"
       stroke="#f8f9fa"
       stroke-opacity="1"
       stroke-width="1"
       stroke-linecap="square"
       stroke-linejoin="bevel"
       font-family="'MS Shell Dlg 2'"
       font-size="17.75px"
       font-weight="400"
       font-style="normal"
       id="g62">
      <polyline
         fill="none"
         vector-effect="non-scaling-stroke"
         points="502.52,372.426 501.472,372.346 500.421,372.292 499.364,372.268 498.302,372.276 497.234,372.319 496.698,372.356 496.16,372.402 493.998,372.638 492.919,372.744 492.382,372.783 491.847,372.808 491.315,372.817 490.786,372.806 490.261,372.773 489.74,372.714 489.224,372.626 488.713,372.506 488.207,372.357 487.706,372.179 487.209,371.976 486.716,371.748 486.227,371.5 485.741,371.233 485.258,370.949 484.777,370.651 483.82,370.021 482.869,369.36 481.92,368.687 480.97,368.021 480.015,367.379 479.056,366.768 478.093,366.187 477.127,365.636 476.157,365.113 475.186,364.619 474.214,364.151 473.242,363.711 472.269,363.296 471.298,362.906 470.329,362.54 469.362,362.198 468.398,361.879 467.438,361.581 466.483,361.305 465.534,361.049 464.59,360.813 463.651,360.597 462.716,360.399 461.784,360.221 460.853,360.061 459.923,359.92 458.991,359.797 458.058,359.693 457.121,359.606 456.18,359.536 455.233,359.484 454.28,359.45 453.319,359.432 452.349,359.43 451.368,359.445 450.377,359.477 449.377,359.529 448.371,359.604 447.362,359.706 446.351,359.838 445.342,360.004 444.337,360.206 443.837,360.322 443.339,360.449 442.843,360.586 442.35,360.735 441.859,360.896 441.372,361.069 440.889,361.255 440.409,361.454 440.173,361.557 439.959,361.653 439.868,361.693 439.793,361.727 439.737,361.751 439.703,361.765 "
         id="polyline34" />
      <polyline
         fill="none"
         vector-effect="non-scaling-stroke"
         points="433.129,365.473 432.984,365.551 432.822,365.638 432.645,365.732 432.455,365.831 432.251,365.936 432.037,366.045 431.579,366.272 431.092,366.504 430.587,366.733 430.072,366.952 429.552,367.158 429.028,367.351 428.5,367.531 427.967,367.699 427.431,367.855 426.892,367.998 426.35,368.129 425.805,368.249 425.257,368.357 424.708,368.453 424.157,368.538 423.605,368.611 423.051,368.674 422.497,368.726 421.943,368.766 421.389,368.797 420.835,368.816 420.281,368.826 419.729,368.825 418.628,368.794 417.535,368.724 416.452,368.616 "
         id="polyline36" />
      <polyline
         fill="none"
         vector-effect="non-scaling-stroke"
         points="410.943,367.658 410.305,367.503 409.662,367.334 409.014,367.152 408.363,366.957 407.71,366.749 407.054,366.529 406.398,366.297 405.74,366.054 405.083,365.799 404.427,365.534 403.773,365.258 403.121,364.972 402.473,364.677 401.828,364.372 401.188,364.058 400.554,363.735 399.926,363.404 399.304,363.065 398.691,362.719 398.086,362.366 397.489,362.005 396.9,361.637 396.32,361.263 395.747,360.881 395.181,360.492 394.622,360.096 393.526,359.282 392.454,358.439 391.405,357.567 390.376,356.666 389.366,355.735 388.372,354.775 387.392,353.784 386.424,352.764 385.465,351.714 384.518,350.634 383.586,349.526 382.677,348.393 381.796,347.235 381.368,346.648 380.949,346.055 380.54,345.457 380.141,344.854 379.753,344.247 379.378,343.635 379.015,343.019 378.666,342.398 378.331,341.774 378.01,341.147 377.706,340.516 377.417,339.882 377.145,339.245 376.892,338.605 376.656,337.963 376.44,337.318 376.243,336.672 376.068,336.023 375.913,335.373 375.78,334.722 375.67,334.07 375.584,333.417 375.522,332.763 375.484,332.108 375.472,331.453 375.484,330.798 375.518,330.142 375.572,329.486 375.646,328.828 375.738,328.169 375.845,327.508 375.967,326.846 376.101,326.182 376.246,325.516 376.563,324.176 376.904,322.825 377.257,321.462 377.608,320.084 377.945,318.69 378.255,317.278 378.395,316.565 378.524,315.848 378.639,315.126 378.738,314.403 378.819,313.68 378.881,312.957 378.922,312.238 378.939,311.522 378.931,310.812 378.895,310.109 378.83,309.415 378.734,308.731 378.605,308.059 378.44,307.4 378.344,307.076 378.239,306.756 378.123,306.44 377.998,306.129 377.863,305.821 377.717,305.519 377.56,305.221 377.392,304.928 377.213,304.641 377.025,304.358 376.622,303.803 376.193,303.261 375.744,302.726 374.827,301.662 374.374,301.125 373.938,300.578 373.525,300.019 373.33,299.732 373.145,299.441 372.97,299.144 372.806,298.841 372.655,298.532 372.517,298.216 "
         id="polyline38" />
      <polyline
         fill="none"
         vector-effect="non-scaling-stroke"
         points="374.065,290.523 374.379,290.241 374.71,289.973 375.058,289.719 375.422,289.479 375.801,289.253 376.195,289.039 376.602,288.839 377.022,288.65 377.453,288.474 377.895,288.31 378.347,288.157 378.808,288.016 379.277,287.885 379.754,287.765 380.236,287.654 380.725,287.554 381.715,287.383 382.716,287.246 383.722,287.144 384.725,287.071 385.719,287.027 386.699,287.01 387.666,287.018 388.621,287.051 389.562,287.108 390.491,287.19 391.409,287.294 392.314,287.421 393.208,287.57 394.091,287.74 394.963,287.931 395.825,288.142 396.676,288.373 397.518,288.622 398.349,288.889 399.172,289.173 399.986,289.475 400.791,289.793 401.588,290.126 402.376,290.474 403.157,290.837 403.93,291.213 404.697,291.602 405.456,292.004 406.209,292.418 406.956,292.842 407.697,293.278 408.432,293.723 409.162,294.177 409.887,294.64 411.322,295.592 412.739,296.576 414.137,297.591 415.518,298.636 416.883,299.708 418.231,300.806 419.566,301.929 420.886,303.075 422.192,304.243 423.487,305.43 424.77,306.635 426.042,307.858 427.304,309.095 428.557,310.346 429.801,311.609 431.038,312.882 432.269,314.164 434.712,316.748 437.138,319.349 439.554,321.953 441.964,324.548 444.377,327.121 446.791,329.674 449.195,332.222 451.578,334.784 452.759,336.075 453.931,337.376 455.092,338.689 456.241,340.016 457.377,341.359 458.502,342.716 459.627,344.072 460.763,345.417 461.338,346.08 461.92,346.736 462.509,347.382 463.108,348.017 "
         id="polyline40" />
      <polyline
         fill="none"
         vector-effect="non-scaling-stroke"
         points="465.139,349.987 465.642,350.433 466.152,350.869 466.669,351.297 467.193,351.716 468.259,352.532 469.35,353.317 470.463,354.076 471.597,354.809 472.749,355.519 473.918,356.208 475.103,356.879 476.301,357.535 477.511,358.176 478.73,358.806 481.192,360.04 483.672,361.255 486.157,362.47 488.632,363.702 489.861,364.331 491.082,364.971 492.294,365.624 493.494,366.293 494.681,366.98 495.854,367.688 497.009,368.418 498.146,369.173 499.265,369.954 500.365,370.758 501.45,371.584 502.52,372.429 "
         id="polyline42" />
      <polyline
         fill="none"
         vector-effect="non-scaling-stroke"
         points="421.805,329.735 422.931,330.612 424.068,331.475 425.215,332.324 426.374,333.158 427.544,333.977 428.726,334.777 429.92,335.56 431.128,336.325 432.347,337.07 433.579,337.795 434.822,338.501 436.078,339.186 437.344,339.851 438.621,340.496 439.909,341.119 441.207,341.72 442.515,342.299 443.833,342.857 445.16,343.391 446.497,343.903 447.842,344.391 449.196,344.855 450.558,345.295 451.928,345.71 453.305,346.099 454.689,346.46 456.079,346.794 457.474,347.099 458.875,347.374 460.281,347.619 461.692,347.833 463.108,348.014 "
         id="polyline44" />
      <polyline
         fill="none"
         vector-effect="non-scaling-stroke"
         points="421.805,329.735 422.307,330.309 422.83,330.864 423.372,331.404 423.929,331.929 424.5,332.443 425.081,332.945 426.262,333.927 427.455,334.886 428.66,335.823 429.878,336.738 431.111,337.631 432.361,338.502 433.628,339.352 434.914,340.179 436.218,340.984 437.54,341.764 438.88,342.517 440.236,343.243 441.608,343.94 442.995,344.605 444.397,345.238 445.812,345.836 447.24,346.399 447.959,346.666 448.681,346.924 449.406,347.172 450.134,347.411 450.865,347.639 451.598,347.857 452.334,348.064 453.072,348.26 453.813,348.446 454.556,348.621 455.301,348.784 456.048,348.936 456.798,349.076 457.549,349.206 458.303,349.325 459.058,349.434 460.572,349.624 462.093,349.777 463.618,349.898 465.147,349.99 "
         id="polyline46" />
      <polyline
         fill="none"
         vector-effect="non-scaling-stroke"
         points="439.313,381.939 436.863,381.528 435.649,381.325 434.449,381.126 433.264,380.932 432.1,380.745 430.96,380.568 429.848,380.401 "
         id="polyline48" />
      <polyline
         fill="none"
         vector-effect="non-scaling-stroke"
         points="425.398,379.807 424.698,379.728 423.988,379.652 422.538,379.509 421.054,379.38 419.539,379.265 417.998,379.167 416.436,379.086 414.858,379.024 413.267,378.981 411.669,378.959 410.068,378.96 408.473,378.982 406.894,379.026 405.344,379.09 404.583,379.129 403.833,379.173 403.096,379.221 402.373,379.274 401.666,379.331 400.976,379.392 "
         id="polyline50" />
      <polyline
         fill="none"
         vector-effect="non-scaling-stroke"
         points="391.538,380.681 391.365,380.709 391.177,380.742 390.975,380.778 390.761,380.817 390.534,380.86 390.296,380.905 389.791,381.004 389.253,381.113 388.69,381.231 388.11,381.355 387.52,381.485 386.335,381.756 385.154,382.039 382.795,382.631 "
         id="polyline52" />
      <polyline
         fill="none"
         vector-effect="non-scaling-stroke"
         points="438.259,389.55 434.864,388.887 433.165,388.566 431.466,388.256 429.765,387.961 428.063,387.685 426.358,387.431 424.65,387.204 422.94,387.007 421.226,386.844 419.508,386.717 417.787,386.626 416.064,386.57 414.338,386.547 412.611,386.557 410.882,386.597 409.153,386.668 407.424,386.767 405.695,386.894 403.967,387.048 402.241,387.227 400.516,387.429 398.794,387.655 397.076,387.903 395.36,388.171 393.649,388.459 391.942,388.765 390.241,389.088 388.544,389.428 386.852,389.783 385.164,390.155 383.481,390.541 "
         id="polyline54" />
      <polyline
         fill="none"
         vector-effect="non-scaling-stroke"
         points="361.15,292.418 361.798,292.892 362.453,293.356 363.116,293.808 363.788,294.246 364.47,294.667 365.162,295.07 365.866,295.453 366.58,295.817 367.306,296.164 368.043,296.497 368.791,296.817 369.55,297.127 370.322,297.428 371.104,297.723 371.898,298.014 372.704,298.302 "
         id="polyline56" />
      <polyline
         fill="none"
         vector-effect="non-scaling-stroke"
         points="382.797,382.63 383.501,390.571 "
         id="polyline58" />
      <polyline
         fill="none"
         vector-effect="non-scaling-stroke"
         points="438.222,389.587 439.302,381.935 "
         id="polyline60" />
    </g>
    <g
       fill="#f8f9fa"
       fill-opacity="1"
       stroke="#f8f9fa"
       stroke-opacity="1"
       stroke-width="1"
       stroke-linecap="round"
       stroke-linejoin="bevel"
       font-family="'MS Shell Dlg 2'"
       font-size="17.75px"
       font-weight="400"
       font-style="normal"
       id="g64" />
    <g
       fill="#f8f9fa"
       fill-opacity="1"
       stroke="#f8f9fa"
       stroke-opacity="1"
       stroke-width="1"
       stroke-linecap="round"
       stroke-linejoin="bevel"
       transform="matrix(0.0839507,0,0,0.0839507,540.821,373.423)"
       font-family="'Calibri Light'"
       font-size="1575.32px"
       font-weight="400"
       font-style="normal"
       id="g68">
      <text
         fill="#f8f9fa"
         fill-opacity="1"
         stroke="none"
         xml:space="preserve"
         x="0"
         y="0"
         font-family="'Calibri Light'"
         font-size="1575.32px"
         font-weight="400"
         font-style="normal"
         id="text66">F</text>
    </g>
    <g
       fill="#f8f9fa"
       fill-opacity="1"
       stroke="#f8f9fa"
       stroke-opacity="1"
       stroke-width="1"
       stroke-linecap="round"
       stroke-linejoin="bevel"
       transform="matrix(0.0839507,0,0,0.0839507,540.821,373.423)"
       font-family="'Calibri Light'"
       font-size="1575.32px"
       font-weight="400"
       font-style="normal"
       id="g72">
      <text
         fill="#f8f9fa"
         fill-opacity="1"
         stroke="none"
         xml:space="preserve"
         x="727.172"
         y="0"
         font-family="'Calibri Light'"
         font-size="1575.32px"
         font-weight="400"
         font-style="normal"
         id="text70">A</text>
    </g>
    <g
       fill="#f8f9fa"
       fill-opacity="1"
       stroke="#f8f9fa"
       stroke-opacity="1"
       stroke-width="1"
       stroke-linecap="round"
       stroke-linejoin="bevel"
       transform="matrix(0.0839507,0,0,0.0839507,540.821,373.423)"
       font-family="'Calibri Light'"
       font-size="1575.32px"
       font-weight="400"
       font-style="normal"
       id="g76">
      <text
         fill="#f8f9fa"
         fill-opacity="1"
         stroke="none"
         xml:space="preserve"
         x="1618.0601"
         y="0"
         font-family="'Calibri Light'"
         font-size="1575.32px"
         font-weight="400"
         font-style="normal"
         id="text74">R</text>
    </g>
    <g
       fill="#f8f9fa"
       fill-opacity="1"
       stroke="#f8f9fa"
       stroke-opacity="1"
       stroke-width="1"
       stroke-linecap="round"
       stroke-linejoin="bevel"
       transform="matrix(0.0839507,0,0,0.0839507,540.821,373.423)"
       font-family="'Calibri Light'"
       font-size="1575.32px"
       font-weight="400"
       font-style="normal"
       id="g80">
      <text
         fill="#f8f9fa"
         fill-opacity="1"
         stroke="none"
         xml:space="preserve"
         x="2459.75"
         y="0"
         font-family="'Calibri Light'"
         font-size="1575.32px"
         font-weight="400"
         font-style="normal"
         id="text78">M</text>
    </g>
    <g
       fill="#f8f9fa"
       fill-opacity="1"
       stroke="#f8f9fa"
       stroke-opacity="1"
       stroke-width="1"
       stroke-linecap="round"
       stroke-linejoin="bevel"
       transform="matrix(0.0839507,0,0,0.0839507,540.821,373.423)"
       font-family="'Calibri Light'"
       font-size="1575.32px"
       font-weight="400"
       font-style="normal"
       id="g84">
      <text
         fill="#f8f9fa"
         fill-opacity="1"
         stroke="none"
         xml:space="preserve"
         x="3795.5801"
         y="0"
         font-family="'Calibri Light'"
         font-size="1575.32px"
         font-weight="400"
         font-style="normal"
         id="text82">Á</text>
    </g>
    <g
       fill="#f8f9fa"
       fill-opacity="1"
       stroke="#f8f9fa"
       stroke-opacity="1"
       stroke-width="1"
       stroke-linecap="round"
       stroke-linejoin="bevel"
       transform="matrix(0.0839507,0,0,0.0839507,540.821,373.423)"
       font-family="'Calibri Light'"
       font-size="1575.32px"
       font-weight="400"
       font-style="normal"
       id="g88">
      <text
         fill="#f8f9fa"
         fill-opacity="1"
         stroke="none"
         xml:space="preserve"
         x="4686.48"
         y="0"
         font-family="'Calibri Light'"
         font-size="1575.32px"
         font-weight="400"
         font-style="normal"
         id="text86">C</text>
    </g>
    <g
       fill="#f8f9fa"
       fill-opacity="1"
       stroke="#f8f9fa"
       stroke-opacity="1"
       stroke-width="1"
       stroke-linecap="round"
       stroke-linejoin="bevel"
       transform="matrix(0.0839507,0,0,0.0839507,540.821,373.423)"
       font-family="'Calibri Light'"
       font-size="1575.32px"
       font-weight="400"
       font-style="normal"
       id="g92">
      <text
         fill="#f8f9fa"
         fill-opacity="1"
         stroke="none"
         xml:space="preserve"
         x="5533.1899"
         y="0"
         font-family="'Calibri Light'"
         font-size="1575.32px"
         font-weight="400"
         font-style="normal"
         id="text90">I</text>
    </g>
    <g
       fill="#f8f9fa"
       fill-opacity="1"
       stroke="#f8f9fa"
       stroke-opacity="1"
       stroke-width="1"
       stroke-linecap="round"
       stroke-linejoin="bevel"
       transform="matrix(0.0839507,0,0,0.0839507,540.821,373.423)"
       font-family="'Calibri Light'"
       font-size="1575.32px"
       font-weight="400"
       font-style="normal"
       id="g96">
      <text
         fill="#f8f9fa"
         fill-opacity="1"
         stroke="none"
         xml:space="preserve"
         x="5919.8799"
         y="0"
         font-family="'Calibri Light'"
         font-size="1575.32px"
         font-weight="400"
         font-style="normal"
         id="text94">A</text>
    </g>
    <g
       fill="#f8f9fa"
       fill-opacity="1"
       stroke="#f8f9fa"
       stroke-opacity="1"
       stroke-width="1"
       stroke-linecap="round"
       stroke-linejoin="bevel"
       transform="matrix(0.0839507,0,0,0.0839507,540.821,373.423)"
       font-family="'Calibri Light'"
       font-size="1575.32px"
       font-weight="400"
       font-style="normal"
       id="g100">
      <text
         fill="#f8f9fa"
         fill-opacity="1"
         stroke="none"
         xml:space="preserve"
         x="6810.77"
         y="0"
         font-family="'Calibri Light'"
         font-size="1575.32px"
         font-weight="400"
         font-style="normal"
         id="text98"> </text>
    </g>
    <g
       fill="#f8f9fa"
       fill-opacity="1"
       stroke="#f8f9fa"
       stroke-opacity="1"
       stroke-width="1"
       stroke-linecap="round"
       stroke-linejoin="bevel"
       transform="matrix(0.0839507,0,0,0.0839507,540.821,373.423)"
       font-family="'Calibri Light'"
       font-size="1575.32px"
       font-weight="400"
       font-style="normal"
       id="g104">
      <text
         fill="#f8f9fa"
         fill-opacity="1"
         stroke="none"
         xml:space="preserve"
         x="7168.3301"
         y="0"
         font-family="'Calibri Light'"
         font-size="1575.32px"
         font-weight="400"
         font-style="normal"
         id="text102">P</text>
    </g>
    <g
       fill="#f8f9fa"
       fill-opacity="1"
       stroke="#f8f9fa"
       stroke-opacity="1"
       stroke-width="1"
       stroke-linecap="round"
       stroke-linejoin="bevel"
       transform="matrix(0.0839507,0,0,0.0839507,540.821,373.423)"
       font-family="'Calibri Light'"
       font-size="1575.32px"
       font-weight="400"
       font-style="normal"
       id="g108">
      <text
         fill="#f8f9fa"
         fill-opacity="1"
         stroke="none"
         xml:space="preserve"
         x="7971.8398"
         y="0"
         font-family="'Calibri Light'"
         font-size="1575.32px"
         font-weight="400"
         font-style="normal"
         id="text106">I</text>
    </g>
    <g
       fill="#f8f9fa"
       fill-opacity="1"
       stroke="#f8f9fa"
       stroke-opacity="1"
       stroke-width="1"
       stroke-linecap="round"
       stroke-linejoin="bevel"
       transform="matrix(0.0839507,0,0,0.0839507,540.821,373.423)"
       font-family="'Calibri Light'"
       font-size="1575.32px"
       font-weight="400"
       font-style="normal"
       id="g112">
      <text
         fill="#f8f9fa"
         fill-opacity="1"
         stroke="none"
         xml:space="preserve"
         x="8358.5303"
         y="0"
         font-family="'Calibri Light'"
         font-size="1575.32px"
         font-weight="400"
         font-style="normal"
         id="text110">S</text>
    </g>
    <g
       fill="#f8f9fa"
       fill-opacity="1"
       stroke="#f8f9fa"
       stroke-opacity="1"
       stroke-width="1"
       stroke-linecap="round"
       stroke-linejoin="bevel"
       transform="matrix(0.0839507,0,0,0.0839507,540.821,373.423)"
       font-family="'Calibri Light'"
       font-size="1575.32px"
       font-weight="400"
       font-style="normal"
       id="g116">
      <text
         fill="#f8f9fa"
         fill-opacity="1"
         stroke="none"
         xml:space="preserve"
         x="9074.6602"
         y="0"
         font-family="'Calibri Light'"
         font-size="1575.32px"
         font-weight="400"
         font-style="normal"
         id="text114">C</text>
    </g>
    <g
       fill="#f8f9fa"
       fill-opacity="1"
       stroke="#f8f9fa"
       stroke-opacity="1"
       stroke-width="1"
       stroke-linecap="round"
       stroke-linejoin="bevel"
       transform="matrix(0.0839507,0,0,0.0839507,540.821,373.423)"
       font-family="'Calibri Light'"
       font-size="1575.32px"
       font-weight="400"
       font-style="normal"
       id="g120">
      <text
         fill="#f8f9fa"
         fill-opacity="1"
         stroke="none"
         xml:space="preserve"
         x="9921.3604"
         y="0"
         font-family="'Calibri Light'"
         font-size="1575.32px"
         font-weight="400"
         font-style="normal"
         id="text118">O</text>
    </g>
    <g
       fill="#f8f9fa"
       fill-opacity="1"
       stroke="#f8f9fa"
       stroke-opacity="1"
       stroke-width="1"
       stroke-linecap="round"
       stroke-linejoin="bevel"
       font-family="'MS Shell Dlg 2'"
       font-size="17.75px"
       font-weight="400"
       font-style="normal"
       id="g122" />
    <g
       fill="#f8f9fa"
       fill-opacity="1"
       stroke="#f8f9fa"
       stroke-opacity="1"
       stroke-width="1"
       stroke-linecap="square"
       stroke-linejoin="bevel"
       font-family="'MS Shell Dlg 2'"
       font-size="17.75px"
       font-weight="400"
       font-style="normal"
       id="g166">
      <polyline
         fill="none"
         vector-effect="non-scaling-stroke"
         points="458.321,431.622 377.295,431.622 "
         id="polyline124" />
      <polyline
         fill="none"
         vector-effect="non-scaling-stroke"
         points="377.295,431.622 376.72,431.602 376.147,431.543 375.58,431.445 375.02,431.309 374.472,431.135 373.936,430.924 373.416,430.676 372.914,430.394 372.433,430.078 371.974,429.73 371.54,429.352 371.133,428.945 370.755,428.511 370.407,428.052 370.091,427.571 369.809,427.069 369.561,426.549 369.35,426.013 369.176,425.465 369.04,424.905 368.942,424.338 368.883,423.765 368.863,423.19 "
         id="polyline126" />
      <polyline
         fill="none"
         vector-effect="non-scaling-stroke"
         points="368.863,423.19 368.863,380.981 326.654,380.981 "
         id="polyline128" />
      <polyline
         fill="none"
         vector-effect="non-scaling-stroke"
         points="326.654,380.981 326.079,380.961 325.506,380.902 324.939,380.804 324.379,380.668 323.831,380.494 323.295,380.283 322.775,380.035 322.273,379.753 321.792,379.437 321.333,379.089 320.899,378.711 320.492,378.304 320.114,377.87 319.766,377.411 319.45,376.93 319.168,376.428 318.92,375.908 318.709,375.372 318.535,374.824 318.399,374.264 318.301,373.697 318.242,373.124 318.222,372.549 "
         id="polyline130" />
      <polyline
         fill="none"
         vector-effect="non-scaling-stroke"
         points="318.222,372.549 318.222,291.523 "
         id="polyline132" />
      <polyline
         fill="none"
         vector-effect="non-scaling-stroke"
         points="318.222,291.523 318.242,290.948 318.301,290.375 318.399,289.808 318.535,289.248 318.709,288.7 318.92,288.164 319.168,287.644 319.45,287.142 319.766,286.661 320.114,286.202 320.492,285.768 320.899,285.361 321.333,284.982 321.792,284.635 322.273,284.319 322.775,284.037 323.295,283.789 323.831,283.578 324.379,283.404 324.939,283.268 325.506,283.17 326.079,283.111 326.654,283.091 "
         id="polyline134" />
      <polyline
         fill="none"
         vector-effect="non-scaling-stroke"
         points="326.654,283.091 368.863,283.091 368.863,240.882 "
         id="polyline136" />
      <polyline
         fill="none"
         vector-effect="non-scaling-stroke"
         points="368.863,240.882 368.883,240.307 368.942,239.734 369.04,239.167 369.176,238.607 369.35,238.059 369.561,237.523 369.809,237.003 370.091,236.501 370.407,236.02 370.755,235.561 371.133,235.127 371.54,234.72 371.974,234.341 372.433,233.994 372.914,233.678 373.416,233.396 373.936,233.148 374.472,232.937 375.02,232.763 375.58,232.627 376.147,232.529 376.72,232.47 377.295,232.45 "
         id="polyline138" />
      <polyline
         fill="none"
         vector-effect="non-scaling-stroke"
         points="377.295,232.45 458.321,232.45 "
         id="polyline140" />
      <polyline
         fill="none"
         vector-effect="non-scaling-stroke"
         points="458.321,232.45 458.896,232.47 459.469,232.529 460.036,232.627 460.596,232.763 461.145,232.937 461.68,233.148 462.2,233.396 462.702,233.678 463.183,233.994 463.642,234.341 464.076,234.72 464.483,235.127 464.862,235.561 465.209,236.02 465.525,236.501 465.807,237.003 466.055,237.523 466.266,238.059 466.44,238.607 466.576,239.167 466.674,239.734 466.733,240.307 466.753,240.882 "
         id="polyline142" />
      <polyline
         fill="none"
         vector-effect="non-scaling-stroke"
         points="466.753,240.882 466.753,283.091 508.962,283.091 "
         id="polyline144" />
      <polyline
         fill="none"
         vector-effect="non-scaling-stroke"
         points="508.962,283.091 509.537,283.111 510.11,283.17 510.677,283.268 511.237,283.404 511.785,283.578 512.321,283.789 512.841,284.037 513.343,284.319 513.824,284.635 514.283,284.982 514.717,285.361 515.124,285.768 515.503,286.202 515.85,286.661 516.166,287.142 516.448,287.644 516.696,288.164 516.907,288.7 517.081,289.248 517.217,289.808 517.315,290.375 517.374,290.948 517.394,291.523 "
         id="polyline146" />
      <polyline
         fill="none"
         vector-effect="non-scaling-stroke"
         points="517.394,291.523 517.394,372.549 "
         id="polyline148" />
      <polyline
         fill="none"
         vector-effect="non-scaling-stroke"
         points="517.394,372.549 517.374,373.124 517.315,373.697 517.217,374.264 517.081,374.824 516.907,375.372 516.696,375.908 516.448,376.428 516.166,376.93 515.85,377.411 515.503,377.87 515.124,378.304 514.717,378.711 514.283,379.089 513.824,379.437 513.343,379.753 512.841,380.035 512.321,380.283 511.785,380.494 511.237,380.668 510.677,380.804 510.11,380.902 509.537,380.961 508.962,380.981 "
         id="polyline150" />
      <polyline
         fill="none"
         vector-effect="non-scaling-stroke"
         points="508.962,380.981 466.753,380.981 466.753,423.19 "
         id="polyline152" />
      <polyline
         fill="none"
         vector-effect="non-scaling-stroke"
         points="466.753,423.19 466.733,423.765 466.674,424.338 466.576,424.905 466.44,425.465 466.266,426.013 466.055,426.549 465.807,427.069 465.525,427.571 465.209,428.052 464.862,428.511 464.483,428.945 464.076,429.352 463.642,429.73 463.183,430.078 462.702,430.394 462.2,430.676 461.68,430.924 461.145,431.135 460.596,431.309 460.036,431.445 459.469,431.543 458.896,431.602 458.321,431.622 "
         id="polyline154" />
      <polyline
         fill="none"
         vector-effect="non-scaling-stroke"
         points="439.864,361.667 439.234,362.842 438.585,364.006 437.251,366.316 435.907,368.619 435.245,369.776 434.596,370.94 433.967,372.115 433.358,373.3 432.763,374.493 432.179,375.691 431.024,378.095 429.852,380.49 "
         id="polyline156" />
      <polyline
         fill="none"
         vector-effect="non-scaling-stroke"
         points="433.117,365.473 432.186,367.29 431.273,369.116 430.357,370.94 429.89,371.848 429.415,372.751 428.929,373.648 428.431,374.539 427.41,376.306 426.364,378.059 425.307,379.807 "
         id="polyline158" />
      <polyline
         fill="none"
         vector-effect="non-scaling-stroke"
         points="400.994,379.392 401.935,378.693 402.892,378.011 403.861,377.342 404.838,376.682 408.775,374.073 410.735,372.757 412.678,371.418 413.64,370.735 414.594,370.042 415.538,369.336 416.473,368.616 "
         id="polyline160" />
      <polyline
         fill="none"
         vector-effect="non-scaling-stroke"
         points="410.966,367.566 408.566,369.288 406.15,370.988 403.722,372.67 401.283,374.339 398.833,375.991 396.365,377.616 395.123,378.414 393.873,379.202 392.616,379.977 391.35,380.738 "
         id="polyline162" />
      <polyline
         fill="none"
         vector-effect="non-scaling-stroke"
         points="361.145,292.438 361.934,292.209 362.729,292.003 363.53,291.818 364.335,291.652 365.143,291.505 365.954,291.373 366.767,291.255 367.581,291.148 369.213,290.96 370.847,290.792 372.481,290.634 373.3,290.567 374.119,290.514 "
         id="polyline164" />
    </g>
    <g
       fill="none"
       stroke="none"
       stroke-opacity="1"
       stroke-width="1"
       stroke-linecap="square"
       stroke-linejoin="bevel"
       font-family="'MS Shell Dlg 2'"
       font-size="17.75px"
       font-weight="400"
       font-style="normal"
       id="g168" />
  </g>
  <metadata
     id="metadata403">
    <rdf:RDF>
      <cc:Work
         rdf:about="">
        <dc:title>Qt SVG Document</dc:title>
      </cc:Work>
    </rdf:RDF>
  </metadata>
</svg>
