<?xml version="1.0" encoding="UTF-8" standalone="no"?>
<svg
   width="100.33379mm"
   height="73.660172mm"
   viewBox="0 0 560.92067 411.80125"
   version="1.2"
   id="svg68"
   sodipodi:docname="logo-brid-blue.svg"
   inkscape:version="1.2 (dc2aedaf03, 2022-05-15)"
   xmlns:inkscape="http://www.inkscape.org/namespaces/inkscape"
   xmlns:sodipodi="http://sodipodi.sourceforge.net/DTD/sodipodi-0.dtd"
   xmlns="http://www.w3.org/2000/svg"
   xmlns:svg="http://www.w3.org/2000/svg"
   xmlns:rdf="http://www.w3.org/1999/02/22-rdf-syntax-ns#"
   xmlns:cc="http://creativecommons.org/ns#"
   xmlns:dc="http://purl.org/dc/elements/1.1/">
  <sodipodi:namedview
     id="namedview70"
     pagecolor="#ffffff"
     bordercolor="#000000"
     borderopacity="0.25"
     inkscape:showpageshadow="2"
     inkscape:pageopacity="0.0"
     inkscape:pagecheckerboard="true"
     inkscape:deskcolor="#d1d1d1"
     inkscape:document-units="mm"
     showgrid="false"
     inkscape:zoom="1.2895084"
     inkscape:cx="144.62876"
     inkscape:cy="145.40425"
     inkscape:window-width="1920"
     inkscape:window-height="1001"
     inkscape:window-x="-9"
     inkscape:window-y="-9"
     inkscape:window-maximized="1"
     inkscape:current-layer="svg68" />
  <title
     id="title2">Qt SVG Document</title>
  <desc
     id="desc4">Generated with Qt</desc>
  <defs
     id="defs6">
    <clipPath
       clipPathUnits="userSpaceOnUse"
       id="clipPath355">
      <rect
         style="fill:none;stroke:#0000d2;stroke-width:1.48149"
         id="rect357"
         width="560.92157"
         height="411.80124"
         x="719.21686"
         y="117.00204" />
    </clipPath>
  </defs>
  <g
     fill="none"
     stroke="#000000"
     stroke-width="1"
     fill-rule="evenodd"
     stroke-linecap="square"
     stroke-linejoin="bevel"
     id="g66"
     clip-path="url(#clipPath355)"
     transform="translate(-719.21837,-117.00204)">
    <g
       fill="none"
       fill-opacity="1"
       stroke="none"
       font-family="'MS Shell Dlg 2'"
       font-size="17.75px"
       font-weight="400"
       font-style="normal"
       id="g10">
      <rect
         x="0"
         y="0"
         width="1864"
         height="662"
         id="rect8" />
    </g>
    <g
       fill="none"
       stroke="none"
       stroke-opacity="1"
       stroke-width="1"
       stroke-linecap="square"
       stroke-linejoin="bevel"
       font-family="'MS Shell Dlg 2'"
       font-size="17.75px"
       font-weight="400"
       font-style="normal"
       id="g12" />
    <g
       fill="none"
       fill-opacity="0"
       stroke="none"
       stroke-opacity="0"
       stroke-width="1"
       stroke-linecap="butt"
       stroke-linejoin="miter"
       stroke-miterlimit="2"
       font-family="'MS Shell Dlg 2'"
       font-size="17.75px"
       font-weight="400"
       font-style="normal"
       id="g14" />
    <g
       fill="none"
       fill-opacity="0"
       stroke="none"
       stroke-opacity="0"
       stroke-width="1"
       stroke-linecap="butt"
       stroke-linejoin="miter"
       stroke-miterlimit="2"
       font-family="'MS Shell Dlg 2'"
       font-size="17.75px"
       font-weight="400"
       font-style="normal"
       id="g16" />
    <g
       fill="#009b50"
       fill-opacity="1"
       stroke="#009b50"
       stroke-opacity="1"
       stroke-width="1"
       stroke-linecap="square"
       stroke-linejoin="bevel"
       font-family="'MS Shell Dlg 2'"
       font-size="17.75px"
       font-weight="400"
       font-style="normal"
       id="g18" />
    <g
       fill="#009b50"
       fill-opacity="1"
       stroke="#009b50"
       stroke-opacity="1"
       stroke-width="1"
       stroke-linecap="butt"
       stroke-linejoin="miter"
       stroke-miterlimit="2"
       font-family="'MS Shell Dlg 2'"
       font-size="17.75px"
       font-weight="400"
       font-style="normal"
       id="g22">
      <path
         vector-effect="non-scaling-stroke"
         fill-rule="evenodd"
         d="m 1117.15,359.186 -2.71,-0.332 -2.7,-0.362 -2.69,-0.392 -2.69,-0.423 -2.68,-0.453 -2.68,-0.482 -2.67,-0.511 -2.67,-0.539 -2.67,-0.568 -2.66,-0.596 -2.65,-0.622 -2.65,-0.65 -2.64,-0.677 -2.64,-0.702 -2.62,-0.728 -2.63,-0.754 -2.61,-0.779 -2.61,-0.803 -2.6,-0.827 -2.6,-0.851 -2.58,-0.875 -2.58,-0.897 -2.57,-0.92 -2.56,-0.943 -2.56,-0.964 -2.54,-0.987 -2.54,-1.009 -2.53,-1.03 -2.51,-1.052 -2.51,-1.074 -2.5,-1.094 -2.49,-1.116 -2.48,-1.136 -2.47,-1.158 -2.47,-1.178 -2.45,-1.198 -2.44,-1.219 -2.43,-1.238 -2.42,-1.259 -2.41,-1.278 -2.4,-1.298 -2.39,-1.317 -2.37,-1.337 -2.37,-1.355 -2.35,-1.375 -2.348,-1.393 -2.332,-1.412 -2.32,-1.43 -2.308,-1.448 -2.297,-1.467 -2.284,-1.484 -2.273,-1.502 -2.26,-1.519 -2.249,-1.536 -2.237,-1.552 -2.225,-1.569 -2.215,-1.583 -2.204,-1.598 -2.193,-1.613 -2.183,-1.627 -2.173,-1.64 -2.162,-1.653 -2.153,-1.665 -2.144,-1.678 0.945,1.103 0.968,1.085 0.988,1.067 1.007,1.052 1.025,1.036 1.042,1.022 1.057,1.008 1.071,0.996 1.083,0.984 1.094,0.973 1.104,0.964 1.112,0.954 2.243,1.885 2.26,1.861 2.27,1.838 2.28,1.818 2.292,1.797 2.304,1.777 2.317,1.755 2.331,1.735 2.344,1.713 2.359,1.693 2.375,1.672 2.391,1.652 2.408,1.63 2.42,1.61 2.45,1.589 2.46,1.568 2.48,1.546 2.49,1.523 2.52,1.5 2.53,1.475 2.54,1.45 2.57,1.425 2.58,1.397 2.59,1.371 2.61,1.342 2.62,1.314 2.64,1.284 2.65,1.254 2.67,1.222 2.68,1.191 2.69,1.158 2.71,1.125 2.72,1.091 2.73,1.056 2.74,1.02 2.75,0.984 2.77,0.947 2.77,0.909 1.4,0.44 1.39,0.43 1.4,0.421 1.4,0.41 1.4,0.401 1.4,0.39 1.41,0.38 1.41,0.37 1.41,0.36 1.41,0.348 1.42,0.339 1.42,0.327 1.42,0.317 1.42,0.306 1.43,0.295 1.42,0.284 1.43,0.274 1.43,0.262 1.43,0.253 1.44,0.242 2.87,0.455 2.88,0.416 2.89,0.38 2.89,0.344 2.9,0.309 2.9,0.277 2.9,0.246 2.91,0.217 2.92,0.188 2.92,0.161 0.95,0.854 0.96,0.845 0.97,0.836 0.98,0.828 0.98,0.82 0.99,0.812 2,1.6 2.02,1.569 2.05,1.54 2.07,1.512 2.09,1.485 2.11,1.458 2.13,1.433 2.15,1.409 2.18,1.387 2.18,1.364 2.21,1.344 2.22,1.324 2.24,1.306 2.25,1.288 2.27,1.271 2.28,1.257 2.29,1.242 2.3,1.228 2.31,1.217 2.32,1.206 2.33,1.196 2.34,1.187 2.35,1.18 4.7,2.34 4.73,2.322 4.73,2.313 9.48,4.633 4.72,2.337 4.72,2.363 2.34,1.194 2.34,1.204 2.34,1.214 2.32,1.226 2.32,1.238 2.3,1.253 2.3,1.268 2.28,1.284 2.27,1.301 2.26,1.32 2.24,1.339 2.23,1.359 2.21,1.381 2.2,1.404 2.18,1.428 2.16,1.452 2.14,1.476 2.12,1.5 2.11,1.523 2.09,1.544 2.07,1.565 2.07,1.584 2.04,1.604 2.04,1.621 -1.99,-0.164 -1.99,-0.14 -1.99,-0.116 -2,-0.09 -2,-0.062 -2.01,-0.032 -2.01,-0.002 -2.02,0.03 -2.02,0.064 -2.03,0.1 -2.03,0.136 -2.04,0.174 -2.05,0.205 -2.05,0.225 -4.1,0.464 -2.05,0.215 -2.05,0.19 -1.02,0.081 -1.02,0.07 -1.01,0.058 -1.02,0.044 -1.01,0.028 -1.01,0.012 -1,-0.006 -1.01,-0.026 -1,-0.047 -0.99,-0.069 -0.99,-0.093 -0.99,-0.119 -0.98,-0.146 -0.98,-0.174 -0.97,-0.203 -0.97,-0.234 -0.97,-0.262 -0.95,-0.291 -0.96,-0.317 -0.95,-0.342 -0.94,-0.368 -0.94,-0.391 -0.94,-0.413 -0.94,-0.435 -0.93,-0.456 -0.93,-0.474 -0.92,-0.493 -0.92,-0.51 -0.92,-0.526 -0.92,-0.541 -0.91,-0.555 -0.91,-0.568 -0.91,-0.579 -0.91,-0.591 -1.81,-1.208 -1.81,-1.239 -1.8,-1.26 -3.61,-2.55 -1.8,-1.273 -1.8,-1.26 -1.81,-1.239 -1.81,-1.211 -1.82,-1.181 -1.82,-1.152 -1.82,-1.123 -1.83,-1.095 -1.83,-1.067 -1.84,-1.039 -1.83,-1.012 -1.84,-0.985 -1.84,-0.958 -1.85,-0.933 -1.84,-0.906 -1.84,-0.881 -1.85,-0.856 -1.84,-0.831 -1.85,-0.806 -1.84,-0.783 -1.85,-0.759 -1.84,-0.735 -1.84,-0.713 -1.84,-0.69 -1.84,-0.667 -1.83,-0.646 -1.83,-0.624 -1.83,-0.603 -1.82,-0.582 -1.82,-0.561 -1.82,-0.542 -1.81,-0.521 -1.81,-0.502 -1.8,-0.484 -1.79,-0.464 -1.79,-0.446 -1.79,-0.427 -1.78,-0.409 -1.77,-0.391 -1.78,-0.373 -1.77,-0.355 -1.77,-0.337 -1.76,-0.32 -1.77,-0.301 -1.77,-0.285 -1.76,-0.266 -1.77,-0.25 -1.76,-0.232 -1.77,-0.215 -1.77,-0.199 -1.78,-0.181 -1.77,-0.164 -1.78,-0.148 -1.79,-0.132 -1.79,-0.115 -1.8,-0.098 -1.8,-0.083 -1.81,-0.066 -1.81,-0.05 -1.82,-0.035 -1.84,-0.019 -1.84,-0.003 -1.85,0.013 -1.86,0.028 -1.87,0.043 -1.88,0.06 -1.88,0.077 -1.9,0.097 -1.9,0.118 -1.91,0.14 -1.91,0.165 -1.92,0.191 -1.92,0.217 -1.91,0.247 -1.92,0.278 -1.91,0.31 -1.92,0.344 -1.9,0.379 -1.9,0.417 -0.95,0.222 -0.95,0.233 -0.94,0.242 -0.95,0.253 -0.94,0.263 -0.93,0.274 -0.94,0.285 -0.93,0.296 -0.93,0.307 -0.93,0.319 -0.92,0.331 -0.92,0.342 -0.92,0.354 -0.91,0.367 -0.91,0.379 -0.91,0.391 -0.44,0.194 -0.41,0.185 -0.19,0.087 -0.19,0.082 -0.17,0.077 -0.16,0.07 -1.18,2.232 -1.21,2.22 -1.22,2.21 -1.24,2.203 -1.25,2.195 -1.26,2.19 -2.54,4.369 -2.56,4.364 -2.54,4.369 -1.26,2.19 -1.25,2.195 -1.24,2.202 -1.22,2.211 -1.2,2.22 -1.19,2.231 -1.16,2.241 -1.15,2.25 -1.13,2.257 -1.12,2.264 -2.219,4.543 -4.381,9.112 -2.203,4.549 -1.113,2.27 -1.122,2.263 2.095,0.312 2.124,0.323 2.15,0.332 2.175,0.342 2.194,0.35 2.22,0.357 2.24,0.365 2.25,0.37 2.27,0.376 2.29,0.38 2.29,0.383 2.31,0.386 4.63,0.778 4.65,0.78 -4.09,29.017 -6.47,-1.27 -6.47,-1.254 -6.48,-1.225 -3.234,-0.597 -3.239,-0.584 -3.241,-0.57 -3.242,-0.553 -3.243,-0.535 -3.246,-0.516 -3.248,-0.494 -3.25,-0.47 -3.253,-0.446 -3.255,-0.418 -3.258,-0.39 -3.262,-0.36 -3.264,-0.327 -3.268,-0.293 -3.272,-0.259 -3.275,-0.223 -3.278,-0.19 -3.281,-0.156 -3.283,-0.123 -3.286,-0.09 -3.288,-0.059 -3.289,-0.028 -3.291,0.004 -3.293,0.033 -3.293,0.063 -3.295,0.092 -3.295,0.121 -3.295,0.149 -3.295,0.176 -3.296,0.203 -3.294,0.229 -3.295,0.255 -3.293,0.28 -3.292,0.305 -3.291,0.329 -3.289,0.352 -3.287,0.376 -3.285,0.397 -3.283,0.42 -3.28,0.441 -3.277,0.462 -3.274,0.482 -3.27,0.501 -3.267,0.521 -3.263,0.539 -3.259,0.557 -3.255,0.574 -3.25,0.591 -3.245,0.608 -3.241,0.624 -3.235,0.639 -3.232,0.655 -3.226,0.67 -3.223,0.686 -3.218,0.7 -3.214,0.714 -3.21,0.729 -3.206,0.742 -2.671,-30.159 4.391,-1.118 4.395,-1.091 4.401,-1.057 2.204,-0.513 2.207,-0.501 2.202,-0.486 1.092,-0.237 1.081,-0.231 1.066,-0.225 1.049,-0.219 1.028,-0.211 1.003,-0.203 0.976,-0.195 0.944,-0.186 0.91,-0.175 0.44,-0.085 0.431,-0.081 0.42,-0.079 0.41,-0.075 0.398,-0.073 0.387,-0.07 0.374,-0.067 0.362,-0.063 0.349,-0.061 0.336,-0.057 2.397,-1.434 2.39,-1.447 2.381,-1.461 2.374,-1.473 2.366,-1.484 2.36,-1.496 2.353,-1.506 2.348,-1.515 4.677,-3.058 4.659,-3.089 4.641,-3.114 4.628,-3.135 4.617,-3.15 4.609,-3.161 4.598,-3.175 4.588,-3.189 4.577,-3.206 4.563,-3.224 4.548,-3.244 4.533,-3.267 -1.214,-0.292 -1.22,-0.305 -1.224,-0.318 -1.229,-0.331 -1.232,-0.344 -1.236,-0.356 -1.239,-0.369 -1.242,-0.381 -1.244,-0.392 -1.247,-0.405 -1.248,-0.416 -1.25,-0.427 -1.251,-0.439 -1.252,-0.45 -1.252,-0.461 -1.252,-0.472 -1.251,-0.482 -1.251,-0.493 -1.25,-0.502 -1.249,-0.513 -2.492,-1.056 -2.482,-1.093 -2.469,-1.131 -2.454,-1.166 -2.436,-1.199 -2.414,-1.233 -2.391,-1.264 -1.186,-0.643 -1.179,-0.65 -1.171,-0.658 -1.163,-0.664 -1.156,-0.672 -1.147,-0.678 -1.139,-0.685 -1.131,-0.691 -1.124,-0.698 -1.116,-0.705 -1.108,-0.712 -1.101,-0.718 -2.18,-1.458 -2.153,-1.484 -2.125,-1.512 -2.1,-1.539 -2.074,-1.567 -2.051,-1.594 -2.029,-1.622 -2.007,-1.649 -1.986,-1.678 -1.967,-1.705 -1.948,-1.733 -1.931,-1.761 -1.914,-1.789 -1.9,-1.818 -1.885,-1.846 -1.872,-1.874 -1.86,-1.903 -1.849,-1.931 -1.838,-1.96 -1.83,-1.989 -1.822,-2.017 -1.811,-2.046 -1.798,-2.072 -1.782,-2.099 -1.763,-2.124 -1.742,-2.149 -1.718,-2.173 -1.692,-2.196 -1.662,-2.217 -1.629,-2.239 -0.802,-1.128 -0.793,-1.132 -0.783,-1.137 -0.774,-1.142 -0.764,-1.146 -0.753,-1.151 -0.742,-1.156 -0.732,-1.159 -0.72,-1.165 -0.708,-1.168 -0.696,-1.172 -0.683,-1.176 -0.671,-1.18 -0.658,-1.184 -0.644,-1.188 -0.63,-1.19 -0.616,-1.195 -0.602,-1.197 -0.587,-1.201 -0.571,-1.204 -0.557,-1.207 -0.54,-1.209 -0.524,-1.213 -0.507,-1.215 -0.491,-1.218 -0.474,-1.22 -0.456,-1.222 -0.438,-1.225 -0.419,-1.227 -0.402,-1.229 -0.382,-1.23 -0.363,-1.233 -0.344,-1.234 -0.323,-1.236 -0.304,-1.238 -0.282,-1.238 -0.262,-1.24 -0.241,-1.242 -0.218,-1.242 -0.197,-1.243 -0.175,-1.244 -0.152,-1.245 -0.129,-1.246 -0.105,-1.246 -0.082,-1.246 -0.058,-1.247 -0.034,-1.247 -0.011,-1.248 0.013,-1.247 0.034,-1.249 0.056,-1.249 0.076,-1.25 0.096,-1.25 0.115,-1.251 0.133,-1.253 0.15,-1.254 0.167,-1.254 0.183,-1.257 0.198,-1.257 0.212,-1.259 0.226,-1.261 0.238,-1.262 0.251,-1.265 0.261,-1.266 0.554,-2.538 0.589,-2.548 0.619,-2.557 0.642,-2.568 0.659,-2.579 0.67,-2.591 0.674,-2.603 0.674,-2.618 0.665,-2.632 0.652,-2.647 0.631,-2.664 0.606,-2.68 0.573,-2.698 0.273,-1.356 0.262,-1.361 0.251,-1.365 0.239,-1.369 0.225,-1.372 0.212,-1.376 0.197,-1.377 0.181,-1.378 0.165,-1.378 0.147,-1.378 0.128,-1.377 0.108,-1.376 0.089,-1.373 0.066,-1.369 0.045,-1.366 0.021,-1.361 -0.002,-1.356 -0.028,-1.349 -0.054,-1.343 -0.081,-1.335 -0.108,-1.327 -0.138,-1.318 -0.167,-1.308 -0.197,-1.298 -0.23,-1.286 -0.261,-1.275 -0.295,-1.262 -0.33,-1.249 -0.364,-1.234 -0.401,-1.22 -0.215,-0.604 -0.223,-0.601 -0.233,-0.596 -0.243,-0.592 -0.253,-0.588 -0.262,-0.583 -0.272,-0.579 -0.283,-0.574 -0.292,-0.57 -0.303,-0.566 -0.314,-0.56 -0.324,-0.555 -0.334,-0.551 -0.344,-0.546 -0.717,-1.079 -0.751,-1.064 -0.78,-1.05 -0.807,-1.039 -0.828,-1.03 -0.846,-1.022 -0.86,-1.016 -3.495,-4.052 -0.868,-1.02 -0.857,-1.026 -0.843,-1.035 -0.824,-1.045 -0.801,-1.058 -0.775,-1.073 -0.743,-1.09 -0.36,-0.552 -0.349,-0.556 -0.341,-0.562 -0.33,-0.568 -0.319,-0.573 -0.308,-0.578 -0.296,-0.586 -0.284,-0.591 -0.271,-0.598 -0.258,-0.605 -1.514,-0.542 -1.503,-0.543 -1.493,-0.546 -1.481,-0.549 -1.471,-0.553 -1.461,-0.558 -1.45,-0.565 -1.439,-0.572 -1.429,-0.58 -1.418,-0.588 -1.407,-0.599 -1.397,-0.61 -1.387,-0.621 -1.376,-0.635 -1.366,-0.648 -1.355,-0.662 -1.345,-0.678 -1.334,-0.695 -1.324,-0.712 -1.314,-0.731 -1.304,-0.749 -1.294,-0.767 -1.284,-0.785 -1.275,-0.801 -1.266,-0.816 -1.257,-0.829 -1.249,-0.844 -1.242,-0.855 -1.234,-0.866 -1.227,-0.877 -1.22,-0.885 -1.214,-0.894 1.493,-0.446 1.499,-0.423 1.506,-0.401 1.512,-0.38 1.516,-0.359 1.522,-0.341 1.526,-0.322 1.529,-0.304 1.533,-0.288 1.535,-0.272 1.538,-0.257 1.539,-0.243 1.541,-0.23 1.543,-0.219 3.088,-0.405 3.094,-0.37 3.097,-0.344 3.099,-0.325 3.1,-0.315 3.101,-0.309 3.102,-0.29 1.552,-0.133 1.553,-0.123 1.554,-0.11 1.554,-0.097 0.59,-0.544 0.607,-0.53 0.624,-0.517 0.64,-0.503 0.657,-0.49 0.672,-0.477 0.688,-0.463 0.703,-0.451 0.717,-0.438 0.731,-0.425 0.744,-0.413 0.758,-0.4 0.771,-0.388 0.783,-0.376 0.795,-0.365 0.806,-0.352 0.818,-0.342 0.828,-0.329 0.839,-0.319 0.848,-0.307 0.858,-0.296 0.867,-0.286 0.875,-0.275 0.884,-0.264 0.891,-0.254 0.899,-0.244 0.906,-0.234 0.912,-0.224 0.918,-0.214 0.924,-0.205 0.929,-0.195 0.934,-0.186 1.881,-0.345 1.895,-0.309 1.906,-0.275 1.913,-0.243 1.918,-0.211 1.919,-0.18 1.916,-0.151 1.91,-0.123 1.901,-0.097 1.889,-0.071 1.876,-0.045 1.863,-0.021 1.851,0.003 1.838,0.028 1.826,0.052 1.813,0.075 1.802,0.099 1.789,0.122 1.778,0.144 1.766,0.167 1.755,0.189 1.743,0.21 1.732,0.232 1.721,0.254 1.711,0.274 1.699,0.294 1.689,0.316 1.678,0.335 1.668,0.354 1.658,0.374 1.648,0.394 1.638,0.411 1.629,0.431 1.619,0.448 1.609,0.467 1.6,0.484 1.591,0.501 1.582,0.519 1.573,0.534 1.565,0.552 1.555,0.567 1.548,0.583 1.539,0.599 1.531,0.614 1.523,0.628 1.516,0.643 1.507,0.658 1.5,0.671 1.493,0.685 1.486,0.699 1.478,0.711 1.472,0.724 1.464,0.737 1.458,0.748 1.452,0.761 1.445,0.772 1.439,0.784 1.433,0.794 1.427,0.805 1.421,0.815 1.416,0.825 1.41,0.835 1.405,0.845 1.399,0.853 2.785,1.734 2.765,1.767 2.746,1.799 2.728,1.831 2.71,1.862 2.692,1.892 2.675,1.922 2.658,1.95 2.642,1.979 2.625,2.005 2.61,2.032 2.595,2.058 2.58,2.083 2.565,2.107 2.551,2.13 2.538,2.153 2.524,2.175 2.511,2.196 2.498,2.217 2.486,2.237 2.475,2.255 2.462,2.273 2.452,2.291 2.442,2.308 2.43,2.323 2.421,2.339 2.412,2.353 2.402,2.367 2.394,2.379 2.385,2.392 2.377,2.403 2.37,2.414 2.362,2.424 2.356,2.433 4.692,4.89 4.672,4.917 4.65,4.939 4.63,4.955 4.62,4.964 9.22,9.932 4.59,4.956 4.6,4.942 4.6,4.92 4.6,4.896 4.61,4.874 4.6,4.863 4.59,4.858 4.58,4.863 4.56,4.875 4.53,4.895 2.26,2.459 2.24,2.466 2.24,2.476 2.23,2.486 2.22,2.498 2.21,2.51 2.2,2.523 2.18,2.538 2.18,2.554 2.16,2.57 4.29,5.173 4.29,5.175 2.16,2.573 2.17,2.556 2.2,2.531 1.1,1.254 1.12,1.246 1.12,1.237 1.12,1.227 1.14,1.216 1.15,1.205 m -236.931,119.69 1.303,-0.118 1.319,-0.113 1.336,-0.11 1.351,-0.106 1.366,-0.102 1.379,-0.098 1.393,-0.093 1.406,-0.09 1.418,-0.085 1.429,-0.081 1.44,-0.077 1.45,-0.072 2.927,-0.13 2.959,-0.113 2.986,-0.093 3.007,-0.074 3.022,-0.053 3.034,-0.033 3.038,-0.013 3.039,0.01 3.036,0.03 3.032,0.05 3.025,0.071 3.015,0.09 3.004,0.108 2.991,0.127 2.976,0.144 2.957,0.161 2.938,0.177 2.916,0.193 2.891,0.209 2.865,0.223 2.836,0.237 2.806,0.25 2.773,0.264 2.738,0.276 2.7,0.287 1.336,0.148 1.325,0.151 4.024,-6.657 2,-3.335 1.984,-3.345 1.961,-3.358 1.932,-3.374 0.953,-1.694 0.943,-1.7 0.932,-1.705 0.92,-1.712 0.91,-1.717 0.9,-1.723 1.776,-3.458 1.753,-3.471 1.739,-3.478 3.477,-6.957 1.755,-3.468 1.79,-3.454 -0.27,0.147 -0.29,0.155 -0.3,0.163 -0.32,0.17 -0.34,0.177 -0.34,0.182 -0.36,0.189 -0.37,0.193 -0.387,0.199 -0.395,0.202 -0.405,0.207 -0.415,0.21 -0.857,0.428 -0.89,0.437 -0.917,0.44 -0.939,0.441 -0.957,0.439 -0.969,0.431 -0.976,0.421 -0.982,0.409 -0.986,0.396 -0.99,0.385 -0.995,0.372 -0.999,0.36 -1.004,0.348 -1.007,0.336 -1.011,0.325 -1.014,0.312 -1.018,0.301 -1.021,0.29 -1.024,0.277 -1.028,0.267 -1.03,0.255 -1.032,0.243 -1.036,0.233 -1.037,0.221 -1.04,0.21 -1.042,0.199 -1.044,0.188 -1.045,0.178 -1.047,0.166 -1.049,0.156 -1.049,0.145 -1.051,0.135 -1.052,0.124 -1.052,0.113 -1.054,0.104 -1.053,0.093 -1.055,0.082 -1.054,0.073 -2.108,0.115 -2.107,0.076 -2.105,0.036 -2.102,-0.002 -2.096,-0.04 -2.091,-0.078 -2.083,-0.114 -2.074,-0.15 -2.065,-0.186 -2.054,-0.22 -1.776,1.378 -1.787,1.365 -1.797,1.352 -1.806,1.339 -1.814,1.328 -1.823,1.316 -1.83,1.307 -1.838,1.297 -3.693,2.569 -3.715,2.539 -3.732,2.517 -3.744,2.5 -7.509,4.972 -3.755,2.484 -3.747,2.493 -3.728,2.516 -1.852,1.27 -1.842,1.281 -1.831,1.294 -1.818,1.308 -1.804,1.324 -1.787,1.341"
         id="path20" />
    </g>
    <g
       fill="#009b50"
       fill-opacity="1"
       stroke="#009b50"
       stroke-opacity="1"
       stroke-width="1"
       stroke-linecap="square"
       stroke-linejoin="bevel"
       font-family="'MS Shell Dlg 2'"
       font-size="17.75px"
       font-weight="400"
       font-style="normal"
       id="g62">
      <polyline
         fill="none"
         vector-effect="non-scaling-stroke"
         points="1267.5,452.311 1265.5,452.146 1263.5,452.005 1261.5,451.889 1259.49,451.799 1257.48,451.737 1255.46,451.705 1253.44,451.704 1251.41,451.736 1249.38,451.802 1247.34,451.903 1245.29,452.042 1243.24,452.219 1241.18,452.426 1239.12,452.654 1234.99,453.12 1232.93,453.335 1230.88,453.522 1229.85,453.602 1228.83,453.67 1227.81,453.725 1226.79,453.767 1225.77,453.792 1224.76,453.8 1223.75,453.79 1222.74,453.76 1221.74,453.708 1220.74,453.632 1219.74,453.533 1218.75,453.407 1217.76,453.254 1216.78,453.071 1215.8,452.859 1214.83,452.616 1213.86,452.345 1212.9,452.046 1211.94,451.719 1210.99,451.368 1210.04,450.991 1209.1,450.591 1208.15,450.169 1207.22,449.725 1206.28,449.261 1205.35,448.778 1204.42,448.277 1203.49,447.759 1202.57,447.225 1201.65,446.676 1200.73,446.114 1199.82,445.539 1198.9,444.952 1197.99,444.355 1196.17,443.134 1194.35,441.884 1192.54,440.614 1188.92,438.048 1187.11,436.77 1185.29,435.507 1183.48,434.268 1181.65,433.058 1179.83,431.877 1177.99,430.726 1176.16,429.604 1174.32,428.51 1172.48,427.444 1170.63,426.407 1168.79,425.396 1166.94,424.413 1165.09,423.457 1163.23,422.527 1161.38,421.623 1159.52,420.745 1157.67,419.892 1155.81,419.064 1153.96,418.26 1152.1,417.481 1150.25,416.726 1148.4,415.994 1146.55,415.285 1144.7,414.599 1142.86,413.935 1141.01,413.294 1139.17,412.674 1137.34,412.075 1135.5,411.497 1133.67,410.94 1131.85,410.404 1130.03,409.887 1128.22,409.389 1126.41,408.911 1124.61,408.451 1122.81,408.01 1121.02,407.588 1119.23,407.184 1117.44,406.798 1115.66,406.431 1113.88,406.082 1112.11,405.751 1110.33,405.437 1108.55,405.142 1106.78,404.864 1105.01,404.604 1103.23,404.361 1101.45,404.135 1099.67,403.927 1097.89,403.736 1096.11,403.562 1094.32,403.404 1092.53,403.264 1090.73,403.14 1088.93,403.033 1087.12,402.942 1085.3,402.867 1083.48,402.809 1081.65,402.766 1079.81,402.74 1077.97,402.73 1076.11,402.735 1074.25,402.756 1072.37,402.793 1070.49,402.845 1068.59,402.915 1066.69,403.004 1064.78,403.113 1062.86,403.244 1060.94,403.4 1059.02,403.58 1057.09,403.788 1055.16,404.024 1053.24,404.291 1051.31,404.59 1049.39,404.922 1047.47,405.29 1045.55,405.694 1043.64,406.137 1042.69,406.374 1041.74,406.62 1040.8,406.877 1039.85,407.145 1038.91,407.424 1037.97,407.714 1037.03,408.015 1036.1,408.327 1035.17,408.651 1034.24,408.987 1033.32,409.335 1032.4,409.695 1031.48,410.068 1030.57,410.454 1029.67,410.848 1029.24,411.037 1029.04,411.127 1028.85,411.213 1028.67,411.293 1028.5,411.368 1028.35,411.435 1028.22,411.495 1028.1,411.547 1028,411.589 1027.93,411.621 1027.87,411.643 "
         id="polyline24" />
      <polyline
         fill="none"
         vector-effect="non-scaling-stroke"
         points="1002.8,425.786 1002.53,425.931 1002.24,426.085 1001.94,426.247 1001.63,426.415 1001.3,426.591 1000.95,426.773 1000.59,426.96 1000.22,427.153 999.841,427.351 999.448,427.554 999.043,427.76 998.629,427.97 997.773,428.399 996.884,428.835 995.966,429.277 995.026,429.72 994.068,430.16 993.097,430.593 992.118,431.017 991.134,431.428 990.146,431.826 989.152,432.213 988.155,432.587 987.153,432.949 986.147,433.299 985.137,433.637 984.123,433.963 983.106,434.278 982.085,434.58 981.061,434.871 980.034,435.15 979.004,435.418 977.97,435.674 976.935,435.919 975.896,436.153 974.856,436.375 973.813,436.586 972.768,436.787 971.721,436.976 970.673,437.154 969.622,437.321 968.571,437.477 967.518,437.623 966.464,437.758 965.409,437.883 964.353,437.997 963.297,438.1 962.24,438.194 961.182,438.277 960.125,438.349 959.068,438.412 958.01,438.465 955.896,438.54 953.785,438.576 951.678,438.574 949.575,438.533 947.478,438.454 945.389,438.339 943.308,438.188 941.238,438 939.178,437.778 "
         id="polyline26" />
      <polyline
         fill="none"
         vector-effect="non-scaling-stroke"
         points="918.163,434.123 916.949,433.833 915.729,433.531 914.504,433.216 913.275,432.887 912.042,432.546 910.806,432.192 909.566,431.826 908.323,431.448 907.077,431.058 905.83,430.655 904.58,430.242 903.329,429.816 902.077,429.379 900.824,428.931 899.57,428.472 898.316,428.003 897.063,427.522 895.81,427.031 894.558,426.53 893.308,426.019 890.812,424.967 888.326,423.876 885.852,422.748 883.393,421.584 880.952,420.387 878.532,419.156 876.135,417.894 874.947,417.251 873.765,416.602 872.591,415.945 871.424,415.281 870.266,414.61 869.116,413.932 867.973,413.248 866.839,412.557 865.713,411.859 864.594,411.155 863.483,410.443 862.379,409.725 860.193,408.269 858.036,406.785 855.905,405.274 853.8,403.735 851.721,402.169 849.665,400.575 847.632,398.954 845.621,397.305 843.631,395.628 841.66,393.923 839.708,392.19 837.773,390.428 835.855,388.639 833.952,386.821 832.063,384.975 830.188,383.101 828.325,381.198 826.473,379.266 824.631,377.306 822.798,375.317 820.973,373.299 819.159,371.253 817.358,369.179 815.573,367.08 813.806,364.954 812.06,362.804 810.338,360.63 808.643,358.433 806.977,356.214 805.344,353.973 804.54,352.845 803.745,351.712 802.959,350.574 802.183,349.432 801.418,348.284 800.662,347.132 799.918,345.976 799.184,344.815 798.462,343.65 797.752,342.48 797.054,341.307 796.368,340.13 795.695,338.949 795.036,337.764 794.389,336.575 793.757,335.383 793.139,334.188 792.535,332.989 791.946,331.787 791.372,330.582 790.814,329.374 790.271,328.163 789.745,326.949 789.235,325.732 788.743,324.513 788.267,323.292 787.809,322.068 787.369,320.842 786.947,319.614 786.544,318.384 786.16,317.152 785.795,315.917 785.449,314.682 785.124,313.444 784.819,312.206 784.534,310.965 784.27,309.724 784.028,308.481 783.808,307.237 783.609,305.993 783.433,304.747 783.279,303.5 783.149,302.253 783.041,301.006 782.958,299.758 782.898,298.509 782.863,297.261 782.851,296.012 782.863,294.762 782.896,293.512 782.951,292.262 783.026,291.011 783.121,289.759 783.235,288.506 783.367,287.252 783.517,285.996 783.684,284.74 783.866,283.482 784.063,282.223 784.275,280.963 784.501,279.7 784.739,278.436 784.989,277.171 785.251,275.903 785.805,273.361 786.394,270.811 787.013,268.251 787.656,265.68 788.315,263.098 788.986,260.504 789.661,257.897 790.335,255.276 791.002,252.641 791.654,249.99 792.287,247.323 792.893,244.64 793.467,241.938 793.74,240.581 794.003,239.218 794.254,237.852 794.493,236.481 794.719,235.106 794.931,233.729 795.128,232.351 795.31,230.971 795.474,229.591 795.621,228.211 795.749,226.832 795.858,225.455 795.946,224.08 796.012,222.709 796.057,221.342 796.078,219.979 796.074,218.622 796.046,217.271 795.992,215.926 795.91,214.59 795.801,213.261 795.662,211.942 795.494,210.632 795.296,209.333 795.065,208.045 794.802,206.769 794.506,205.506 794.175,204.256 793.808,203.021 793.406,201.8 793.191,201.195 792.966,200.594 792.732,199.998 792.488,199.405 792.234,198.817 791.971,198.233 791.698,197.654 791.414,197.079 791.12,196.509 790.816,195.944 790.501,195.383 790.176,194.827 789.84,194.276 789.495,193.73 788.775,192.65 788.022,191.585 787.239,190.534 786.431,189.495 785.601,188.465 784.753,187.442 783.891,186.424 780.391,182.367 779.523,181.346 778.665,180.318 777.823,179.281 776.999,178.233 776.198,177.173 775.424,176.097 774.682,175.005 774.324,174.452 773.975,173.894 773.635,173.331 773.306,172.762 772.988,172.188 772.682,171.607 772.387,171.02 772.104,170.427 771.834,169.827 771.578,169.22 "
         id="polyline28" />
      <polyline
         fill="none"
         vector-effect="non-scaling-stroke"
         points="777.486,139.873 778.075,139.328 778.681,138.797 779.305,138.28 779.944,137.776 780.6,137.286 781.272,136.808 781.959,136.344 782.661,135.893 783.378,135.455 784.108,135.029 784.853,134.616 785.61,134.215 786.38,133.826 787.163,133.449 787.957,133.084 788.764,132.731 789.581,132.389 790.409,132.059 791.247,131.74 792.095,131.433 792.953,131.136 793.819,130.85 794.694,130.574 795.578,130.309 796.469,130.055 797.368,129.81 798.273,129.576 799.185,129.352 800.103,129.137 801.027,128.932 801.956,128.737 802.89,128.55 804.771,128.205 806.666,127.895 808.572,127.619 810.485,127.376 812.403,127.164 814.322,126.983 816.238,126.831 818.149,126.708 820.051,126.611 821.94,126.539 823.816,126.493 825.68,126.472 827.531,126.475 829.37,126.503 831.196,126.554 833.01,126.629 834.811,126.727 836.601,126.848 838.38,126.992 840.146,127.159 841.901,127.347 843.645,127.557 845.377,127.789 847.099,128.042 848.81,128.316 850.509,128.61 852.199,128.925 853.877,129.26 855.546,129.614 857.204,129.988 858.853,130.381 860.491,130.793 862.12,131.223 863.739,131.671 865.349,132.137 866.949,132.621 868.54,133.122 870.123,133.64 871.696,134.175 873.261,134.726 874.817,135.293 876.365,135.876 877.904,136.475 879.436,137.088 880.959,137.717 882.475,138.36 883.983,139.017 885.483,139.688 886.976,140.373 888.462,141.072 889.941,141.783 891.412,142.507 892.877,143.243 894.336,143.992 895.787,144.753 897.233,145.525 898.672,146.308 900.105,147.102 901.532,147.907 902.954,148.722 904.37,149.548 905.78,150.383 907.185,151.227 908.585,152.081 911.37,153.814 914.135,155.581 916.882,157.38 919.61,159.211 922.32,161.073 925.013,162.965 927.688,164.887 930.347,166.838 932.989,168.816 935.615,170.822 938.225,172.854 940.821,174.912 943.401,176.995 945.966,179.102 948.518,181.232 951.055,183.386 953.58,185.561 956.091,187.757 958.59,189.974 961.076,192.211 963.551,194.466 966.014,196.74 968.467,199.031 970.908,201.339 973.339,203.662 975.761,206.001 978.172,208.355 980.575,210.721 982.969,213.101 985.354,215.493 987.732,217.897 990.102,220.311 992.465,222.735 994.821,225.168 999.514,230.059 1004.18,234.977 1008.83,239.916 1013.47,244.871 1018.09,249.836 1027.3,259.769 1031.9,264.726 1036.5,269.668 1041.1,274.589 1045.71,279.485 1050.31,284.36 1054.91,289.223 1059.5,294.082 1064.08,298.945 1068.64,303.821 1073.18,308.717 1075.43,311.176 1077.68,313.643 1079.92,316.119 1082.15,318.605 1084.37,321.103 1086.58,323.614 1088.77,326.137 1090.96,328.676 1093.13,331.23 1095.29,333.8 1099.59,338.973 1103.88,344.149 1106.04,346.723 1108.21,349.278 1110.4,351.81 1111.51,353.064 1112.62,354.31 1113.74,355.547 1114.87,356.774 1116.01,357.991 1117.16,359.195 "
         id="polyline30" />
      <polyline
         fill="none"
         vector-effect="non-scaling-stroke"
         points="1124.9,366.713 1125.86,367.566 1126.82,368.411 1127.79,369.248 1128.77,370.076 1129.75,370.896 1130.74,371.708 1132.74,373.309 1134.76,374.879 1136.81,376.419 1138.88,377.932 1140.97,379.417 1143.08,380.875 1145.21,382.309 1147.37,383.719 1149.54,385.105 1151.73,386.47 1153.93,387.814 1156.16,389.139 1158.39,390.444 1160.65,391.733 1162.91,393.005 1165.19,394.261 1167.48,395.503 1169.79,396.733 1172.1,397.95 1174.42,399.156 1176.75,400.352 1179.09,401.54 1181.43,402.719 1186.14,405.06 1190.87,407.382 1195.6,409.696 1205.08,414.33 1209.81,416.668 1214.52,419.031 1216.87,420.225 1219.21,421.429 1221.54,422.643 1223.87,423.869 1226.18,425.109 1228.49,426.362 1230.79,427.63 1233.07,428.914 1235.34,430.216 1237.6,431.536 1239.84,432.875 1242.07,434.235 1244.28,435.616 1246.48,437.02 1248.66,438.448 1250.82,439.901 1252.96,441.378 1255.08,442.878 1257.19,444.401 1259.28,445.946 1261.36,447.511 1263.42,449.096 1265.47,450.7 1267.5,452.321 "
         id="polyline32" />
      <polyline
         fill="none"
         vector-effect="non-scaling-stroke"
         points="959.598,289.458 961.742,291.136 963.895,292.801 966.058,294.454 968.231,296.095 970.414,297.721 972.607,299.334 974.811,300.933 977.026,302.516 979.252,304.084 981.489,305.637 983.738,307.173 985.998,308.692 988.271,310.194 990.555,311.679 992.852,313.145 995.161,314.594 997.481,316.024 999.813,317.436 1002.16,318.829 1004.51,320.204 1006.88,321.559 1009.26,322.896 1011.64,324.213 1014.04,325.511 1016.45,326.789 1018.87,328.048 1021.3,329.287 1023.75,330.505 1026.2,331.704 1028.66,332.882 1031.13,334.039 1033.61,335.176 1036.1,336.291 1038.6,337.386 1041.11,338.459 1043.63,339.511 1046.16,340.542 1048.69,341.551 1051.24,342.537 1053.79,343.502 1056.35,344.445 1058.92,345.365 1061.5,346.262 1064.09,347.136 1066.68,347.988 1069.28,348.815 1071.89,349.618 1074.51,350.397 1077.13,351.15 1079.76,351.879 1082.4,352.581 1085.04,353.257 1087.69,353.907 1090.34,354.53 1093,355.125 1095.67,355.693 1098.34,356.233 1101.01,356.744 1103.69,357.226 1106.37,357.678 1109.06,358.101 1111.75,358.494 1114.45,358.856 1117.16,359.187 "
         id="polyline34" />
      <polyline
         fill="none"
         vector-effect="non-scaling-stroke"
         points="959.599,289.458 960.544,290.561 961.512,291.646 962.5,292.714 963.507,293.765 964.532,294.802 965.574,295.823 966.632,296.832 967.702,297.828 968.786,298.812 969.88,299.785 970.984,300.749 972.096,301.703 974.339,303.589 976.599,305.449 978.869,307.288 981.15,309.106 983.443,310.904 985.747,312.68 988.064,314.435 990.395,316.17 992.739,317.884 995.099,319.577 997.474,321.249 999.865,322.901 1002.27,324.532 1004.7,326.142 1007.14,327.731 1009.6,329.299 1012.08,330.845 1014.58,332.368 1017.09,333.868 1019.62,335.343 1022.17,336.793 1024.73,338.218 1027.31,339.616 1029.91,340.986 1032.52,342.329 1035.14,343.643 1037.78,344.927 1040.43,346.18 1043.1,347.403 1045.78,348.594 1048.47,349.752 1051.18,350.877 1053.9,351.968 1056.63,353.024 1059.37,354.044 1062.12,355.028 1064.89,355.975 1067.66,356.884 1069.06,357.324 1070.45,357.754 1071.85,358.174 1073.25,358.585 1074.65,358.985 1076.06,359.376 1077.46,359.756 1078.87,360.125 1080.28,360.485 1081.7,360.834 1083.11,361.172 1084.53,361.499 1085.95,361.816 1087.37,362.122 1088.8,362.417 1090.23,362.701 1091.65,362.974 1093.09,363.237 1094.52,363.489 1095.95,363.732 1098.83,364.186 1101.71,364.602 1104.59,364.982 1107.48,365.325 1110.38,365.635 1113.28,365.912 1116.19,366.158 1119.1,366.374 1122.02,366.562 1124.93,366.723 "
         id="polyline36" />
      <polyline
         fill="none"
         vector-effect="non-scaling-stroke"
         points="1026.38,488.597 1021.7,487.813 1017.04,487.031 1014.72,486.642 1012.41,486.256 1010.11,485.874 1007.83,485.496 1005.56,485.124 1003.31,484.757 1001.08,484.398 998.871,484.046 996.684,483.703 994.523,483.369 992.388,483.045 990.281,482.732 "
         id="polyline38" />
      <polyline
         fill="none"
         vector-effect="non-scaling-stroke"
         points="973.303,480.465 971.973,480.313 970.634,480.164 969.284,480.017 967.925,479.873 965.178,479.595 962.396,479.329 959.58,479.076 956.733,478.836 953.857,478.611 950.954,478.4 948.026,478.205 945.076,478.025 942.106,477.862 939.118,477.716 936.114,477.588 933.096,477.478 930.067,477.387 927.028,477.315 923.983,477.263 920.932,477.232 917.879,477.222 914.826,477.234 911.778,477.267 908.74,477.32 905.719,477.394 902.719,477.488 899.746,477.6 896.805,477.731 895.348,477.804 893.902,477.881 892.466,477.962 891.042,478.048 889.629,478.138 888.23,478.232 886.844,478.331 885.473,478.433 884.116,478.54 882.775,478.65 881.45,478.765 880.142,478.883 "
         id="polyline40" />
      <polyline
         fill="none"
         vector-effect="non-scaling-stroke"
         points="844.137,483.799 843.815,483.852 843.478,483.909 843.127,483.969 842.762,484.033 842.384,484.1 841.993,484.17 841.589,484.244 841.174,484.32 840.747,484.4 840.309,484.482 839.86,484.568 839.401,484.656 838.455,484.84 837.475,485.034 836.462,485.237 835.423,485.45 834.359,485.67 833.275,485.897 832.174,486.131 831.061,486.371 828.81,486.866 826.549,487.376 824.292,487.899 822.037,488.434 819.784,488.979 815.283,490.096 810.786,491.24 "
         id="polyline42" />
      <polyline
         fill="none"
         vector-effect="non-scaling-stroke"
         points="1022.36,517.631 1015.89,516.36 1009.41,515.104 1002.93,513.878 999.694,513.28 996.452,512.695 993.209,512.124 989.964,511.57 986.718,511.034 983.469,510.517 980.219,510.022 976.966,509.551 973.71,509.104 970.452,508.685 967.191,508.294 963.927,507.933 960.659,507.605 957.388,507.311 954.114,507.052 950.836,506.827 947.555,506.637 944.272,506.48 940.985,506.357 937.697,506.266 934.406,506.206 931.114,506.178 927.82,506.181 924.524,506.215 921.228,506.277 917.93,506.369 914.633,506.49 911.334,506.639 908.036,506.815 904.738,507.018 901.44,507.247 898.143,507.502 894.847,507.783 891.552,508.088 888.258,508.417 884.966,508.77 881.676,509.145 878.388,509.543 875.103,509.963 871.82,510.405 868.54,510.867 865.263,511.349 861.99,511.851 858.72,512.373 855.454,512.912 852.192,513.47 848.935,514.045 845.682,514.637 842.434,515.245 839.191,515.87 835.952,516.51 832.718,517.166 829.488,517.837 826.263,518.523 823.042,519.224 819.825,519.939 816.613,520.669 813.404,521.412 "
         id="polyline44" />
      <polyline
         fill="none"
         vector-effect="non-scaling-stroke"
         points="728.217,147.105 729.45,148.013 730.689,148.913 731.935,149.803 733.188,150.683 734.449,151.551 735.719,152.407 736.996,153.25 738.283,154.077 739.578,154.889 740.883,155.685 742.198,156.462 743.524,157.221 744.86,157.96 746.206,158.681 747.563,159.383 748.931,160.069 750.31,160.739 751.699,161.394 753.1,162.035 754.511,162.663 755.932,163.28 757.365,163.885 758.809,164.48 760.263,165.066 761.728,165.645 763.205,166.216 764.692,166.781 766.19,167.341 767.699,167.897 769.22,168.45 770.751,169.001 772.293,169.551 "
         id="polyline46" />
      <polyline
         fill="none"
         vector-effect="non-scaling-stroke"
         points="810.796,491.233 813.479,521.526 "
         id="polyline48" />
      <polyline
         fill="none"
         vector-effect="non-scaling-stroke"
         points="1022.22,517.773 1026.35,488.583 "
         id="polyline50" />
      <polyline
         fill="none"
         vector-effect="non-scaling-stroke"
         points="1028.49,411.268 1027.3,413.514 1026.08,415.749 1024.85,417.974 1023.61,420.19 1022.35,422.4 1021.08,424.604 1018.52,429.001 1015.95,433.391 1013.39,437.788 1012.12,439.992 1010.87,442.201 1009.62,444.417 1008.39,446.642 1007.18,448.877 1005.99,451.122 1004.82,453.378 1003.67,455.642 1002.53,457.914 1001.4,460.193 999.174,464.765 994.765,473.934 992.547,478.512 991.426,480.795 990.294,483.072 "
         id="polyline52" />
      <polyline
         fill="none"
         vector-effect="non-scaling-stroke"
         points="1002.75,425.786 1000.96,429.244 999.199,432.717 995.716,439.683 993.975,443.166 992.22,446.642 990.442,450.105 989.541,451.83 988.63,453.549 987.708,455.263 986.774,456.971 985.83,458.673 984.876,460.369 982.942,463.748 980.978,467.11 978.991,470.46 976.988,473.8 972.959,480.465 "
         id="polyline54" />
      <polyline
         fill="none"
         vector-effect="non-scaling-stroke"
         points="880.21,478.883 881.998,477.541 883.802,476.217 885.62,474.909 887.452,473.614 889.295,472.333 891.147,471.062 894.876,468.545 898.625,466.051 902.381,463.566 909.893,458.593 913.638,456.092 917.371,453.574 921.087,451.034 924.782,448.464 926.62,447.166 928.451,445.859 930.274,444.542 932.089,443.214 933.896,441.874 935.693,440.522 937.481,439.157 939.258,437.778 "
         id="polyline56" />
      <polyline
         fill="none"
         vector-effect="non-scaling-stroke"
         points="918.249,433.769 913.68,437.065 909.094,440.338 904.494,443.59 899.88,446.824 895.254,450.041 890.617,453.242 885.97,456.431 881.315,459.607 876.648,462.768 871.968,465.909 867.271,469.024 864.915,470.569 862.553,472.107 860.186,473.635 857.813,475.153 855.433,476.661 853.046,478.157 850.652,479.641 848.25,481.113 845.84,482.572 843.422,484.016 "
         id="polyline58" />
      <polyline
         fill="none"
         vector-effect="non-scaling-stroke"
         points="728.2,147.181 729.7,146.732 731.208,146.305 732.721,145.901 734.241,145.519 735.766,145.156 737.295,144.814 738.829,144.489 740.367,144.183 741.908,143.894 743.452,143.62 744.997,143.361 746.545,143.117 748.094,142.886 749.645,142.666 752.751,142.259 755.861,141.888 758.974,141.543 765.207,140.899 768.325,140.59 771.444,140.299 773.004,140.167 774.566,140.044 776.128,139.934 777.691,139.839 "
         id="polyline60" />
    </g>
    <g
       fill="none"
       stroke="none"
       stroke-opacity="1"
       stroke-width="1"
       stroke-linecap="square"
       stroke-linejoin="bevel"
       font-family="'MS Shell Dlg 2'"
       font-size="17.75px"
       font-weight="400"
       font-style="normal"
       id="g64" />
  </g>
  <metadata
     id="metadata195">
    <rdf:RDF>
      <cc:Work
         rdf:about="">
        <dc:title>Qt SVG Document</dc:title>
      </cc:Work>
    </rdf:RDF>
  </metadata>
</svg>
