<?xml version="1.0" encoding="UTF-8" standalone="no"?>
<svg
   width="90.279869mm"
   height="89.664337mm"
   viewBox="0 0 504.71378 501.27342"
   version="1.2"
   id="svg110"
   sodipodi:docname="logo-simples-dark.svg"
   inkscape:version="1.2 (dc2aedaf03, 2022-05-15)"
   xmlns:inkscape="http://www.inkscape.org/namespaces/inkscape"
   xmlns:sodipodi="http://sodipodi.sourceforge.net/DTD/sodipodi-0.dtd"
   xmlns="http://www.w3.org/2000/svg"
   xmlns:svg="http://www.w3.org/2000/svg"
   xmlns:rdf="http://www.w3.org/1999/02/22-rdf-syntax-ns#"
   xmlns:cc="http://creativecommons.org/ns#"
   xmlns:dc="http://purl.org/dc/elements/1.1/">
  <sodipodi:namedview
     id="namedview112"
     pagecolor="#ffffff"
     bordercolor="#000000"
     borderopacity="0.25"
     inkscape:showpageshadow="2"
     inkscape:pageopacity="0.0"
     inkscape:pagecheckerboard="true"
     inkscape:deskcolor="#d1d1d1"
     inkscape:document-units="mm"
     showgrid="false"
     inkscape:zoom="1.2895084"
     inkscape:cx="174.87284"
     inkscape:cy="171.77088"
     inkscape:window-width="1920"
     inkscape:window-height="1001"
     inkscape:window-x="-9"
     inkscape:window-y="-9"
     inkscape:window-maximized="1"
     inkscape:current-layer="svg110" />
  <title
     id="title2">Qt SVG Document</title>
  <desc
     id="desc4">Generated with Qt</desc>
  <defs
     id="defs6">
    <clipPath
       clipPathUnits="userSpaceOnUse"
       id="clipPath397">
      <rect
         style="fill:none;stroke:#0000d2;stroke-width:1.48149"
         id="rect399"
         width="504.7146"
         height="501.27344"
         x="674.48083"
         y="78.00135" />
    </clipPath>
  </defs>
  <g
     fill="none"
     stroke="#000000"
     stroke-width="1"
     fill-rule="evenodd"
     stroke-linecap="square"
     stroke-linejoin="bevel"
     id="g108"
     clip-path="url(#clipPath397)"
     transform="translate(-674.48234,-78.00135)">
    <g
       fill="none"
       fill-opacity="1"
       stroke="none"
       font-family="'MS Shell Dlg 2'"
       font-size="17.75px"
       font-weight="400"
       font-style="normal"
       id="g10">
      <rect
         x="0"
         y="0"
         width="1864"
         height="662"
         id="rect8" />
    </g>
    <g
       fill="none"
       stroke="none"
       stroke-opacity="1"
       stroke-width="1"
       stroke-linecap="square"
       stroke-linejoin="bevel"
       font-family="'MS Shell Dlg 2'"
       font-size="17.75px"
       font-weight="400"
       font-style="normal"
       id="g12" />
    <g
       fill="none"
       fill-opacity="0"
       stroke="none"
       stroke-opacity="0"
       stroke-width="1"
       stroke-linecap="butt"
       stroke-linejoin="miter"
       stroke-miterlimit="2"
       font-family="'MS Shell Dlg 2'"
       font-size="17.75px"
       font-weight="400"
       font-style="normal"
       id="g14" />
    <g
       fill="none"
       fill-opacity="0"
       stroke="none"
       stroke-opacity="0"
       stroke-width="1"
       stroke-linecap="butt"
       stroke-linejoin="miter"
       stroke-miterlimit="2"
       font-family="'MS Shell Dlg 2'"
       font-size="17.75px"
       font-weight="400"
       font-style="normal"
       id="g16" />
    <g
       fill="#212529"
       fill-opacity="1"
       stroke="#212529"
       stroke-opacity="1"
       stroke-width="1"
       stroke-linecap="square"
       stroke-linejoin="bevel"
       font-family="'MS Shell Dlg 2'"
       font-size="17.75px"
       font-weight="400"
       font-style="normal"
       id="g18" />
    <g
       fill="#212529"
       fill-opacity="1"
       stroke="#212529"
       stroke-opacity="1"
       stroke-width="1"
       stroke-linecap="butt"
       stroke-linejoin="miter"
       stroke-miterlimit="2"
       font-family="'MS Shell Dlg 2'"
       font-size="17.75px"
       font-weight="400"
       font-style="normal"
       id="g22">
      <path
         vector-effect="non-scaling-stroke"
         fill-rule="evenodd"
         d="m 1170.64,428.087 -0.02,0.898 -0.06,0.897 -0.1,0.892 -0.14,0.888 -0.17,0.881 -0.21,0.872 -0.26,0.863 -0.28,0.85 -0.33,0.837 -0.36,0.822 -0.4,0.806 -0.43,0.787 -0.47,0.768 -0.5,0.747 -0.53,0.724 -0.56,0.701 -0.59,0.675 -0.62,0.649 -0.65,0.621 -0.68,0.592 -0.7,0.562 -0.72,0.531 -0.75,0.499 -0.77,0.466 -0.78,0.432 -0.81,0.398 -0.82,0.361 -0.84,0.326 -0.85,0.288 -0.86,0.252 -0.87,0.213 -0.88,0.175 -0.89,0.137 -0.89,0.098 -0.9,0.059 -0.9,0.019 H 1047 v 103.05 l -0.02,0.898 -0.06,0.896 -0.09,0.893 -0.14,0.887 -0.18,0.881 -0.21,0.873 -0.25,0.862 -0.29,0.85 -0.33,0.837 -0.36,0.823 -0.39,0.805 -0.44,0.788 -0.46,0.767 -0.5,0.747 -0.53,0.724 -0.56,0.701 -0.6,0.675 -0.62,0.649 -0.65,0.621 -0.67,0.592 -0.7,0.562 -0.73,0.532 -0.74,0.498 -0.77,0.466 -0.79,0.432 -0.8,0.398 -0.83,0.361 -0.83,0.326 -0.85,0.289 -0.87,0.251 -0.87,0.213 -0.88,0.176 -0.89,0.136 -0.89,0.098 -0.9,0.059 -0.89,0.019 H 828.599 l -0.897,-0.019 -0.897,-0.059 -0.892,-0.098 -0.888,-0.136 -0.881,-0.176 -0.873,-0.213 -0.862,-0.251 -0.85,-0.289 -0.837,-0.326 -0.822,-0.361 -0.806,-0.398 -0.787,-0.432 -0.768,-0.466 -0.747,-0.498 -0.724,-0.532 -0.701,-0.562 -0.675,-0.592 -0.649,-0.621 -0.621,-0.649 -0.592,-0.675 -0.562,-0.701 -0.531,-0.724 -0.499,-0.747 -0.466,-0.767 -0.432,-0.788 -0.398,-0.805 -0.361,-0.823 -0.326,-0.837 -0.289,-0.85 -0.251,-0.862 -0.213,-0.873 -0.176,-0.881 -0.136,-0.887 -0.098,-0.893 -0.059,-0.896 -0.019,-0.898 v -103.05 h -103.05 l -0.898,-0.019 -0.896,-0.059 -0.893,-0.098 -0.887,-0.137 -0.881,-0.175 -0.873,-0.213 -0.862,-0.252 -0.85,-0.288 -0.838,-0.326 -0.822,-0.361 -0.805,-0.398 -0.788,-0.432 -0.767,-0.466 -0.747,-0.499 -0.725,-0.531 -0.7,-0.562 -0.675,-0.592 -0.649,-0.621 -0.621,-0.649 -0.592,-0.675 -0.562,-0.701 -0.532,-0.724 -0.499,-0.747 -0.465,-0.768 -0.432,-0.787 -0.398,-0.806 -0.361,-0.822 -0.326,-0.837 -0.289,-0.85 -0.251,-0.863 -0.213,-0.872 -0.176,-0.881 -0.136,-0.888 -0.098,-0.892 -0.059,-0.897 -0.019,-0.898 V 230.271 l 0.019,-0.898 0.059,-0.896 0.098,-0.893 0.136,-0.887 0.176,-0.881 0.213,-0.873 0.251,-0.862 0.289,-0.851 0.326,-0.837 0.361,-0.822 0.398,-0.805 0.432,-0.788 0.465,-0.768 0.499,-0.746 0.532,-0.725 0.562,-0.7 0.592,-0.675 0.621,-0.649 0.649,-0.621 0.675,-0.592 0.7,-0.563 0.725,-0.531 0.747,-0.499 0.767,-0.466 0.788,-0.432 0.805,-0.397 0.822,-0.362 0.838,-0.325 0.85,-0.289 0.862,-0.251 0.873,-0.214 0.881,-0.175 0.887,-0.136 0.893,-0.098 0.896,-0.059 0.898,-0.02 h 103.05 V 106.636 l 0.019,-0.898 0.059,-0.896 0.098,-0.893 0.136,-0.888 0.176,-0.881 0.213,-0.872 0.251,-0.862 0.289,-0.8507 0.326,-0.8371 0.361,-0.8221 0.398,-0.8055 0.432,-0.7875 0.466,-0.7678 0.499,-0.7468 0.531,-0.7243 0.562,-0.7005 0.592,-0.6752 0.621,-0.6488 0.649,-0.6211 0.675,-0.5922 0.701,-0.5622 0.724,-0.5311 0.747,-0.4989 0.768,-0.466 0.787,-0.432 0.806,-0.3972 0.822,-0.3618 0.837,-0.3255 0.85,-0.2887 0.862,-0.2513 0.873,-0.2135 0.881,-0.1752 0.888,-0.1366 0.892,-0.0978 0.897,-0.0588 0.897,-0.0196 h 197.821 l 0.89,0.0196 0.9,0.0588 0.89,0.0978 0.89,0.1366 0.88,0.1752 0.87,0.2135 0.87,0.2513 0.85,0.2887 0.83,0.3255 0.83,0.3618 0.8,0.3972 0.79,0.432 0.77,0.466 0.74,0.4989 0.73,0.5311 0.7,0.5622 0.67,0.5922 0.65,0.6211 0.62,0.6488 0.6,0.6752 0.56,0.7005 0.53,0.7243 0.5,0.7468 0.46,0.7678 0.44,0.7875 0.39,0.8055 0.36,0.8221 0.33,0.8371 0.29,0.8507 0.25,0.862 0.21,0.872 0.18,0.881 0.14,0.888 0.09,0.893 0.06,0.896 0.02,0.898 v 103.049 h 103.05 l 0.9,0.02 0.9,0.059 0.89,0.098 0.89,0.136 0.88,0.175 0.87,0.214 0.86,0.251 0.85,0.289 0.84,0.325 0.82,0.362 0.81,0.397 0.78,0.432 0.77,0.466 0.75,0.499 0.72,0.531 0.7,0.563 0.68,0.592 0.65,0.621 0.62,0.649 0.59,0.675 0.56,0.7 0.53,0.725 0.5,0.746 0.47,0.768 0.43,0.788 0.4,0.805 0.36,0.822 0.33,0.837 0.28,0.851 0.26,0.862 0.21,0.873 0.17,0.881 0.14,0.887 0.1,0.893 0.06,0.896 0.02,0.898 v 197.816 m -381.415,-195.598 1.558,1.139 1.575,1.115 1.594,1.087 0.805,0.531 0.81,0.522 0.816,0.513 0.822,0.502 0.828,0.491 0.834,0.48 0.841,0.467 0.848,0.456 0.854,0.444 0.86,0.434 0.868,0.424 0.874,0.415 0.881,0.406 0.887,0.398 1.795,0.773 1.822,0.748 1.849,0.728 1.876,0.711 1.903,0.7 1.931,0.695 0.339,0.77 0.371,0.753 0.402,0.737 0.429,0.723 0.453,0.709 0.476,0.697 0.496,0.687 0.513,0.677 0.527,0.67 0.54,0.662 1.104,1.309 2.237,2.593 1.091,1.305 0.53,0.659 0.517,0.665 0.499,0.672 0.481,0.681 0.458,0.69 0.435,0.702 0.408,0.714 0.381,0.727 0.355,0.738 0.329,0.75 0.305,0.76 0.28,0.771 0.257,0.781 0.233,0.79 0.211,0.799 0.189,0.808 0.167,0.815 0.147,0.824 0.126,0.83 0.107,0.838 0.088,0.843 0.07,0.849 0.051,0.855 0.035,0.859 0.018,0.864 10e-4,0.867 -0.013,0.872 -0.029,0.874 -0.043,0.876 -0.056,0.879 -0.07,0.88 -0.082,0.881 -0.094,0.882 -0.105,0.883 -0.116,0.882 -0.126,0.881 -0.28,1.758 -0.313,1.75 -0.343,1.739 -0.366,1.727 -0.388,1.715 -0.404,1.705 -0.417,1.694 -0.426,1.684 -0.431,1.676 -0.86,3.324 -0.422,1.651 -0.411,1.643 -0.396,1.637 -0.377,1.63 -0.355,1.625 -0.327,1.619 -0.297,1.615 -0.263,1.611 -0.117,0.804 -0.107,0.803 -0.096,0.802 -0.085,0.802 -0.073,0.801 -0.062,0.8 -0.049,0.8 -0.035,0.799 -0.022,0.799 -0.008,0.799 0.006,0.798 0.022,0.798 0.037,0.798 0.053,0.798 0.067,0.797 0.083,0.798 0.097,0.796 0.112,0.796 0.126,0.796 0.14,0.795 0.154,0.795 0.167,0.793 0.181,0.793 0.194,0.792 0.207,0.791 0.22,0.79 0.233,0.789 0.244,0.787 0.257,0.787 0.269,0.785 0.28,0.784 0.292,0.782 0.303,0.781 0.314,0.779 0.325,0.778 0.335,0.776 0.346,0.774 0.356,0.773 0.741,1.539 0.78,1.53 0.816,1.523 0.85,1.512 0.883,1.503 0.914,1.493 0.943,1.482 0.971,1.47 0.996,1.459 1.021,1.446 1.043,1.433 1.063,1.419 1.083,1.405 1.099,1.391 1.115,1.375 1.129,1.36 1.14,1.343 1.151,1.326 1.159,1.31 1.166,1.291 1.171,1.272 1.177,1.255 1.183,1.236 1.19,1.218 1.198,1.199 1.207,1.181 1.216,1.164 1.225,1.145 1.236,1.127 1.247,1.109 1.258,1.092 1.271,1.073 1.285,1.056 1.298,1.038 1.313,1.02 1.328,1.003 1.343,0.985 1.361,0.967 1.377,0.95 1.395,0.933 1.414,0.915 1.434,0.898 1.453,0.881 1.473,0.864 1.495,0.846 1.513,0.828 1.53,0.809 1.545,0.788 1.559,0.768 1.571,0.746 1.58,0.724 1.588,0.7 1.595,0.675 1.599,0.65 1.602,0.624 1.603,0.597 1.601,0.569 1.599,0.54 1.594,0.51 1.588,0.48 1.58,0.448 1.57,0.415 1.557,0.383 -2.901,2.09 -2.911,2.076 -2.92,2.064 -2.929,2.051 -2.936,2.041 -2.944,2.032 -5.904,4.039 -2.962,2.007 -2.97,1.993 -2.982,1.977 -2.993,1.957 -3.009,1.933 -3.025,1.908 -3.043,1.877 -1.529,0.927 -1.534,0.917 -0.439,0.075 -0.471,0.084 -0.502,0.091 -0.531,0.099 -0.558,0.106 -0.582,0.112 -0.604,0.119 -0.625,0.125 -0.642,0.13 -0.658,0.135 -0.671,0.14 -0.683,0.144 -1.39,0.299 -1.409,0.312 -2.823,0.648 -2.817,0.677 -2.813,0.698 -2.81,0.716 1.709,19.302 4.107,-0.942 4.116,-0.905 4.128,-0.867 2.068,-0.42 2.071,-0.409 2.074,-0.399 2.076,-0.389 2.08,-0.378 2.083,-0.368 2.086,-0.357 2.088,-0.345 2.091,-0.333 2.094,-0.321 2.095,-0.308 2.097,-0.295 2.099,-0.283 2.101,-0.268 2.103,-0.255 2.104,-0.24 2.105,-0.226 2.106,-0.21 2.107,-0.195 2.107,-0.18 2.108,-0.163 2.109,-0.146 2.109,-0.13 2.109,-0.113 2.109,-0.095 2.109,-0.077 2.108,-0.059 2.108,-0.041 2.107,-0.021 2.107,-0.002 2.105,0.017 2.104,0.038 2.103,0.058 2.101,0.079 2.1,0.099 2.098,0.122 2.096,0.143 2.094,0.165 2.091,0.188 2.09,0.209 2.087,0.23 2.085,0.25 2.084,0.268 2.082,0.285 2.08,0.301 2.078,0.316 2.078,0.33 2.076,0.343 2.074,0.354 2.074,0.364 4.145,0.756 4.143,0.784 8.281,1.616 2.623,-18.571 -2.978,-0.499 -2.966,-0.498 -2.944,-0.493 -2.915,-0.483 -1.442,-0.237 -1.432,-0.233 -1.42,-0.229 -1.406,-0.224 -1.392,-0.219 -1.376,-0.213 -1.359,-0.206 -1.341,-0.2 1.43,-2.901 1.41,-2.912 2.805,-5.831 1.417,-2.907 1.443,-2.894 0.734,-1.44 0.746,-1.434 0.757,-1.428 0.771,-1.421 0.782,-1.415 0.791,-1.409 1.607,-2.807 3.261,-5.589 1.628,-2.796 1.608,-2.806 0.793,-1.41 0.783,-1.415 0.772,-1.421 0.758,-1.428 0.21,-0.094 0.241,-0.108 0.265,-0.118 0.281,-0.125 1.161,-0.493 1.171,-0.461 1.181,-0.431 1.188,-0.4 1.195,-0.372 1.202,-0.344 1.208,-0.317 1.213,-0.291 1.217,-0.267 1.221,-0.242 1.223,-0.22 1.226,-0.199 1.226,-0.177 1.227,-0.159 1.226,-0.139 1.23,-0.122 1.22,-0.105 1.22,-0.09 1.22,-0.076 1.21,-0.062 1.21,-0.049 1.2,-0.038 1.2,-0.028 1.19,-0.018 1.19,-0.008 1.17,0.002 1.18,0.012 1.16,0.022 1.16,0.032 1.16,0.043 1.15,0.052 1.15,0.064 1.15,0.073 1.14,0.084 1.14,0.095 1.14,0.105 1.13,0.116 1.14,0.127 1.13,0.138 1.13,0.148 1.13,0.16 1.13,0.171 1.13,0.182 1.13,0.193 1.13,0.204 1.13,0.216 1.14,0.227 1.13,0.239 1.14,0.25 1.14,0.262 1.14,0.273 1.15,0.286 1.14,0.297 1.16,0.309 1.15,0.322 1.16,0.333 1.16,0.347 1.17,0.359 1.17,0.373 1.17,0.386 1.17,0.399 1.17,0.413 1.18,0.427 1.17,0.442 1.18,0.456 1.18,0.471 1.18,0.485 1.18,0.501 1.18,0.516 1.18,0.532 1.19,0.548 1.18,0.564 1.18,0.58 1.18,0.597 1.17,0.613 1.18,0.63 1.18,0.648 1.17,0.665 1.17,0.683 1.17,0.701 1.17,0.719 1.17,0.737 1.16,0.756 1.16,0.774 1.15,0.793 2.31,1.621 2.31,1.633 1.15,0.806 1.16,0.793 1.16,0.773 1.16,0.749 1.17,0.718 1.17,0.683 0.59,0.327 0.6,0.315 0.59,0.304 0.59,0.291 0.6,0.279 0.6,0.264 0.61,0.251 0.6,0.235 0.61,0.219 0.61,0.203 0.61,0.186 0.62,0.168 0.62,0.149 0.62,0.131 0.63,0.111 0.63,0.093 0.63,0.076 0.63,0.06 0.64,0.044 0.64,0.03 0.64,0.017 0.64,0.004 0.65,-0.008 0.65,-0.018 1.3,-0.065 1.3,-0.097 1.31,-0.121 1.31,-0.138 2.63,-0.297 1.31,-0.144 1.31,-0.132 1.31,-0.111 1.3,-0.087 1.3,-0.064 1.29,-0.041 1.29,-0.019 1.29,0.001 1.29,0.021 1.28,0.04 1.27,0.057 1.28,0.074 1.27,0.09 1.27,0.105 -1.3,-1.038 -1.31,-1.026 -1.32,-1.014 -1.32,-1.001 -1.34,-0.989 -1.35,-0.974 -1.36,-0.96 -1.37,-0.945 -1.38,-0.929 -1.4,-0.914 -1.4,-0.898 -1.42,-0.884 -1.42,-0.87 -1.44,-0.857 -1.44,-0.845 -1.46,-0.833 -1.46,-0.821 -1.47,-0.812 -1.47,-0.802 -1.49,-0.792 -2.98,-1.562 -3,-1.534 -3.01,-1.513 -3.03,-1.496 -6.06,-2.965 -6.06,-2.966 -3.01,-1.498 -3,-1.514 -2.97,-1.538 -1.48,-0.778 -1.48,-0.787 -1.46,-0.795 -1.46,-0.804 -1.45,-0.814 -1.44,-0.824 -1.43,-0.836 -1.43,-0.847 -1.41,-0.86 -1.4,-0.873 -1.39,-0.887 -1.38,-0.902 -1.36,-0.918 -1.35,-0.933 -1.34,-0.95 -1.32,-0.968 -1.31,-0.985 -1.3,-1.005 -1.28,-1.024 -1.26,-1.044 -1.24,-1.065 -1.23,-1.087 -1.87,-0.103 -1.86,-0.121 -1.87,-0.138 -1.86,-0.158 -1.85,-0.177 -1.86,-0.198 -1.85,-0.22 -1.85,-0.243 -1.84,-0.267 -1.84,-0.291 -1.83,-0.316 -1.83,-0.344 -1.83,-0.37 -1.82,-0.399 -1.81,-0.426 -1.81,-0.453 -1.8,-0.48 -1.8,-0.506 -1.79,-0.532 -1.78,-0.557 -1.78,-0.582 -1.76,-0.606 -1.77,-0.63 -1.752,-0.653 -1.748,-0.675 -1.74,-0.699 -1.731,-0.719 -1.724,-0.742 -1.715,-0.762 -1.706,-0.782 -1.698,-0.803 -1.688,-0.821 -1.679,-0.841 -1.67,-0.859 -1.66,-0.877 -1.651,-0.895 -1.64,-0.912 -1.63,-0.928 -1.619,-0.944 -1.609,-0.96 -1.597,-0.974 -1.587,-0.99 -1.575,-1.003 -1.564,-1.017 -1.552,-1.031 -1.541,-1.043 -1.53,-1.057 -1.52,-1.07 -1.509,-1.084 -1.501,-1.097 -1.491,-1.11 -1.483,-1.123 -1.475,-1.137 -1.467,-1.15 -1.459,-1.163 -1.453,-1.177 -1.446,-1.191 -1.436,-1.206 -1.418,-1.228 -1.393,-1.252 -0.686,-0.638 -0.676,-0.645 -0.667,-0.654 -0.656,-0.663 -0.645,-0.673 -0.632,-0.684 -0.619,-0.694 -0.605,-0.706 2.75,2.14 1.384,1.058 1.39,1.05 1.397,1.041 1.404,1.032 1.41,1.023 1.418,1.013 1.424,1.004 1.432,0.993 1.439,0.983 1.447,0.972 1.454,0.962 1.462,0.95 1.47,0.938 1.477,0.927 1.485,0.916 1.493,0.903 1.5,0.892 1.507,0.879 1.514,0.868 1.522,0.855 1.528,0.843 1.535,0.831 1.543,0.818 1.549,0.805 1.555,0.793 1.563,0.78 1.568,0.767 1.575,0.754 1.582,0.741 1.588,0.727 1.593,0.714 1.6,0.701 1.606,0.687 1.612,0.673 1.617,0.659 1.623,0.646 1.629,0.631 1.634,0.618 1.639,0.603 1.645,0.589 1.65,0.574 1.66,0.56 1.66,0.544 1.66,0.53 1.67,0.514 1.67,0.498 1.68,0.483 1.69,0.466 1.68,0.449 1.69,0.433 1.7,0.416 1.7,0.399 1.7,0.381 1.7,0.363 1.71,0.345 1.71,0.327 1.72,0.309 1.72,0.29 1.72,0.27 1.72,0.252 1.72,0.231 1.74,0.213 -1.46,-1.55 -1.44,-1.577 -1.42,-1.6 -1.41,-1.62 -1.39,-1.635 -1.38,-1.647 -2.75,-3.312 -2.74,-3.311 -1.39,-1.645 -1.39,-1.634 -1.39,-1.624 -1.41,-1.615 -1.41,-1.607 -1.43,-1.598 -2.86,-3.176 -2.88,-3.152 -2.9,-3.133 -2.92,-3.12 -5.864,-6.221 -5.892,-6.232 -2.947,-3.133 -2.943,-3.15 -5.886,-6.334 -5.896,-6.357 -2.957,-3.176 -2.966,-3.171 -2.976,-3.161 -2.988,-3.148 -3.003,-3.129 -3.02,-3.109 -3.038,-3.082 -3.059,-3.054 -1.537,-1.515 -1.543,-1.506 -1.55,-1.497 -1.556,-1.487 -1.562,-1.476 -1.569,-1.467 -1.576,-1.455 -1.584,-1.443 -1.591,-1.431 -1.599,-1.419 -1.607,-1.405 -1.615,-1.393 -1.624,-1.378 -1.633,-1.363 -1.642,-1.348 -1.651,-1.333 -1.661,-1.317 -1.67,-1.301 -1.68,-1.283 -1.691,-1.267 -1.701,-1.248 -1.712,-1.23 -1.723,-1.211 -1.735,-1.191 -1.746,-1.172 -1.757,-1.152 -1.77,-1.131 -1.782,-1.109 -1.794,-1.087 -1.809,-1.062 -1.823,-1.037 -1.838,-1.01 -1.854,-0.981 -1.87,-0.95 -1.888,-0.919 -1.906,-0.886 -0.96,-0.429 -0.965,-0.421 -0.97,-0.412 -0.975,-0.402 -0.98,-0.393 -0.985,-0.383 -0.99,-0.373 -0.996,-0.363 -1.001,-0.353 -1.007,-0.342 -1.012,-0.332 -1.019,-0.321 -1.024,-0.31 -1.03,-0.298 -1.036,-0.287 -1.042,-0.276 -1.048,-0.263 -1.055,-0.252 -1.061,-0.239 -1.068,-0.227 -1.074,-0.215 -1.081,-0.202 -1.087,-0.188 -1.095,-0.176 -1.102,-0.162 -1.108,-0.148 -1.116,-0.135 -1.123,-0.121 -1.13,-0.107 -1.138,-0.092 -1.145,-0.078 -1.153,-0.063 -1.161,-0.048 -1.168,-0.033 -1.177,-0.018 -1.184,-0.002 -1.192,0.013 -1.201,0.029 -1.209,0.045 -1.217,0.062 -1.222,0.079 -1.227,0.097 -1.227,0.115 -1.228,0.135 -1.224,0.155 -1.22,0.176 -1.213,0.198 -1.204,0.221 -1.192,0.244 -1.179,0.268 -1.163,0.293 -1.146,0.319 -1.126,0.345 -1.104,0.372 -1.079,0.401 -0.531,0.211 -0.523,0.218 -0.516,0.226 -0.509,0.233 -0.501,0.241 -0.493,0.248 -0.485,0.257 -0.477,0.264 -0.468,0.272 -0.459,0.28 -0.449,0.288 -0.44,0.297 -0.431,0.305 -0.42,0.314 -0.41,0.322 -0.399,0.33 -0.389,0.34 -0.377,0.348 -1.989,0.133 -1.987,0.163 -1.986,0.186 -1.984,0.197 -3.968,0.41 -1.982,0.22 -1.98,0.237 -1.977,0.26 -1.973,0.287 -1.969,0.32 -0.983,0.174 -0.981,0.184 -0.978,0.195 -0.977,0.206 -0.974,0.218 -0.971,0.23 -0.967,0.243 -0.964,0.257 -0.959,0.27 -0.956,0.286"
         id="path20" />
    </g>
    <g
       fill="#212529"
       fill-opacity="1"
       stroke="#212529"
       stroke-opacity="1"
       stroke-width="1"
       stroke-linecap="square"
       stroke-linejoin="bevel"
       font-family="'MS Shell Dlg 2'"
       font-size="17.75px"
       font-weight="400"
       font-style="normal"
       id="g24" />
    <g
       fill="#212529"
       fill-opacity="1"
       stroke="#212529"
       stroke-opacity="1"
       stroke-width="1"
       stroke-linecap="butt"
       stroke-linejoin="miter"
       stroke-miterlimit="2"
       font-family="'MS Shell Dlg 2'"
       font-size="17.75px"
       font-weight="400"
       font-style="normal"
       id="g26" />
    <g
       fill="#212529"
       fill-opacity="1"
       stroke="none"
       font-family="'MS Shell Dlg 2'"
       font-size="17.75px"
       font-weight="400"
       font-style="normal"
       id="g30">
      <path
         vector-effect="none"
         fill-rule="evenodd"
         d="m 886.463,444.79 0.834,-0.075 0.844,-0.073 0.855,-0.07 0.865,-0.068 1.757,-0.128 1.791,-0.117 1.822,-0.106 1.85,-0.095 1.873,-0.084 1.894,-0.072 1.91,-0.06 1.925,-0.047 1.935,-0.034 1.941,-0.021 1.945,-0.008 1.944,0.006 1.944,0.019 1.94,0.032 1.936,0.046 1.929,0.057 1.923,0.069 1.914,0.081 1.905,0.093 1.892,0.103 1.881,0.113 1.866,0.124 1.85,0.133 1.834,0.143 1.815,0.152 1.796,0.16 1.774,0.169 1.752,0.176 1.729,0.184 1.703,0.191 2.575,-4.26 1.28,-2.135 1.27,-2.14 1.255,-2.149 1.236,-2.16 1.213,-2.172 1.186,-2.187 1.158,-2.201 1.137,-2.213 2.235,-4.448 2.226,-4.452 1.125,-2.22 1.143,-2.21 -0.174,0.094 -0.184,0.099 -0.195,0.104 -0.204,0.109 -0.435,0.23 -0.468,0.244 -0.498,0.257 -0.525,0.267 -0.549,0.274 -0.569,0.279 -0.587,0.282 -0.601,0.283 -1.232,0.556 -1.253,0.531 -1.265,0.5 -1.277,0.468 -1.286,0.438 -1.296,0.408 -1.305,0.378 -1.313,0.348 -1.321,0.319 -1.326,0.291 -1.332,0.262 -1.337,0.234 -1.342,0.206 -1.344,0.179 -1.347,0.152 -1.348,0.125 -1.349,0.1 -1.35,0.074 -1.349,0.048 -1.347,0.023 -1.345,-10e-4 -1.341,-0.026 -1.338,-0.049 -1.333,-0.073 -1.328,-0.096 -1.321,-0.119 -1.315,-0.142 -1.137,0.883 -1.143,0.873 -2.306,1.722 -2.328,1.693 -2.347,1.666 -2.364,1.644 -2.378,1.625 -2.388,1.611 -2.396,1.6 -9.608,6.367 -2.385,1.61 -2.364,1.634 -1.172,0.827 -1.164,0.838 -1.154,0.847 -1.144,0.858"
         id="path28" />
    </g>
    <g
       fill="#212529"
       fill-opacity="1"
       stroke="#212529"
       stroke-opacity="1"
       stroke-width="1"
       stroke-linecap="butt"
       stroke-linejoin="miter"
       stroke-miterlimit="2"
       font-family="'MS Shell Dlg 2'"
       font-size="17.75px"
       font-weight="400"
       font-style="normal"
       id="g32" />
    <g
       fill="#212529"
       fill-opacity="1"
       stroke="#212529"
       stroke-opacity="1"
       stroke-width="1"
       stroke-linecap="square"
       stroke-linejoin="bevel"
       font-family="'MS Shell Dlg 2'"
       font-size="17.75px"
       font-weight="400"
       font-style="normal"
       id="g104">
      <polyline
         fill="none"
         vector-effect="non-scaling-stroke"
         points="1134.32,427.789 1133.05,427.683 1131.77,427.593 1130.48,427.518 1129.2,427.461 1127.91,427.422 1126.62,427.401 1125.32,427.4 1124.03,427.421 1122.73,427.463 1121.42,427.528 1120.11,427.616 1118.8,427.729 1117.48,427.863 1116.16,428.008 1113.52,428.306 1112.2,428.444 1110.89,428.564 1109.57,428.658 1108.27,428.72 1107.62,428.737 1106.97,428.742 1106.32,428.735 1105.68,428.716 1105.03,428.682 1104.39,428.634 1103.76,428.57 1103.12,428.49 1102.49,428.392 1101.86,428.275 1101.24,428.139 1100.62,427.984 1100,427.81 1099.38,427.619 1098.77,427.41 1098.16,427.185 1097.55,426.944 1096.94,426.688 1096.34,426.418 1095.74,426.134 1095.14,425.837 1094.55,425.528 1093.95,425.207 1093.36,424.875 1092.18,424.182 1091.01,423.454 1089.84,422.697 1088.67,421.915 1087.51,421.115 1086.35,420.302 1084.03,418.66 1081.71,417.034 1080.55,416.241 1079.38,415.466 1078.21,414.711 1077.04,413.974 1075.86,413.256 1074.69,412.556 1073.51,411.874 1072.33,411.21 1071.15,410.563 1069.96,409.934 1068.78,409.322 1067.59,408.727 1066.4,408.148 1065.22,407.586 1064.03,407.04 1062.84,406.51 1061.66,405.996 1060.47,405.497 1059.28,405.014 1058.1,404.545 1056.91,404.092 1055.73,403.653 1054.55,403.228 1053.37,402.817 1052.19,402.421 1051.02,402.038 1049.84,401.668 1048.67,401.311 1047.51,400.968 1046.34,400.637 1045.18,400.319 1044.02,400.012 1042.87,399.718 1041.72,399.436 1040.57,399.166 1039.43,398.907 1038.29,398.661 1037.15,398.426 1036.01,398.202 1034.87,397.99 1033.73,397.79 1032.6,397.6 1031.46,397.423 1030.33,397.256 1029.19,397.101 1028.05,396.956 1026.91,396.823 1025.77,396.7 1024.63,396.589 1023.49,396.488 1022.34,396.398 1021.19,396.319 1020.04,396.25 1018.88,396.192 1017.72,396.144 1016.55,396.107 1015.38,396.08 1014.2,396.063 1013.02,396.057 1011.83,396.06 1010.64,396.074 1009.44,396.097 1008.23,396.131 1007.02,396.175 1005.8,396.232 1004.58,396.302 1003.35,396.386 1002.12,396.485 1000.89,396.601 999.66,396.734 998.427,396.885 997.193,397.056 995.961,397.247 994.73,397.46 993.502,397.695 992.277,397.954 991.055,398.237 989.839,398.547 988.628,398.883 987.424,399.246 986.227,399.639 985.037,400.061 983.857,400.515 982.685,401 982.109,401.252 981.837,401.373 981.586,401.486 981.365,401.585 981.268,401.628 981.182,401.667 981.107,401.7 981.045,401.727 980.996,401.747 980.962,401.761 "
         id="polyline34" />
      <polyline
         fill="none"
         vector-effect="non-scaling-stroke"
         points="964.913,410.812 964.741,410.906 964.558,411.004 964.366,411.107 964.163,411.215 963.731,411.444 963.266,411.688 962.769,411.944 962.245,412.21 961.697,412.485 961.128,412.764 960.541,413.047 959.94,413.33 958.705,413.889 957.449,414.423 956.18,414.926 954.901,415.397 953.611,415.837 952.311,416.247 951.002,416.627 949.685,416.977 948.361,417.298 947.031,417.59 945.694,417.853 944.353,418.088 943.008,418.295 941.66,418.475 940.309,418.628 938.956,418.754 937.603,418.853 936.249,418.927 934.897,418.975 933.545,418.998 932.196,418.997 930.851,418.971 929.509,418.92 928.172,418.847 926.84,418.75 925.515,418.63 924.197,418.487 "
         id="polyline36" />
      <polyline
         fill="none"
         vector-effect="non-scaling-stroke"
         points="910.747,416.148 909.189,415.769 907.619,415.357 906.038,414.913 904.449,414.436 902.854,413.929 901.253,413.392 899.65,412.826 898.045,412.231 896.441,411.61 894.84,410.962 893.243,410.288 891.651,409.59 890.068,408.868 888.494,408.124 886.932,407.357 885.383,406.569 883.849,405.762 882.333,404.935 880.835,404.089 879.357,403.226 877.9,402.346 876.463,401.448 875.045,400.534 873.647,399.601 872.266,398.652 870.902,397.685 869.555,396.7 868.224,395.698 866.909,394.678 865.607,393.64 864.32,392.584 863.046,391.511 861.785,390.42 860.536,389.311 859.297,388.184 858.07,387.039 856.852,385.875 855.643,384.694 854.443,383.494 853.251,382.276 852.065,381.04 850.887,379.785 849.714,378.512 848.546,377.221 847.385,375.911 846.232,374.584 845.089,373.241 843.959,371.88 842.841,370.504 841.739,369.113 840.654,367.707 839.588,366.286 838.543,364.853 837.52,363.405 836.52,361.946 835.547,360.474 834.601,358.991 833.684,357.497 832.799,355.993 831.946,354.478 831.127,352.955 830.345,351.422 829.601,349.882 829.244,349.109 828.897,348.334 828.56,347.557 828.234,346.778 827.918,345.998 827.614,345.216 827.321,344.433 827.039,343.649 826.769,342.862 826.511,342.075 826.265,341.287 826.031,340.497 825.81,339.706 825.602,338.914 825.407,338.121 825.225,337.327 825.056,336.533 824.901,335.737 824.76,334.941 824.633,334.145 824.52,333.348 824.421,332.55 824.338,331.752 824.269,330.953 824.216,330.155 824.178,329.356 824.155,328.556 824.148,327.757 824.155,326.957 824.176,326.158 824.211,325.357 824.259,324.556 824.32,323.755 824.393,322.953 824.478,322.151 824.574,321.347 824.68,320.543 824.797,319.738 825.059,318.126 825.356,316.509 825.683,314.887 826.038,313.261 826.415,311.628 826.811,309.99 827.223,308.345 827.645,306.692 828.506,303.363 828.938,301.686 829.364,300 829.782,298.303 830.187,296.596 830.575,294.879 830.942,293.15 831.285,291.409 831.599,289.657 831.879,287.896 832.005,287.014 832.121,286.131 832.226,285.248 832.32,284.364 832.402,283.482 832.472,282.601 832.528,281.721 832.571,280.843 832.599,279.968 832.613,279.096 832.61,278.227 832.592,277.363 832.557,276.502 832.505,275.647 832.435,274.797 832.347,273.952 832.239,273.114 832.112,272.283 831.965,271.459 831.796,270.642 831.607,269.834 831.395,269.034 831.16,268.243 830.903,267.461 830.621,266.69 830.315,265.929 829.984,265.179 829.628,264.44 829.245,263.713 828.836,262.999 828.4,262.297 827.939,261.605 827.457,260.924 826.956,260.252 826.439,259.586 825.907,258.927 824.813,257.621 822.573,255.024 821.469,253.713 820.929,253.049 820.402,252.379 819.89,251.7 819.395,251.012 818.919,250.313 818.467,249.602 818.039,248.877 817.639,248.138 817.269,247.383 816.933,246.61 "
         id="polyline38" />
      <polyline
         fill="none"
         vector-effect="non-scaling-stroke"
         points="820.714,227.828 821.091,227.48 821.479,227.14 821.878,226.809 822.287,226.486 822.707,226.172 823.137,225.867 823.577,225.57 824.026,225.281 824.485,225.001 824.952,224.728 825.429,224.464 825.913,224.207 826.406,223.958 826.907,223.717 827.416,223.483 827.932,223.257 828.455,223.039 828.984,222.827 830.064,222.426 831.167,222.053 832.293,221.708 833.438,221.388 834.601,221.095 835.78,220.826 836.972,220.582 838.176,220.361 839.389,220.162 840.609,219.986 841.833,219.83 843.061,219.695 844.289,219.579 845.515,219.482 846.738,219.402 847.955,219.34 849.164,219.295 850.365,219.265 851.558,219.252 852.743,219.254 853.919,219.271 855.088,219.304 856.249,219.352 857.402,219.415 858.548,219.492 859.686,219.585 860.816,219.691 861.94,219.812 863.056,219.946 864.164,220.095 865.266,220.256 866.361,220.432 867.449,220.62 868.53,220.822 869.604,221.036 870.672,221.263 871.734,221.502 872.789,221.753 873.837,222.017 874.879,222.292 875.916,222.579 876.946,222.878 877.97,223.187 878.989,223.508 880.001,223.839 881.008,224.182 882.01,224.534 883.006,224.897 883.996,225.27 884.982,225.653 885.962,226.046 886.937,226.448 887.907,226.86 888.872,227.281 889.832,227.71 891.738,228.595 893.627,229.514 895.498,230.465 897.352,231.445 899.19,232.455 901.013,233.492 902.822,234.554 904.617,235.641 906.399,236.751 908.169,237.881 909.927,239.033 911.673,240.205 913.408,241.396 915.131,242.607 916.843,243.837 918.545,245.086 920.236,246.352 921.917,247.636 923.587,248.936 925.248,250.253 926.899,251.586 928.541,252.935 930.174,254.298 931.798,255.676 933.414,257.069 935.021,258.474 936.62,259.893 938.212,261.324 939.796,262.768 941.372,264.223 942.941,265.689 944.504,267.166 946.06,268.653 947.61,270.15 949.153,271.656 950.691,273.171 953.75,276.225 956.788,279.308 959.808,282.417 962.812,285.547 965.801,288.695 968.777,291.856 971.743,295.027 974.7,298.205 980.597,304.562 986.483,310.897 989.427,314.047 992.374,317.18 998.267,323.413 1004.14,329.635 1007.05,332.755 1009.95,335.889 1012.84,339.041 1015.7,342.217 1017.12,343.816 1018.53,345.422 1019.94,347.038 1021.34,348.662 1022.73,350.297 1024.11,351.941 1026.86,355.252 1029.61,358.565 1030.99,360.212 1032.38,361.848 1033.78,363.468 1035.2,365.068 1036.64,366.645 1038.1,368.195 "
         id="polyline40" />
      <polyline
         fill="none"
         vector-effect="non-scaling-stroke"
         points="1043.06,373.006 1044.29,374.093 1045.53,375.158 1046.8,376.203 1048.08,377.227 1049.37,378.232 1050.68,379.218 1052,380.186 1053.34,381.136 1054.69,382.07 1056.06,382.987 1057.44,383.889 1058.83,384.777 1060.23,385.65 1061.64,386.511 1063.06,387.358 1064.5,388.194 1065.94,389.018 1067.39,389.832 1068.85,390.637 1070.31,391.432 1071.79,392.218 1073.27,392.997 1076.24,394.535 1079.24,396.05 1082.25,397.548 1088.31,400.515 1094.38,403.481 1097.4,404.977 1100.42,406.489 1103.42,408.024 1106.4,409.586 1107.88,410.379 1109.36,411.181 1110.83,411.993 1112.29,412.815 1113.74,413.648 1115.19,414.492 1116.62,415.35 1118.05,416.22 1119.46,417.104 1120.87,418.003 1122.26,418.916 1123.65,419.846 1125.02,420.791 1126.38,421.752 1127.73,422.726 1129.06,423.715 1130.39,424.717 1131.71,425.731 1133.02,426.757 1134.32,427.795 "
         id="polyline42" />
      <polyline
         fill="none"
         vector-effect="non-scaling-stroke"
         points="937.266,323.563 940.016,325.702 941.4,326.76 942.791,327.81 944.188,328.851 945.591,329.883 947.002,330.906 948.42,331.92 949.844,332.923 951.276,333.917 952.715,334.9 954.162,335.872 955.616,336.834 957.078,337.784 958.548,338.722 960.026,339.65 961.511,340.565 963.003,341.468 964.503,342.36 966.011,343.24 967.525,344.107 969.047,344.963 970.575,345.806 972.111,346.637 973.653,347.455 975.202,348.26 976.758,349.053 978.32,349.833 979.889,350.6 981.464,351.354 983.046,352.095 984.634,352.822 986.228,353.536 987.828,354.237 989.433,354.924 991.045,355.597 992.663,356.256 994.286,356.902 995.915,357.533 997.549,358.151 999.189,358.754 1000.83,359.343 1002.48,359.917 1004.14,360.477 1005.8,361.022 1007.46,361.551 1009.13,362.065 1010.81,362.563 1012.49,363.046 1014.17,363.512 1015.86,363.961 1017.55,364.394 1019.24,364.81 1020.94,365.209 1022.64,365.59 1024.35,365.953 1026.06,366.298 1027.77,366.625 1029.48,366.934 1031.2,367.224 1032.92,367.494 1034.65,367.745 1036.37,367.977 1038.1,368.189 "
         id="polyline44" />
      <polyline
         fill="none"
         vector-effect="non-scaling-stroke"
         points="937.266,323.563 937.871,324.268 938.49,324.963 939.123,325.646 939.767,326.319 940.424,326.983 941.09,327.637 941.767,328.282 942.452,328.919 943.846,330.172 945.264,331.4 946.7,332.606 948.146,333.797 949.599,334.974 951.059,336.138 952.526,337.288 954.001,338.425 955.484,339.548 956.975,340.658 958.476,341.755 959.986,342.839 961.506,343.909 963.036,344.966 964.577,346.01 966.13,347.04 967.694,348.057 969.269,349.061 970.856,350.05 972.454,351.025 974.062,351.985 975.682,352.929 977.312,353.857 978.952,354.769 980.603,355.664 982.263,356.541 983.933,357.4 985.613,358.241 987.301,359.063 988.999,359.865 990.706,360.648 992.421,361.41 994.145,362.151 995.876,362.871 997.616,363.569 999.364,364.245 1001.12,364.898 1002.88,365.527 1004.65,366.133 1006.43,366.715 1008.21,367.272 1010,367.804 1011.8,368.31 1013.6,368.79 1015.41,369.243 1017.22,369.669 1019.04,370.068 1020.87,370.438 1022.7,370.781 1024.53,371.098 1026.37,371.389 1028.21,371.655 1030.06,371.898 1031.91,372.118 1033.77,372.316 1035.62,372.493 1037.48,372.651 1039.35,372.789 1041.21,372.909 1043.08,373.013 "
         id="polyline46" />
      <polyline
         fill="none"
         vector-effect="non-scaling-stroke"
         points="980.009,451.012 977.013,450.51 974.028,450.009 971.066,449.513 968.134,449.027 966.682,448.789 965.242,448.554 963.814,448.324 962.4,448.099 961.001,447.879 959.617,447.666 958.251,447.458 956.903,447.258 "
         id="polyline48" />
      <polyline
         fill="none"
         vector-effect="non-scaling-stroke"
         points="946.037,445.807 944.328,445.614 942.595,445.429 940.837,445.25 939.056,445.08 937.254,444.918 935.432,444.765 933.591,444.621 931.733,444.486 929.86,444.361 927.972,444.246 926.071,444.141 924.158,444.048 922.236,443.966 920.304,443.896 918.366,443.837 916.421,443.791 914.472,443.758 912.519,443.738 910.565,443.732 908.611,443.739 906.661,443.76 904.717,443.795 902.783,443.842 900.863,443.902 898.96,443.974 897.078,444.058 895.22,444.153 893.389,444.26 891.59,444.378 889.825,444.507 888.957,444.575 888.099,444.646 887.251,444.719 886.414,444.795 "
         id="polyline50" />
      <polyline
         fill="none"
         vector-effect="non-scaling-stroke"
         points="863.371,447.941 862.949,448.011 862.491,448.091 861.998,448.178 861.474,448.274 860.92,448.378 860.34,448.489 859.734,448.607 859.107,448.731 858.459,448.862 857.793,448.997 857.113,449.138 856.419,449.284 855.002,449.587 853.561,449.904 850.67,450.565 847.785,451.256 844.904,451.971 842.026,452.703 "
         id="polyline52" />
      <polyline
         fill="none"
         vector-effect="non-scaling-stroke"
         points="977.436,469.594 969.147,467.976 965.001,467.191 960.852,466.434 958.777,466.069 956.7,465.714 954.622,465.371 952.543,465.041 950.463,464.724 948.381,464.422 946.297,464.136 944.212,463.868 942.125,463.618 940.036,463.387 937.945,463.177 935.851,462.989 933.756,462.823 931.658,462.679 929.558,462.557 927.457,462.457 925.353,462.378 923.249,462.32 921.143,462.282 919.036,462.264 916.927,462.266 914.818,462.287 912.709,462.327 910.598,462.386 908.488,462.463 906.377,462.558 904.266,462.671 902.155,462.801 900.045,462.948 897.934,463.111 895.825,463.29 893.716,463.486 891.608,463.696 889.501,463.922 887.396,464.163 885.291,464.417 883.189,464.686 881.088,464.969 878.988,465.264 876.891,465.573 874.796,465.895 872.704,466.228 870.613,466.573 868.526,466.93 866.441,467.298 864.359,467.677 862.28,468.067 860.205,468.466 858.132,468.876 856.062,469.296 853.995,469.725 851.931,470.164 847.811,471.071 843.701,472.013 "
         id="polyline54" />
      <polyline
         fill="none"
         vector-effect="non-scaling-stroke"
         points="789.182,232.457 790.764,233.614 792.363,234.747 793.983,235.85 794.8,236.389 795.624,236.919 796.453,237.439 797.288,237.948 798.13,238.445 798.978,238.931 799.833,239.404 800.695,239.865 801.563,240.315 802.439,240.754 803.321,241.183 804.211,241.602 805.107,242.012 806.01,242.414 807.837,243.196 809.691,243.952 811.574,244.688 813.485,245.408 815.423,246.118 817.391,246.822 "
         id="polyline56" />
      <polyline
         fill="none"
         vector-effect="non-scaling-stroke"
         points="842.032,452.699 843.75,472.086 "
         id="polyline58" />
      <polyline
         fill="none"
         vector-effect="non-scaling-stroke"
         points="977.345,469.684 979.984,451.002 "
         id="polyline60" />
      <polyline
         fill="none"
         vector-effect="non-scaling-stroke"
         points="1026.42,572.308 828.599,572.308 "
         id="polyline62" />
      <polyline
         fill="none"
         vector-effect="non-scaling-stroke"
         points="828.599,572.308 827.702,572.289 826.805,572.23 825.913,572.132 825.025,571.996 824.144,571.82 823.271,571.607 822.409,571.356 821.559,571.067 820.722,570.741 819.9,570.38 819.094,569.982 818.307,569.55 817.539,569.084 816.792,568.586 816.068,568.054 815.367,567.492 814.692,566.9 814.043,566.279 813.422,565.63 812.83,564.955 812.268,564.254 811.737,563.53 811.238,562.783 810.772,562.016 810.34,561.228 809.942,560.423 809.581,559.6 809.255,558.763 808.966,557.913 808.715,557.051 808.502,556.178 808.326,555.297 808.19,554.41 808.092,553.517 808.033,552.621 808.014,551.723 "
         id="polyline64" />
      <polyline
         fill="none"
         vector-effect="non-scaling-stroke"
         points="808.014,551.723 808.014,448.673 704.964,448.673 "
         id="polyline66" />
      <polyline
         fill="none"
         vector-effect="non-scaling-stroke"
         points="704.964,448.673 704.066,448.654 703.17,448.595 702.277,448.497 701.39,448.36 700.509,448.185 699.636,447.972 698.774,447.72 697.924,447.432 697.086,447.106 696.264,446.745 695.459,446.347 694.671,445.915 693.904,445.449 693.157,444.95 692.432,444.419 691.732,443.857 691.057,443.265 690.408,442.644 689.787,441.995 689.195,441.32 688.633,440.619 688.101,439.895 687.602,439.148 687.137,438.38 686.705,437.593 686.307,436.787 685.946,435.965 685.62,435.128 685.331,434.278 685.08,433.415 684.867,432.543 684.691,431.662 684.555,430.774 684.457,429.882 684.398,428.985 684.379,428.087 "
         id="polyline68" />
      <polyline
         fill="none"
         vector-effect="non-scaling-stroke"
         points="684.379,428.087 684.379,230.271 "
         id="polyline70" />
      <polyline
         fill="none"
         vector-effect="non-scaling-stroke"
         points="684.379,230.271 684.398,229.373 684.457,228.477 684.555,227.584 684.691,226.697 684.867,225.816 685.08,224.943 685.331,224.081 685.62,223.23 685.946,222.393 686.307,221.571 686.705,220.766 687.137,219.978 687.602,219.21 688.101,218.464 688.633,217.739 689.195,217.039 689.787,216.364 690.408,215.715 691.057,215.094 691.732,214.502 692.432,213.939 693.157,213.408 693.904,212.909 694.671,212.443 695.459,212.011 696.264,211.614 697.086,211.252 697.924,210.927 698.774,210.638 699.636,210.387 700.509,210.173 701.39,209.998 702.277,209.862 703.17,209.764 704.066,209.705 704.964,209.685 "
         id="polyline72" />
      <polyline
         fill="none"
         vector-effect="non-scaling-stroke"
         points="704.964,209.685 808.014,209.685 808.014,106.636 "
         id="polyline74" />
      <polyline
         fill="none"
         vector-effect="non-scaling-stroke"
         points="808.014,106.636 808.033,105.738 808.092,104.842 808.19,103.949 808.326,103.061 808.502,102.18 808.715,101.308 808.966,100.446 809.255,99.5953 809.581,98.7582 809.942,97.9361 810.34,97.1306 810.772,96.3431 811.238,95.5753 811.737,94.8285 812.268,94.1042 812.83,93.4037 813.422,92.7285 814.043,92.0797 814.692,91.4586 815.367,90.8664 816.068,90.3042 816.792,89.7731 817.539,89.2742 818.307,88.8082 819.094,88.3762 819.9,87.979 820.722,87.6172 821.559,87.2917 822.409,87.003 823.271,86.7517 824.144,86.5382 825.025,86.363 825.913,86.2264 826.805,86.1286 827.702,86.0698 828.599,86.0502 "
         id="polyline76" />
      <polyline
         fill="none"
         vector-effect="non-scaling-stroke"
         points="828.599,86.0502 1026.42,86.0502 "
         id="polyline78" />
      <polyline
         fill="none"
         vector-effect="non-scaling-stroke"
         points="1026.42,86.0502 1027.31,86.0698 1028.21,86.1286 1029.1,86.2264 1029.99,86.363 1030.87,86.5382 1031.74,86.7517 1032.61,87.003 1033.46,87.2917 1034.29,87.6172 1035.12,87.979 1035.92,88.3762 1036.71,88.8082 1037.48,89.2742 1038.22,89.7731 1038.95,90.3042 1039.65,90.8664 1040.32,91.4586 1040.97,92.0797 1041.59,92.7285 1042.19,93.4037 1042.75,94.1042 1043.28,94.8285 1043.78,95.5753 1044.24,96.3431 1044.68,97.1306 1045.07,97.9361 1045.43,98.7582 1045.76,99.5953 1046.05,100.446 1046.3,101.308 1046.51,102.18 1046.69,103.061 1046.83,103.949 1046.92,104.842 1046.98,105.738 1047,106.636 "
         id="polyline80" />
      <polyline
         fill="none"
         vector-effect="non-scaling-stroke"
         points="1047,106.636 1047,209.685 1150.05,209.685 "
         id="polyline82" />
      <polyline
         fill="none"
         vector-effect="non-scaling-stroke"
         points="1150.05,209.685 1150.95,209.705 1151.85,209.764 1152.74,209.862 1153.63,209.998 1154.51,210.173 1155.38,210.387 1156.24,210.638 1157.09,210.927 1157.93,211.252 1158.75,211.614 1159.56,212.011 1160.34,212.443 1161.11,212.909 1161.86,213.408 1162.58,213.939 1163.28,214.502 1163.96,215.094 1164.61,215.715 1165.23,216.364 1165.82,217.039 1166.38,217.739 1166.91,218.464 1167.41,219.21 1167.88,219.978 1168.31,220.766 1168.71,221.571 1169.07,222.393 1169.4,223.23 1169.68,224.081 1169.94,224.943 1170.15,225.816 1170.32,226.697 1170.46,227.584 1170.56,228.477 1170.62,229.373 1170.64,230.271 "
         id="polyline84" />
      <polyline
         fill="none"
         vector-effect="non-scaling-stroke"
         points="1170.64,230.271 1170.64,428.087 "
         id="polyline86" />
      <polyline
         fill="none"
         vector-effect="non-scaling-stroke"
         points="1170.64,428.087 1170.62,428.985 1170.56,429.882 1170.46,430.774 1170.32,431.662 1170.15,432.543 1169.94,433.415 1169.68,434.278 1169.4,435.128 1169.07,435.965 1168.71,436.787 1168.31,437.593 1167.88,438.38 1167.41,439.148 1166.91,439.895 1166.38,440.619 1165.82,441.32 1165.23,441.995 1164.61,442.644 1163.96,443.265 1163.28,443.857 1162.58,444.419 1161.86,444.95 1161.11,445.449 1160.34,445.915 1159.56,446.347 1158.75,446.745 1157.93,447.106 1157.09,447.432 1156.24,447.72 1155.38,447.972 1154.51,448.185 1153.63,448.36 1152.74,448.497 1151.85,448.595 1150.95,448.654 1150.05,448.673 "
         id="polyline88" />
      <polyline
         fill="none"
         vector-effect="non-scaling-stroke"
         points="1150.05,448.673 1047,448.673 1047,551.723 "
         id="polyline90" />
      <polyline
         fill="none"
         vector-effect="non-scaling-stroke"
         points="1047,551.723 1046.98,552.621 1046.92,553.517 1046.83,554.41 1046.69,555.297 1046.51,556.178 1046.3,557.051 1046.05,557.913 1045.76,558.763 1045.43,559.6 1045.07,560.423 1044.68,561.228 1044.24,562.016 1043.78,562.783 1043.28,563.53 1042.75,564.254 1042.19,564.955 1041.59,565.63 1040.97,566.279 1040.32,566.9 1039.65,567.492 1038.95,568.054 1038.22,568.586 1037.48,569.084 1036.71,569.55 1035.92,569.982 1035.12,570.38 1034.29,570.741 1033.46,571.067 1032.61,571.356 1031.74,571.607 1030.87,571.82 1029.99,571.996 1029.1,572.132 1028.21,572.23 1027.31,572.289 1026.42,572.308 "
         id="polyline92" />
      <polyline
         fill="none"
         vector-effect="non-scaling-stroke"
         points="981.355,401.521 980.593,402.959 979.817,404.389 979.029,405.813 978.232,407.231 976.614,410.056 974.976,412.87 971.695,418.494 970.078,421.318 969.281,422.737 968.495,424.161 967.72,425.591 966.958,427.028 966.209,428.471 965.47,429.92 964.019,432.833 962.594,435.759 959.772,441.628 958.353,444.557 956.911,447.475 "
         id="polyline94" />
      <polyline
         fill="none"
         vector-effect="non-scaling-stroke"
         points="964.882,410.812 963.738,413.026 962.61,415.248 960.381,419.707 958.144,424.16 957.006,426.377 955.846,428.581 954.658,430.771 953.444,432.946 952.206,435.108 950.949,437.26 949.677,439.404 948.395,441.541 945.817,445.807 "
         id="polyline96" />
      <polyline
         fill="none"
         vector-effect="non-scaling-stroke"
         points="886.457,444.795 887.601,443.936 888.756,443.088 889.92,442.251 891.092,441.423 893.457,439.789 895.843,438.178 905.454,431.809 907.851,430.208 910.24,428.597 912.619,426.971 914.983,425.326 917.331,423.66 919.66,421.967 921.966,420.244 923.11,419.37 924.248,418.487 "
         id="polyline98" />
      <polyline
         fill="none"
         vector-effect="non-scaling-stroke"
         points="910.803,415.922 907.878,418.031 904.943,420.126 901.999,422.207 899.046,424.277 896.086,426.336 893.118,428.385 887.164,432.458 884.178,434.481 881.182,436.491 878.176,438.485 875.157,440.458 872.123,442.407 869.073,444.33 866.003,446.222 864.461,447.155 862.913,448.08 "
         id="polyline100" />
      <polyline
         fill="none"
         vector-effect="non-scaling-stroke"
         points="789.171,232.506 790.131,232.218 791.096,231.945 792.064,231.686 793.037,231.441 794.013,231.21 794.992,230.99 795.974,230.783 796.958,230.587 797.944,230.401 798.932,230.226 800.912,229.905 802.896,229.616 804.883,229.356 806.874,229.118 808.866,228.897 812.855,228.485 814.851,228.287 816.847,228.101 818.845,227.938 820.845,227.807 "
         id="polyline102" />
    </g>
    <g
       fill="none"
       stroke="none"
       stroke-opacity="1"
       stroke-width="1"
       stroke-linecap="square"
       stroke-linejoin="bevel"
       font-family="'MS Shell Dlg 2'"
       font-size="17.75px"
       font-weight="400"
       font-style="normal"
       id="g106" />
  </g>
  <metadata
     id="metadata341">
    <rdf:RDF>
      <cc:Work
         rdf:about="">
        <dc:title>Qt SVG Document</dc:title>
      </cc:Work>
    </rdf:RDF>
  </metadata>
</svg>
