<?xml version="1.0" encoding="UTF-8" standalone="no"?>
<svg
   width="256.27173mm"
   height="46.986572mm"
   viewBox="0 0 1432.6989 262.68102"
   version="1.2"
   id="svg172"
   sodipodi:docname="logo-primary.svg"
   inkscape:version="1.2 (dc2aedaf03, 2022-05-15)"
   inkscape:export-filename="logo-primary.pdf"
   inkscape:export-xdpi="900"
   inkscape:export-ydpi="900"
   xmlns:inkscape="http://www.inkscape.org/namespaces/inkscape"
   xmlns:sodipodi="http://sodipodi.sourceforge.net/DTD/sodipodi-0.dtd"
   xmlns="http://www.w3.org/2000/svg"
   xmlns:svg="http://www.w3.org/2000/svg"
   xmlns:rdf="http://www.w3.org/1999/02/22-rdf-syntax-ns#"
   xmlns:cc="http://creativecommons.org/ns#"
   xmlns:dc="http://purl.org/dc/elements/1.1/">
  <sodipodi:namedview
     id="namedview174"
     pagecolor="#ffffff"
     bordercolor="#000000"
     borderopacity="0.25"
     inkscape:showpageshadow="2"
     inkscape:pageopacity="0.0"
     inkscape:pagecheckerboard="true"
     inkscape:deskcolor="#d1d1d1"
     inkscape:document-units="mm"
     showgrid="false"
     inkscape:zoom="1.2895084"
     inkscape:cx="484.29308"
     inkscape:cy="116.71114"
     inkscape:window-width="1920"
     inkscape:window-height="1001"
     inkscape:window-x="-9"
     inkscape:window-y="-9"
     inkscape:window-maximized="1"
     inkscape:current-layer="svg172" />
  <title
     id="title2">Qt SVG Document</title>
  <desc
     id="desc4">Generated with Qt</desc>
  <defs
     id="defs6">
    <clipPath
       clipPathUnits="userSpaceOnUse"
       id="clipPath462">
      <rect
         style="fill:none;stroke:#0000d2;stroke-width:1.48149"
         id="rect464"
         width="1432.7013"
         height="262.68103"
         x="183.5311"
         y="231.70987" />
    </clipPath>
  </defs>
  <g
     fill="none"
     stroke="#000000"
     stroke-width="1"
     fill-rule="evenodd"
     stroke-linecap="square"
     stroke-linejoin="bevel"
     id="g170"
     clip-path="url(#clipPath462)"
     transform="translate(-183.53261,-231.70987)">
    <g
       fill="none"
       fill-opacity="1"
       stroke="none"
       font-family="'MS Shell Dlg 2'"
       font-size="17.75px"
       font-weight="400"
       font-style="normal"
       id="g10">
      <rect
         x="0"
         y="0"
         width="1864"
         height="662"
         id="rect8" />
    </g>
    <g
       fill="none"
       stroke="none"
       stroke-opacity="1"
       stroke-width="1"
       stroke-linecap="square"
       stroke-linejoin="bevel"
       font-family="'MS Shell Dlg 2'"
       font-size="17.75px"
       font-weight="400"
       font-style="normal"
       id="g12" />
    <g
       fill="none"
       fill-opacity="0"
       stroke="none"
       stroke-opacity="0"
       stroke-width="1"
       stroke-linecap="butt"
       stroke-linejoin="miter"
       stroke-miterlimit="2"
       font-family="'MS Shell Dlg 2'"
       font-size="17.75px"
       font-weight="400"
       font-style="normal"
       id="g14" />
    <g
       fill="none"
       fill-opacity="0"
       stroke="none"
       stroke-opacity="0"
       stroke-width="1"
       stroke-linecap="butt"
       stroke-linejoin="miter"
       stroke-miterlimit="2"
       font-family="'MS Shell Dlg 2'"
       font-size="17.75px"
       font-weight="400"
       font-style="normal"
       id="g16" />
    <g
       fill="#009b50"
       fill-opacity="1"
       stroke="#009b50"
       stroke-opacity="1"
       stroke-width="1"
       stroke-linecap="square"
       stroke-linejoin="bevel"
       font-family="'MS Shell Dlg 2'"
       font-size="17.75px"
       font-weight="400"
       font-style="normal"
       id="g18" />
    <g
       fill="#009b50"
       fill-opacity="1"
       stroke="#009b50"
       stroke-opacity="1"
       stroke-width="1"
       stroke-linecap="butt"
       stroke-linejoin="miter"
       stroke-miterlimit="2"
       font-family="'MS Shell Dlg 2'"
       font-size="17.75px"
       font-weight="400"
       font-style="normal"
       id="g22">
      <path
         vector-effect="non-scaling-stroke"
         fill-rule="evenodd"
         d="m 440.137,414.24 -0.019,0.637 -0.058,0.634 -0.096,0.629 -0.133,0.623 -0.171,0.613 -0.208,0.602 -0.244,0.588 -0.278,0.573 -0.313,0.554 -0.346,0.535 -0.377,0.513 -0.408,0.489 -0.436,0.463 -0.464,0.437 -0.489,0.407 -0.513,0.378 -0.534,0.345 -0.555,0.313 -0.572,0.279 -0.588,0.243 -0.602,0.208 -0.614,0.171 -0.622,0.134 -0.63,0.095 -0.634,0.058 -0.636,0.019 h -52.761 v 52.762 l -0.019,0.636 -0.058,0.634 -0.096,0.63 -0.134,0.622 -0.17,0.613 -0.208,0.602 -0.244,0.588 -0.279,0.573 -0.312,0.554 -0.346,0.535 -0.377,0.513 -0.408,0.489 -0.436,0.463 -0.464,0.437 -0.489,0.407 -0.513,0.378 -0.534,0.345 -0.555,0.313 -0.572,0.279 -0.589,0.244 -0.602,0.207 -0.613,0.171 -0.622,0.134 -0.63,0.096 -0.634,0.057 -0.636,0.02 H 265.014 l -0.636,-0.02 -0.635,-0.057 -0.629,-0.096 -0.622,-0.134 -0.614,-0.171 -0.602,-0.207 -0.588,-0.244 -0.572,-0.279 -0.555,-0.313 -0.534,-0.345 -0.513,-0.378 -0.489,-0.407 -0.464,-0.437 -0.436,-0.463 -0.408,-0.489 -0.377,-0.513 -0.346,-0.535 -0.313,-0.554 -0.278,-0.573 -0.244,-0.588 -0.208,-0.602 -0.171,-0.613 -0.133,-0.622 -0.096,-0.63 -0.058,-0.634 -0.019,-0.636 V 424.78 h -52.761 l -0.637,-0.019 -0.634,-0.058 -0.629,-0.095 -0.623,-0.134 -0.613,-0.171 -0.602,-0.208 -0.588,-0.243 -0.572,-0.279 -0.555,-0.313 -0.535,-0.345 -0.512,-0.378 -0.49,-0.407 -0.463,-0.437 -0.437,-0.463 -0.407,-0.489 -0.377,-0.513 -0.346,-0.535 -0.313,-0.554 -0.279,-0.573 -0.243,-0.588 -0.208,-0.602 -0.171,-0.613 -0.134,-0.623 -0.095,-0.629 -0.058,-0.634 -0.019,-0.637 V 312.958 l 0.019,-0.636 0.058,-0.634 0.095,-0.629 0.134,-0.623 0.171,-0.613 0.208,-0.602 0.243,-0.588 0.279,-0.573 0.313,-0.554 0.346,-0.535 0.377,-0.513 0.407,-0.489 0.437,-0.463 0.463,-0.437 0.49,-0.407 0.512,-0.378 0.535,-0.345 0.555,-0.313 0.572,-0.279 0.588,-0.243 0.602,-0.208 0.613,-0.171 0.623,-0.134 0.629,-0.096 0.634,-0.057 0.637,-0.019 h 52.761 v -52.762 l 0.019,-0.636 0.058,-0.634 0.096,-0.63 0.133,-0.622 0.171,-0.613 0.208,-0.602 0.244,-0.588 0.278,-0.573 0.313,-0.554 0.346,-0.535 0.377,-0.513 0.408,-0.489 0.436,-0.464 0.464,-0.436 0.489,-0.408 0.513,-0.377 0.534,-0.346 0.555,-0.312 0.572,-0.279 0.588,-0.244 0.602,-0.207 0.614,-0.171 0.622,-0.134 0.629,-0.096 0.635,-0.057 0.636,-0.02 h 101.282 l 0.636,0.02 0.634,0.057 0.63,0.096 0.622,0.134 0.613,0.171 0.602,0.207 0.589,0.244 0.572,0.279 0.555,0.312 0.534,0.346 0.513,0.377 0.489,0.408 0.464,0.436 0.436,0.464 0.408,0.489 0.377,0.513 0.346,0.535 0.312,0.554 0.279,0.573 0.244,0.588 0.208,0.602 0.17,0.613 0.134,0.622 0.096,0.63 0.058,0.634 0.019,0.636 v 52.762 h 52.761 l 0.636,0.019 0.634,0.057 0.63,0.096 0.622,0.134 0.614,0.171 0.602,0.208 0.588,0.243 0.572,0.279 0.555,0.313 0.534,0.345 0.513,0.378 0.489,0.407 0.464,0.437 0.436,0.463 0.408,0.489 0.377,0.513 0.346,0.535 0.313,0.554 0.278,0.573 0.244,0.588 0.208,0.602 0.171,0.613 0.133,0.623 0.096,0.629 0.058,0.634 0.019,0.636 V 414.24 m -195.283,-100.146 0.798,0.583 0.806,0.571 0.817,0.557 0.826,0.539 0.839,0.519 0.851,0.497 0.864,0.473 0.878,0.45 0.892,0.429 0.905,0.412 0.919,0.396 0.933,0.383 0.947,0.372 0.96,0.364 0.975,0.359 0.989,0.355 0.173,0.395 0.19,0.385 0.206,0.378 0.219,0.37 0.233,0.363 0.243,0.357 0.517,0.698 0.546,0.682 0.565,0.67 1.145,1.328 0.559,0.668 0.536,0.678 0.256,0.344 0.246,0.349 0.235,0.353 0.222,0.36 0.209,0.365 0.195,0.372 0.182,0.378 0.169,0.384 0.155,0.389 0.144,0.395 0.131,0.4 0.12,0.404 0.108,0.409 0.096,0.414 0.086,0.418 0.075,0.421 0.065,0.425 0.055,0.429 0.08,0.867 0.044,0.877 0.011,0.887 -0.022,0.893 -0.051,0.899 -0.078,0.902 -0.101,0.903 -0.124,0.903 -0.144,0.9 -0.16,0.896 -0.175,0.89 -0.188,0.884 -0.199,0.879 -0.42,1.74 -0.439,1.72 -0.44,1.702 -0.427,1.687 -0.203,0.838 -0.193,0.834 -0.181,0.832 -0.168,0.83 -0.152,0.826 -0.134,0.825 -0.115,0.823 -0.093,0.821 -0.069,0.82 -0.043,0.819 -0.015,0.818 0.014,0.817 0.046,0.817 0.077,0.816 0.107,0.816 0.136,0.814 0.165,0.814 0.192,0.811 0.218,0.809 0.245,0.808 0.269,0.804 0.293,0.802 0.315,0.799 0.339,0.795 0.359,0.792 0.379,0.788 0.399,0.784 0.418,0.779 0.435,0.775 0.452,0.769 0.468,0.765 0.483,0.758 0.497,0.753 0.511,0.747 0.522,0.74 0.534,0.734 0.545,0.727 0.554,0.719 0.563,0.712 0.571,0.704 0.578,0.696 0.583,0.688 1.183,1.349 1.197,1.313 1.208,1.275 0.609,0.624 0.614,0.614 0.618,0.605 0.622,0.595 0.627,0.587 0.633,0.577 0.638,0.568 0.645,0.558 0.651,0.55 0.657,0.541 0.665,0.531 0.672,0.522 0.68,0.514 0.688,0.504 0.696,0.495 0.706,0.487 0.714,0.477 0.724,0.469 0.734,0.46 0.744,0.451 0.754,0.442 0.765,0.433 0.775,0.424 0.784,0.414 0.791,0.404 0.798,0.393 0.804,0.382 0.809,0.371 0.813,0.358 0.817,0.346 0.819,0.333 0.82,0.319 0.82,0.306 0.82,0.291 0.819,0.276 0.816,0.262 0.813,0.245 0.809,0.23 0.804,0.212 0.797,0.196 -2.976,2.134 -2.994,2.106 -3.011,2.086 -3.023,2.068 -3.037,2.047 -1.526,1.013 -1.533,1.002 -1.541,0.99 -1.548,0.976 -1.558,0.961 -1.569,0.945 -0.224,0.038 -0.242,0.043 -0.257,0.047 -0.272,0.05 -0.285,0.054 -0.298,0.058 -0.31,0.061 -0.319,0.064 -0.666,0.136 -0.693,0.145 -0.712,0.153 -0.722,0.16 -1.445,0.332 -1.442,0.346 -2.879,0.724 0.875,9.883 2.102,-0.482 2.108,-0.464 2.113,-0.444 2.12,-0.424 2.125,-0.404 2.131,-0.382 2.137,-0.359 2.143,-0.335 2.146,-0.309 2.151,-0.282 2.153,-0.253 2.156,-0.224 2.158,-0.191 2.159,-0.159 2.16,-0.124 2.159,-0.088 2.159,-0.051 2.157,-0.012 1.078,0.009 1.078,0.019 1.076,0.03 1.076,0.04 1.075,0.051 1.074,0.062 1.074,0.073 1.072,0.085 1.071,0.096 1.069,0.107 1.069,0.118 1.068,0.128 2.132,0.283 2.129,0.316 2.127,0.344 2.124,0.368 2.122,0.387 2.121,0.402 4.24,0.827 1.343,-9.508 -3.043,-0.511 -1.508,-0.252 -1.492,-0.248 -1.471,-0.24 -1.447,-0.232 -1.417,-0.221 -1.383,-0.208 0.732,-1.485 0.722,-1.491 1.436,-2.986 0.726,-1.488 0.739,-1.482 0.757,-1.472 0.783,-1.458 0.805,-1.446 0.823,-1.437 1.67,-2.861 0.833,-1.432 0.824,-1.437 0.806,-1.446 0.784,-1.459 0.107,-0.048 0.124,-0.056 0.279,-0.124 0.595,-0.252 0.599,-0.236 0.605,-0.221 0.608,-0.205 0.612,-0.19 0.616,-0.176 0.618,-0.163 0.621,-0.149 0.623,-0.136 0.625,-0.124 0.626,-0.113 0.628,-0.102 0.628,-0.091 1.256,-0.152 1.254,-0.116 1.249,-0.085 1.24,-0.057 1.229,-0.034 1.215,-0.013 1.204,0.007 1.192,0.028 1.183,0.048 1.175,0.07 1.169,0.092 1.163,0.113 1.16,0.136 1.158,0.158 1.156,0.18 1.158,0.204 1.16,0.226 1.163,0.251 1.168,0.274 1.175,0.298 1.182,0.323 1.189,0.348 1.194,0.375 1.199,0.402 1.203,0.43 1.205,0.46 1.208,0.49 1.209,0.52 1.209,0.553 1.209,0.586 1.207,0.619 1.205,0.655 1.201,0.69 1.197,0.727 1.192,0.764 1.185,0.803 1.182,0.83 1.18,0.835 1.183,0.819 0.594,0.396 0.596,0.384 0.598,0.368 0.601,0.349 0.606,0.329 0.609,0.304 0.613,0.278 0.618,0.249 0.624,0.216 0.63,0.181 0.636,0.144 0.642,0.104 0.649,0.07 0.653,0.038 0.658,0.01 0.663,-0.013 0.665,-0.033 0.668,-0.05 1.342,-0.132 1.345,-0.152 1.342,-0.141 0.669,-0.057 0.667,-0.045 0.665,-0.033 0.662,-0.021 0.661,-0.01 0.659,0.001 1.314,0.031 1.307,0.067 1.303,0.1 -1.337,-1.057 -1.356,-1.032 -1.375,-1.004 -1.398,-0.976 -0.708,-0.476 -0.713,-0.467 -1.445,-0.913 -1.465,-0.884 -1.484,-0.859 -1.5,-0.836 -1.514,-0.817 -1.527,-0.799 -1.536,-0.786 -3.092,-1.54 -3.105,-1.518 -3.1,-1.519 -1.542,-0.767 -1.535,-0.775 -1.524,-0.787 -1.512,-0.802 -1.497,-0.818 -1.481,-0.839 -1.461,-0.862 -1.44,-0.887 -1.417,-0.916 -0.699,-0.47 -0.692,-0.478 -0.685,-0.486 -0.678,-0.496 -0.67,-0.504 -0.663,-0.514 -0.655,-0.525 -0.646,-0.534 -0.637,-0.546 -0.629,-0.556 -1.911,-0.115 -1.906,-0.151 -0.951,-0.091 -0.949,-0.102 -0.947,-0.112 -0.946,-0.125 -0.944,-0.136 -0.941,-0.149 -0.94,-0.162 -0.936,-0.176 -0.935,-0.19 -0.931,-0.204 -0.929,-0.218 -0.926,-0.232 -0.922,-0.246 -0.92,-0.259 -0.916,-0.272 -0.913,-0.285 -0.91,-0.298 -0.906,-0.311 -0.902,-0.322 -0.899,-0.334 -0.895,-0.346 -0.89,-0.358 -0.887,-0.368 -0.882,-0.38 -0.878,-0.39 -0.874,-0.401 -0.869,-0.41 -0.865,-0.421 -0.86,-0.431 -0.855,-0.44 -0.85,-0.449 -0.844,-0.458 -1.675,-0.942 -1.652,-0.974 -1.631,-1.006 -1.607,-1.035 -1.583,-1.061 -1.562,-1.089 -1.541,-1.117 -1.523,-1.143 -1.506,-1.171 -1.491,-1.198 -1.476,-1.228 -0.726,-0.628 -0.713,-0.642 -0.698,-0.656 -0.677,-0.675 -0.654,-0.694 -0.626,-0.717 1.407,1.096 1.421,1.079 1.434,1.061 1.448,1.043 1.462,1.022 1.478,1.001 1.493,0.979 1.509,0.955 1.524,0.931 1.54,0.907 1.554,0.882 1.569,0.857 1.583,0.832 1.596,0.805 1.61,0.778 1.622,0.752 1.635,0.724 1.648,0.697 1.659,0.668 1.67,0.639 1.682,0.611 1.692,0.58 1.703,0.55 1.712,0.519 1.721,0.485 1.729,0.452 1.737,0.417 1.745,0.381 1.751,0.344 1.757,0.307 1.763,0.267 0.884,0.119 0.887,0.108 -0.749,-0.793 -0.736,-0.807 -0.727,-0.82 -0.719,-0.829 -1.419,-1.681 -1.407,-1.696 -1.407,-1.695 -1.419,-1.678 -1.436,-1.659 -1.451,-1.641 -1.465,-1.626 -1.475,-1.614 -1.486,-1.604 -1.493,-1.597 -3.005,-3.186 -3.017,-3.19 -3.015,-3.217 -3.014,-3.243 -3.019,-3.255 -3.032,-3.25 -3.054,-3.23 -1.538,-1.602 -1.546,-1.591 -1.555,-1.579 -1.566,-1.563 -1.577,-1.547 -1.59,-1.528 -1.604,-1.506 -1.617,-1.484 -1.634,-1.46 -1.65,-1.432 -1.667,-1.404 -1.686,-1.372 -1.705,-1.341 -0.861,-0.657 -0.865,-0.648 -0.871,-0.639 -0.877,-0.63 -0.882,-0.62 -0.888,-0.61 -0.894,-0.6 -0.9,-0.59 -0.906,-0.579 -0.912,-0.568 -0.919,-0.556 -0.926,-0.544 -0.933,-0.531 -0.942,-0.517 -0.949,-0.502 -0.957,-0.487 -0.967,-0.47 -0.976,-0.454 -0.986,-0.435 -0.995,-0.417 -1.006,-0.397 -1.017,-0.377 -1.028,-0.356 -1.04,-0.334 -1.052,-0.311 -1.064,-0.288 -1.077,-0.264 -1.089,-0.239 -1.104,-0.213 -1.117,-0.187 -1.132,-0.159 -1.146,-0.131 -1.161,-0.101 -1.177,-0.073 -1.192,-0.041 -1.209,-0.011 -1.225,0.022 -1.242,0.055 -1.254,0.09 -1.257,0.128 -0.627,0.08 -0.625,0.09 -0.621,0.101 -0.616,0.113 -0.61,0.125 -0.604,0.137 -0.596,0.15 -0.586,0.163 -0.577,0.177 -0.565,0.191 -0.553,0.205 -0.539,0.22 -0.525,0.235 -0.509,0.25 -0.492,0.267 -0.475,0.282 -0.455,0.3 -0.436,0.317 -0.414,0.334 -0.392,0.352 -1.019,0.068 -1.017,0.084 -2.033,0.196 -2.031,0.21 -2.029,0.234 -1.012,0.132 -1.01,0.147 -1.008,0.164 -1.006,0.184 -1.001,0.205 -0.995,0.229 -0.989,0.256 -0.981,0.285"
         id="path20" />
    </g>
    <g
       fill="#009b50"
       fill-opacity="1"
       stroke="#009b50"
       stroke-opacity="1"
       stroke-width="1"
       stroke-linecap="square"
       stroke-linejoin="bevel"
       font-family="'MS Shell Dlg 2'"
       font-size="17.75px"
       font-weight="400"
       font-style="normal"
       id="g24" />
    <g
       fill="#009b50"
       fill-opacity="1"
       stroke="#009b50"
       stroke-opacity="1"
       stroke-width="1"
       stroke-linecap="butt"
       stroke-linejoin="miter"
       stroke-miterlimit="2"
       font-family="'MS Shell Dlg 2'"
       font-size="17.75px"
       font-weight="400"
       font-style="normal"
       id="g26" />
    <g
       fill="#009b50"
       fill-opacity="1"
       stroke="none"
       font-family="'MS Shell Dlg 2'"
       font-size="17.75px"
       font-weight="400"
       font-style="normal"
       id="g30">
      <path
         vector-effect="none"
         fill-rule="evenodd"
         d="m 294.64,422.792 0.859,-0.076 0.881,-0.07 0.899,-0.066 0.917,-0.06 0.933,-0.054 0.947,-0.049 0.959,-0.043 0.97,-0.036 1.964,-0.055 1.984,-0.029 1.992,-0.001 1.988,0.027 1.979,0.052 1.965,0.077 1.944,0.1 1.918,0.122 1.886,0.141 0.929,0.078 0.92,0.082 0.908,0.086 0.898,0.091 0.884,0.094 0.872,0.098 1.319,-2.181 1.305,-2.19 0.643,-1.1 0.633,-1.105 0.621,-1.113 0.607,-1.119 0.593,-1.127 0.582,-1.134 1.144,-2.277 1.14,-2.279 1.162,-2.269 -0.184,0.1 -0.204,0.109 -0.223,0.117 -0.239,0.125 -0.255,0.132 -0.269,0.136 -0.281,0.141 -0.292,0.143 -0.608,0.289 -0.631,0.285 -0.641,0.272 -0.648,0.255 -0.654,0.24 -0.658,0.225 -0.664,0.208 -0.668,0.194 -0.672,0.178 -0.676,0.163 -0.68,0.149 -0.682,0.134 -0.684,0.12 -0.687,0.106 -0.688,0.091 -0.69,0.078 -0.69,0.064 -0.691,0.051 -0.691,0.038 -0.69,0.025 -0.69,0.012 -0.689,-10e-4 -0.687,-0.013 -0.685,-0.025 -0.682,-0.038 -0.68,-0.049 -0.677,-0.061 -0.673,-0.072 -1.167,0.899 -1.181,0.881 -1.192,0.867 -1.201,0.853 -1.211,0.842 -1.217,0.832 -2.45,1.644 -4.919,3.26 -1.221,0.824 -1.211,0.836 -1.195,0.853 -1.177,0.873"
         id="path28" />
    </g>
    <g
       fill="#009b50"
       fill-opacity="1"
       stroke="#009b50"
       stroke-opacity="1"
       stroke-width="1"
       stroke-linecap="butt"
       stroke-linejoin="miter"
       stroke-miterlimit="2"
       font-family="'MS Shell Dlg 2'"
       font-size="17.75px"
       font-weight="400"
       font-style="normal"
       id="g32" />
    <g
       fill="#009b50"
       fill-opacity="1"
       stroke="#009b50"
       stroke-opacity="1"
       stroke-width="1"
       stroke-linecap="square"
       stroke-linejoin="bevel"
       font-family="'MS Shell Dlg 2'"
       font-size="17.75px"
       font-weight="400"
       font-style="normal"
       id="g62">
      <polyline
         fill="none"
         vector-effect="non-scaling-stroke"
         points="421.545,414.087 420.235,413.987 418.92,413.92 417.6,413.889 416.937,413.889 416.273,413.899 415.606,413.921 414.938,413.954 414.267,413.999 413.595,414.057 412.245,414.2 410.893,414.352 409.544,414.484 408.873,414.533 408.204,414.564 407.539,414.575 406.877,414.562 406.221,414.52 405.57,414.447 404.925,414.337 404.286,414.187 403.654,414 403.027,413.778 402.406,413.524 401.79,413.24 401.179,412.93 400.571,412.596 399.967,412.241 399.366,411.868 398.767,411.48 398.17,411.08 396.981,410.254 395.795,409.414 394.607,408.581 393.414,407.778 392.215,407.014 391.011,406.288 389.803,405.599 388.592,404.946 387.378,404.328 386.163,403.744 384.947,403.193 383.731,402.674 382.517,402.187 381.305,401.73 380.097,401.302 378.892,400.903 377.692,400.531 376.499,400.186 375.312,399.866 374.132,399.571 372.959,399.3 371.79,399.054 370.625,398.831 369.461,398.631 368.298,398.455 367.134,398.301 365.967,398.17 364.796,398.062 363.62,397.975 362.436,397.91 361.245,397.867 360.043,397.844 358.83,397.842 357.605,397.861 356.366,397.901 355.116,397.966 353.859,398.06 352.597,398.187 351.334,398.352 350.703,398.45 350.073,398.559 349.444,398.68 348.817,398.812 348.191,398.957 347.569,399.116 346.949,399.288 346.332,399.474 345.719,399.675 345.11,399.891 344.506,400.123 343.906,400.372 343.611,400.501 343.471,400.563 343.343,400.62 343.23,400.671 343.136,400.713 343.066,400.744 343.023,400.761 "
         id="polyline34" />
      <polyline
         fill="none"
         vector-effect="non-scaling-stroke"
         points="334.806,405.396 334.625,405.494 334.423,405.602 334.201,405.719 333.963,405.844 333.709,405.975 333.441,406.111 333.16,406.252 332.869,406.395 332.26,406.685 331.628,406.971 330.985,407.244 330.335,407.502 329.68,407.743 329.02,407.968 328.354,408.178 327.684,408.373 327.01,408.552 326.332,408.716 325.651,408.866 324.966,409 324.28,409.121 323.591,409.227 322.901,409.319 322.209,409.397 321.517,409.461 320.824,409.513 320.131,409.55 319.438,409.575 318.746,409.587 318.056,409.586 317.367,409.573 316.68,409.547 315.995,409.509 315.313,409.459 314.635,409.398 313.96,409.325 "
         id="polyline36" />
      <polyline
         fill="none"
         vector-effect="non-scaling-stroke"
         points="307.074,408.127 306.276,407.934 305.472,407.723 304.663,407.495 303.849,407.251 303.032,406.991 302.213,406.716 301.392,406.426 300.57,406.122 299.749,405.804 298.929,405.472 298.111,405.127 297.296,404.77 296.486,404.4 295.68,404.019 294.88,403.626 294.087,403.223 293.302,402.81 292.525,402.386 291.758,401.953 291.002,401.511 290.256,401.061 289.52,400.601 288.794,400.133 288.078,399.656 287.371,399.169 286.673,398.674 285.983,398.17 285.302,397.657 284.628,397.135 283.962,396.603 283.303,396.063 282.651,395.513 282.005,394.955 281.365,394.387 280.731,393.81 280.103,393.223 279.479,392.628 278.86,392.023 278.246,391.409 277.635,390.785 276.425,389.51 275.226,388.197 274.042,386.847 273.457,386.159 272.878,385.462 272.306,384.758 271.742,384.045 271.186,383.326 270.64,382.598 270.105,381.864 269.581,381.123 269.069,380.376 268.571,379.622 268.087,378.863 267.617,378.098 267.164,377.328 266.727,376.553 266.308,375.772 265.908,374.988 265.527,374.199 265.166,373.406 264.827,372.61 264.509,371.81 264.215,371.008 263.945,370.202 263.699,369.394 263.479,368.584 263.286,367.771 263.12,366.957 262.983,366.142 262.875,365.325 262.797,364.508 262.75,363.69 262.735,362.871 262.749,362.052 262.792,361.233 262.86,360.412 262.953,359.589 263.067,358.766 263.201,357.94 263.353,357.112 263.521,356.282 263.702,355.449 263.895,354.613 264.098,353.774 264.525,352.086 264.966,350.382 265.405,348.659 265.826,346.917 266.025,346.038 266.213,345.152 266.389,344.261 266.549,343.364 266.693,342.463 266.817,341.559 266.919,340.654 266.997,339.751 267.047,338.851 267.069,337.957 267.058,337.069 267.014,336.191 266.933,335.323 266.877,334.894 266.812,334.468 266.737,334.046 266.651,333.628 266.554,333.214 266.445,332.805 266.325,332.4 266.193,332 266.049,331.605 265.892,331.215 265.723,330.831 265.54,330.453 265.344,330.081 265.135,329.715 264.912,329.355 264.676,329.002 264.429,328.653 264.173,328.308 263.635,327.63 263.075,326.962 261.928,325.632 261.363,324.961 260.817,324.278 260.554,323.93 260.301,323.578 260.058,323.22 259.826,322.856 259.607,322.485 259.402,322.106 259.213,321.72 259.041,321.324 "
         id="polyline38" />
      <polyline
         fill="none"
         vector-effect="non-scaling-stroke"
         points="260.976,311.708 261.368,311.355 261.782,311.021 262.217,310.704 262.672,310.404 263.147,310.12 263.639,309.854 264.147,309.603 264.672,309.367 265.211,309.147 265.764,308.942 266.329,308.751 266.905,308.574 267.491,308.41 268.087,308.26 268.69,308.123 269.301,307.997 269.917,307.884 270.538,307.783 271.163,307.692 271.79,307.613 273.047,307.484 274.301,307.394 275.543,307.339 276.769,307.316 277.978,307.327 279.17,307.368 280.347,307.44 281.509,307.541 282.655,307.672 283.787,307.831 284.905,308.017 286.008,308.23 287.099,308.469 288.176,308.732 289.24,309.02 290.292,309.331 291.332,309.665 292.36,310.021 293.377,310.398 294.383,310.795 295.379,311.212 296.365,311.647 297.341,312.1 298.308,312.571 299.266,313.057 300.215,313.56 301.156,314.077 302.09,314.608 303.016,315.152 303.935,315.708 304.847,316.276 305.754,316.855 306.654,317.444 307.548,318.044 308.436,318.655 309.318,319.275 310.195,319.904 311.066,320.544 311.932,321.192 312.792,321.849 314.498,323.189 316.184,324.562 317.852,325.966 319.502,327.398 321.135,328.858 322.753,330.342 324.357,331.849 325.947,333.377 327.525,334.923 329.091,336.487 330.646,338.066 332.193,339.657 333.73,341.26 336.785,344.49 339.817,347.74 342.837,350.995 345.85,354.239 348.867,357.456 351.884,360.647 354.888,363.833 356.382,365.43 357.868,367.035 359.344,368.649 360.808,370.275 362.259,371.916 363.696,373.575 365.115,375.254 366.522,376.949 367.929,378.645 369.349,380.326 370.067,381.155 370.794,381.975 371.531,382.782 372.28,383.575 "
         id="polyline40" />
      <polyline
         fill="none"
         vector-effect="non-scaling-stroke"
         points="374.819,386.039 375.447,386.595 376.085,387.141 376.731,387.676 377.386,388.2 378.048,388.714 378.719,389.219 379.397,389.715 380.082,390.201 380.775,390.679 381.474,391.149 382.89,392.065 384.331,392.953 385.793,393.815 387.273,394.654 388.771,395.473 390.283,396.274 391.807,397.062 393.342,397.837 394.885,398.604 397.985,400.123 401.091,401.642 404.184,403.182 405.721,403.968 407.247,404.768 408.762,405.584 410.262,406.421 411.746,407.28 413.212,408.164 414.656,409.077 415.37,409.545 416.078,410.021 417.476,410.996 418.852,412.002 420.207,413.034 421.545,414.091 "
         id="polyline42" />
      <polyline
         fill="none"
         vector-effect="non-scaling-stroke"
         points="320.651,360.724 322.059,361.819 323.48,362.898 324.914,363.96 326.362,365.003 327.824,366.025 329.302,367.026 330.795,368.005 332.304,368.96 333.829,369.892 335.368,370.798 336.923,371.681 338.492,372.538 340.074,373.369 341.671,374.174 343.281,374.953 344.903,375.704 346.539,376.429 348.186,377.125 349.845,377.793 351.516,378.433 353.198,379.043 354.89,379.624 356.593,380.174 358.305,380.692 360.026,381.178 361.756,381.63 363.493,382.047 365.238,382.428 366.989,382.772 368.746,383.078 370.509,383.345 371.393,383.464 372.28,383.573 "
         id="polyline44" />
      <polyline
         fill="none"
         vector-effect="non-scaling-stroke"
         points="320.651,360.724 321.278,361.441 321.932,362.135 322.609,362.81 323.307,363.466 324.02,364.108 324.746,364.736 326.222,365.964 327.713,367.162 329.219,368.333 330.742,369.477 332.284,370.593 333.846,371.682 335.429,372.744 337.037,373.779 338.667,374.785 340.32,375.759 341.995,376.701 342.84,377.159 343.69,377.609 344.545,378.048 345.405,378.479 346.269,378.9 347.138,379.311 348.012,379.711 348.89,380.101 349.773,380.481 350.66,380.85 351.551,381.207 352.445,381.553 353.344,381.887 354.246,382.21 355.153,382.52 356.062,382.818 356.975,383.103 357.892,383.375 358.812,383.634 359.735,383.88 360.66,384.112 361.589,384.33 362.521,384.534 363.455,384.724 364.392,384.9 365.331,385.062 366.273,385.211 367.217,385.347 368.163,385.471 369.11,385.584 370.06,385.685 371.011,385.776 372.917,385.928 374.828,386.042 "
         id="polyline46" />
      <polyline
         fill="none"
         vector-effect="non-scaling-stroke"
         points="342.536,425.978 339.473,425.464 337.957,425.211 336.455,424.962 334.975,424.719 333.52,424.486 332.095,424.264 331.395,424.158 330.705,424.056 "
         id="polyline48" />
      <polyline
         fill="none"
         vector-effect="non-scaling-stroke"
         points="325.142,423.313 324.267,423.214 323.379,423.119 322.479,423.028 321.568,422.941 320.645,422.858 319.712,422.779 318.77,422.705 317.818,422.636 315.893,422.513 313.94,422.412 311.967,422.334 309.978,422.281 307.981,422.254 305.98,422.254 303.986,422.282 302.013,422.337 301.039,422.374 300.075,422.417 299.124,422.466 298.186,422.521 297.265,422.581 296.362,422.647 295.478,422.718 294.615,422.795 "
         id="polyline50" />
      <polyline
         fill="none"
         vector-effect="non-scaling-stroke"
         points="282.817,424.405 282.601,424.441 282.366,424.482 282.114,424.527 281.846,424.576 281.562,424.629 281.265,424.686 280.955,424.746 280.634,424.81 279.961,424.946 279.257,425.093 278.532,425.248 277.794,425.41 276.314,425.749 274.837,426.103 271.888,426.844 "
         id="polyline52" />
      <polyline
         fill="none"
         vector-effect="non-scaling-stroke"
         points="341.218,435.492 336.974,434.663 334.852,434.262 332.727,433.874 330.601,433.505 328.473,433.16 326.342,432.844 324.208,432.56 323.139,432.432 322.069,432.314 320.999,432.206 319.927,432.11 318.854,432.025 317.78,431.951 316.705,431.889 315.629,431.838 314.552,431.797 313.474,431.767 312.396,431.748 311.317,431.739 309.158,431.751 306.997,431.801 304.836,431.89 302.674,432.014 300.513,432.172 298.354,432.364 296.196,432.588 294.04,432.841 291.888,433.124 289.739,433.433 287.595,433.768 285.456,434.128 283.323,434.51 281.196,434.914 279.075,435.339 276.96,435.784 274.85,436.248 272.746,436.731 "
         id="polyline54" />
      <polyline
         fill="none"
         vector-effect="non-scaling-stroke"
         points="244.832,314.077 245.642,314.67 246.461,315.25 247.29,315.815 248.13,316.362 248.983,316.889 249.848,317.392 250.727,317.871 251.62,318.326 252.527,318.76 253.448,319.176 254.383,319.576 255.333,319.963 256.297,320.34 257.275,320.709 258.268,321.072 259.275,321.433 "
         id="polyline56" />
      <polyline
         fill="none"
         vector-effect="non-scaling-stroke"
         points="271.892,426.841 272.771,436.768 "
         id="polyline58" />
      <polyline
         fill="none"
         vector-effect="non-scaling-stroke"
         points="341.172,435.538 342.523,425.973 "
         id="polyline60" />
    </g>
    <g
       fill="#009b50"
       fill-opacity="1"
       stroke="#009b50"
       stroke-opacity="1"
       stroke-width="1"
       stroke-linecap="round"
       stroke-linejoin="bevel"
       font-family="'MS Shell Dlg 2'"
       font-size="17.75px"
       font-weight="400"
       font-style="normal"
       id="g64" />
    <g
       fill="#009b50"
       fill-opacity="1"
       stroke="#009b50"
       stroke-opacity="1"
       stroke-width="1"
       stroke-linecap="round"
       stroke-linejoin="bevel"
       transform="matrix(0.104938,0,0,0.104938,469.42,415.333)"
       font-family="'Calibri Light'"
       font-size="1575.32px"
       font-weight="400"
       font-style="normal"
       id="g68">
      <text
         fill="#009b50"
         fill-opacity="1"
         stroke="none"
         xml:space="preserve"
         x="0"
         y="0"
         font-family="'Calibri Light'"
         font-size="1575.32px"
         font-weight="400"
         font-style="normal"
         id="text66">F</text>
    </g>
    <g
       fill="#009b50"
       fill-opacity="1"
       stroke="#009b50"
       stroke-opacity="1"
       stroke-width="1"
       stroke-linecap="round"
       stroke-linejoin="bevel"
       transform="matrix(0.104938,0,0,0.104938,469.42,415.333)"
       font-family="'Calibri Light'"
       font-size="1575.32px"
       font-weight="400"
       font-style="normal"
       id="g72">
      <text
         fill="#009b50"
         fill-opacity="1"
         stroke="none"
         xml:space="preserve"
         x="727.172"
         y="0"
         font-family="'Calibri Light'"
         font-size="1575.32px"
         font-weight="400"
         font-style="normal"
         id="text70">A</text>
    </g>
    <g
       fill="#009b50"
       fill-opacity="1"
       stroke="#009b50"
       stroke-opacity="1"
       stroke-width="1"
       stroke-linecap="round"
       stroke-linejoin="bevel"
       transform="matrix(0.104938,0,0,0.104938,469.42,415.333)"
       font-family="'Calibri Light'"
       font-size="1575.32px"
       font-weight="400"
       font-style="normal"
       id="g76">
      <text
         fill="#009b50"
         fill-opacity="1"
         stroke="none"
         xml:space="preserve"
         x="1618.0601"
         y="0"
         font-family="'Calibri Light'"
         font-size="1575.32px"
         font-weight="400"
         font-style="normal"
         id="text74">R</text>
    </g>
    <g
       fill="#009b50"
       fill-opacity="1"
       stroke="#009b50"
       stroke-opacity="1"
       stroke-width="1"
       stroke-linecap="round"
       stroke-linejoin="bevel"
       transform="matrix(0.104938,0,0,0.104938,469.42,415.333)"
       font-family="'Calibri Light'"
       font-size="1575.32px"
       font-weight="400"
       font-style="normal"
       id="g80">
      <text
         fill="#009b50"
         fill-opacity="1"
         stroke="none"
         xml:space="preserve"
         x="2459.75"
         y="0"
         font-family="'Calibri Light'"
         font-size="1575.32px"
         font-weight="400"
         font-style="normal"
         id="text78">M</text>
    </g>
    <g
       fill="#009b50"
       fill-opacity="1"
       stroke="#009b50"
       stroke-opacity="1"
       stroke-width="1"
       stroke-linecap="round"
       stroke-linejoin="bevel"
       transform="matrix(0.104938,0,0,0.104938,469.42,415.333)"
       font-family="'Calibri Light'"
       font-size="1575.32px"
       font-weight="400"
       font-style="normal"
       id="g84">
      <text
         fill="#009b50"
         fill-opacity="1"
         stroke="none"
         xml:space="preserve"
         x="3795.5801"
         y="0"
         font-family="'Calibri Light'"
         font-size="1575.32px"
         font-weight="400"
         font-style="normal"
         id="text82">Á</text>
    </g>
    <g
       fill="#009b50"
       fill-opacity="1"
       stroke="#009b50"
       stroke-opacity="1"
       stroke-width="1"
       stroke-linecap="round"
       stroke-linejoin="bevel"
       transform="matrix(0.104938,0,0,0.104938,469.42,415.333)"
       font-family="'Calibri Light'"
       font-size="1575.32px"
       font-weight="400"
       font-style="normal"
       id="g88">
      <text
         fill="#009b50"
         fill-opacity="1"
         stroke="none"
         xml:space="preserve"
         x="4686.48"
         y="0"
         font-family="'Calibri Light'"
         font-size="1575.32px"
         font-weight="400"
         font-style="normal"
         id="text86">C</text>
    </g>
    <g
       fill="#009b50"
       fill-opacity="1"
       stroke="#009b50"
       stroke-opacity="1"
       stroke-width="1"
       stroke-linecap="round"
       stroke-linejoin="bevel"
       transform="matrix(0.104938,0,0,0.104938,469.42,415.333)"
       font-family="'Calibri Light'"
       font-size="1575.32px"
       font-weight="400"
       font-style="normal"
       id="g92">
      <text
         fill="#009b50"
         fill-opacity="1"
         stroke="none"
         xml:space="preserve"
         x="5533.1899"
         y="0"
         font-family="'Calibri Light'"
         font-size="1575.32px"
         font-weight="400"
         font-style="normal"
         id="text90">I</text>
    </g>
    <g
       fill="#009b50"
       fill-opacity="1"
       stroke="#009b50"
       stroke-opacity="1"
       stroke-width="1"
       stroke-linecap="round"
       stroke-linejoin="bevel"
       transform="matrix(0.104938,0,0,0.104938,469.42,415.333)"
       font-family="'Calibri Light'"
       font-size="1575.32px"
       font-weight="400"
       font-style="normal"
       id="g96">
      <text
         fill="#009b50"
         fill-opacity="1"
         stroke="none"
         xml:space="preserve"
         x="5919.8799"
         y="0"
         font-family="'Calibri Light'"
         font-size="1575.32px"
         font-weight="400"
         font-style="normal"
         id="text94">A</text>
    </g>
    <g
       fill="#009b50"
       fill-opacity="1"
       stroke="#009b50"
       stroke-opacity="1"
       stroke-width="1"
       stroke-linecap="round"
       stroke-linejoin="bevel"
       transform="matrix(0.104938,0,0,0.104938,469.42,415.333)"
       font-family="'Calibri Light'"
       font-size="1575.32px"
       font-weight="400"
       font-style="normal"
       id="g100">
      <text
         fill="#009b50"
         fill-opacity="1"
         stroke="none"
         xml:space="preserve"
         x="6810.77"
         y="0"
         font-family="'Calibri Light'"
         font-size="1575.32px"
         font-weight="400"
         font-style="normal"
         id="text98"> </text>
    </g>
    <g
       fill="#009b50"
       fill-opacity="1"
       stroke="#009b50"
       stroke-opacity="1"
       stroke-width="1"
       stroke-linecap="round"
       stroke-linejoin="bevel"
       transform="matrix(0.104938,0,0,0.104938,469.42,415.333)"
       font-family="'Calibri Light'"
       font-size="1575.32px"
       font-weight="400"
       font-style="normal"
       id="g104">
      <text
         fill="#009b50"
         fill-opacity="1"
         stroke="none"
         xml:space="preserve"
         x="7168.3301"
         y="0"
         font-family="'Calibri Light'"
         font-size="1575.32px"
         font-weight="400"
         font-style="normal"
         id="text102">P</text>
    </g>
    <g
       fill="#009b50"
       fill-opacity="1"
       stroke="#009b50"
       stroke-opacity="1"
       stroke-width="1"
       stroke-linecap="round"
       stroke-linejoin="bevel"
       transform="matrix(0.104938,0,0,0.104938,469.42,415.333)"
       font-family="'Calibri Light'"
       font-size="1575.32px"
       font-weight="400"
       font-style="normal"
       id="g108">
      <text
         fill="#009b50"
         fill-opacity="1"
         stroke="none"
         xml:space="preserve"
         x="7971.8398"
         y="0"
         font-family="'Calibri Light'"
         font-size="1575.32px"
         font-weight="400"
         font-style="normal"
         id="text106">I</text>
    </g>
    <g
       fill="#009b50"
       fill-opacity="1"
       stroke="#009b50"
       stroke-opacity="1"
       stroke-width="1"
       stroke-linecap="round"
       stroke-linejoin="bevel"
       transform="matrix(0.104938,0,0,0.104938,469.42,415.333)"
       font-family="'Calibri Light'"
       font-size="1575.32px"
       font-weight="400"
       font-style="normal"
       id="g112">
      <text
         fill="#009b50"
         fill-opacity="1"
         stroke="none"
         xml:space="preserve"
         x="8358.5303"
         y="0"
         font-family="'Calibri Light'"
         font-size="1575.32px"
         font-weight="400"
         font-style="normal"
         id="text110">S</text>
    </g>
    <g
       fill="#009b50"
       fill-opacity="1"
       stroke="#009b50"
       stroke-opacity="1"
       stroke-width="1"
       stroke-linecap="round"
       stroke-linejoin="bevel"
       transform="matrix(0.104938,0,0,0.104938,469.42,415.333)"
       font-family="'Calibri Light'"
       font-size="1575.32px"
       font-weight="400"
       font-style="normal"
       id="g116">
      <text
         fill="#009b50"
         fill-opacity="1"
         stroke="none"
         xml:space="preserve"
         x="9074.6602"
         y="0"
         font-family="'Calibri Light'"
         font-size="1575.32px"
         font-weight="400"
         font-style="normal"
         id="text114">C</text>
    </g>
    <g
       fill="#009b50"
       fill-opacity="1"
       stroke="#009b50"
       stroke-opacity="1"
       stroke-width="1"
       stroke-linecap="round"
       stroke-linejoin="bevel"
       transform="matrix(0.104938,0,0,0.104938,469.42,415.333)"
       font-family="'Calibri Light'"
       font-size="1575.32px"
       font-weight="400"
       font-style="normal"
       id="g120">
      <text
         fill="#009b50"
         fill-opacity="1"
         stroke="none"
         xml:space="preserve"
         x="9921.3604"
         y="0"
         font-family="'Calibri Light'"
         font-size="1575.32px"
         font-weight="400"
         font-style="normal"
         id="text118">O</text>
    </g>
    <g
       fill="#009b50"
       fill-opacity="1"
       stroke="#009b50"
       stroke-opacity="1"
       stroke-width="1"
       stroke-linecap="round"
       stroke-linejoin="bevel"
       font-family="'MS Shell Dlg 2'"
       font-size="17.75px"
       font-weight="400"
       font-style="normal"
       id="g122" />
    <g
       fill="#009b50"
       fill-opacity="1"
       stroke="#009b50"
       stroke-opacity="1"
       stroke-width="1"
       stroke-linecap="square"
       stroke-linejoin="bevel"
       font-family="'MS Shell Dlg 2'"
       font-size="17.75px"
       font-weight="400"
       font-style="normal"
       id="g166">
      <polyline
         fill="none"
         vector-effect="non-scaling-stroke"
         points="366.296,488.082 265.014,488.082 "
         id="polyline124" />
      <polyline
         fill="none"
         vector-effect="non-scaling-stroke"
         points="265.014,488.082 264.378,488.062 263.743,488.005 263.114,487.909 262.492,487.775 261.878,487.604 261.276,487.397 260.688,487.153 260.116,486.874 259.561,486.561 259.027,486.216 258.514,485.838 258.025,485.431 257.561,484.994 257.125,484.531 256.717,484.042 256.34,483.529 255.994,482.994 255.681,482.44 255.403,481.867 255.159,481.279 254.951,480.677 254.78,480.064 254.647,479.442 254.551,478.812 254.493,478.178 254.474,477.542 "
         id="polyline126" />
      <polyline
         fill="none"
         vector-effect="non-scaling-stroke"
         points="254.474,477.542 254.474,424.78 201.713,424.78 "
         id="polyline128" />
      <polyline
         fill="none"
         vector-effect="non-scaling-stroke"
         points="201.713,424.78 201.076,424.761 200.442,424.703 199.813,424.608 199.19,424.474 198.577,424.303 197.975,424.095 197.387,423.852 196.815,423.573 196.26,423.26 195.725,422.915 195.213,422.537 194.723,422.13 194.26,421.693 193.823,421.23 193.416,420.741 193.039,420.228 192.693,419.693 192.38,419.139 192.101,418.566 191.858,417.978 191.65,417.376 191.479,416.763 191.345,416.14 191.25,415.511 191.192,414.877 191.173,414.24 "
         id="polyline130" />
      <polyline
         fill="none"
         vector-effect="non-scaling-stroke"
         points="191.173,414.24 191.173,312.958 "
         id="polyline132" />
      <polyline
         fill="none"
         vector-effect="non-scaling-stroke"
         points="191.173,312.958 191.192,312.322 191.25,311.688 191.345,311.059 191.479,310.436 191.65,309.823 191.858,309.221 192.101,308.633 192.38,308.06 192.693,307.506 193.039,306.971 193.416,306.458 193.823,305.969 194.26,305.506 194.723,305.069 195.213,304.662 195.725,304.284 196.26,303.939 196.815,303.626 197.387,303.347 197.975,303.104 198.577,302.896 199.19,302.725 199.813,302.591 200.442,302.495 201.076,302.438 201.713,302.419 "
         id="polyline134" />
      <polyline
         fill="none"
         vector-effect="non-scaling-stroke"
         points="201.713,302.419 254.474,302.419 254.474,249.657 "
         id="polyline136" />
      <polyline
         fill="none"
         vector-effect="non-scaling-stroke"
         points="254.474,249.657 254.493,249.021 254.551,248.387 254.647,247.757 254.78,247.135 254.951,246.522 255.159,245.92 255.403,245.332 255.681,244.759 255.994,244.205 256.34,243.67 256.717,243.157 257.125,242.668 257.561,242.204 258.025,241.768 258.514,241.36 259.027,240.983 259.561,240.637 260.116,240.325 260.688,240.046 261.276,239.802 261.878,239.595 262.492,239.424 263.114,239.29 263.743,239.194 264.378,239.137 265.014,239.117 "
         id="polyline138" />
      <polyline
         fill="none"
         vector-effect="non-scaling-stroke"
         points="265.014,239.117 366.296,239.117 "
         id="polyline140" />
      <polyline
         fill="none"
         vector-effect="non-scaling-stroke"
         points="366.296,239.117 366.932,239.137 367.566,239.194 368.196,239.29 368.818,239.424 369.431,239.595 370.033,239.802 370.622,240.046 371.194,240.325 371.749,240.637 372.283,240.983 372.796,241.36 373.285,241.768 373.749,242.204 374.185,242.668 374.593,243.157 374.97,243.67 375.316,244.205 375.628,244.759 375.907,245.332 376.151,245.92 376.359,246.522 376.529,247.135 376.663,247.757 376.759,248.387 376.817,249.021 376.836,249.657 "
         id="polyline142" />
      <polyline
         fill="none"
         vector-effect="non-scaling-stroke"
         points="376.836,249.657 376.836,302.419 429.597,302.419 "
         id="polyline144" />
      <polyline
         fill="none"
         vector-effect="non-scaling-stroke"
         points="429.597,302.419 430.233,302.438 430.867,302.495 431.497,302.591 432.119,302.725 432.733,302.896 433.335,303.104 433.923,303.347 434.495,303.626 435.05,303.939 435.584,304.284 436.097,304.662 436.586,305.069 437.05,305.506 437.486,305.969 437.894,306.458 438.271,306.971 438.617,307.506 438.93,308.06 439.208,308.633 439.452,309.221 439.66,309.823 439.831,310.436 439.964,311.059 440.06,311.688 440.118,312.322 440.137,312.958 "
         id="polyline146" />
      <polyline
         fill="none"
         vector-effect="non-scaling-stroke"
         points="440.137,312.958 440.137,414.24 "
         id="polyline148" />
      <polyline
         fill="none"
         vector-effect="non-scaling-stroke"
         points="440.137,414.24 440.118,414.877 440.06,415.511 439.964,416.14 439.831,416.763 439.66,417.376 439.452,417.978 439.208,418.566 438.93,419.139 438.617,419.693 438.271,420.228 437.894,420.741 437.486,421.23 437.05,421.693 436.586,422.13 436.097,422.537 435.584,422.915 435.05,423.26 434.495,423.573 433.923,423.852 433.335,424.095 432.733,424.303 432.119,424.474 431.497,424.608 430.867,424.703 430.233,424.761 429.597,424.78 "
         id="polyline150" />
      <polyline
         fill="none"
         vector-effect="non-scaling-stroke"
         points="429.597,424.78 376.836,424.78 376.836,477.542 "
         id="polyline152" />
      <polyline
         fill="none"
         vector-effect="non-scaling-stroke"
         points="376.836,477.542 376.817,478.178 376.759,478.812 376.663,479.442 376.529,480.064 376.359,480.677 376.151,481.279 375.907,481.867 375.628,482.44 375.316,482.994 374.97,483.529 374.593,484.042 374.185,484.531 373.749,484.994 373.285,485.431 372.796,485.838 372.283,486.216 371.749,486.561 371.194,486.874 370.622,487.153 370.033,487.397 369.431,487.604 368.818,487.775 368.196,487.909 367.566,488.005 366.932,488.062 366.296,488.082 "
         id="polyline154" />
      <polyline
         fill="none"
         vector-effect="non-scaling-stroke"
         points="343.225,400.639 342.437,402.107 341.626,403.562 340.797,405.008 339.959,406.449 338.279,409.328 337.451,410.775 336.64,412.23 335.854,413.698 335.092,415.179 334.349,416.67 333.619,418.168 332.174,421.173 331.448,422.673 330.71,424.167 "
         id="polyline156" />
      <polyline
         fill="none"
         vector-effect="non-scaling-stroke"
         points="334.791,405.396 334.205,406.529 333.627,407.667 332.486,409.95 331.341,412.23 330.758,413.364 330.164,414.493 329.556,415.614 328.934,416.728 328.3,417.835 327.657,418.937 326.349,421.129 325.029,423.313 "
         id="polyline158" />
      <polyline
         fill="none"
         vector-effect="non-scaling-stroke"
         points="294.637,422.795 295.814,421.921 297.01,421.068 298.221,420.232 299.443,419.407 304.363,416.146 306.814,414.501 308.032,413.669 309.242,412.827 310.445,411.973 311.637,411.107 312.818,410.224 313.986,409.325 "
         id="polyline160" />
      <polyline
         fill="none"
         vector-effect="non-scaling-stroke"
         points="307.102,408.012 304.102,410.164 301.083,412.289 298.047,414.393 294.999,416.478 291.936,418.543 290.397,419.564 288.851,420.574 287.298,421.572 285.736,422.557 284.165,423.525 282.582,424.477 "
         id="polyline162" />
      <polyline
         fill="none"
         vector-effect="non-scaling-stroke"
         points="244.826,314.102 245.812,313.816 246.806,313.558 247.807,313.327 248.813,313.12 249.824,312.936 250.838,312.771 251.854,312.623 252.871,312.49 254.911,312.255 256.953,312.044 258.997,311.847 260.02,311.764 261.044,311.697 "
         id="polyline164" />
    </g>
    <g
       fill="none"
       stroke="none"
       stroke-opacity="1"
       stroke-width="1"
       stroke-linecap="square"
       stroke-linejoin="bevel"
       font-family="'MS Shell Dlg 2'"
       font-size="17.75px"
       font-weight="400"
       font-style="normal"
       id="g168" />
  </g>
  <metadata
     id="metadata403">
    <rdf:RDF>
      <cc:Work
         rdf:about="">
        <dc:title>Qt SVG Document</dc:title>
      </cc:Work>
    </rdf:RDF>
  </metadata>
</svg>
